<?xml version="1.0" encoding="UTF-8" standalone="no"?>
<!DOCTYPE svg PUBLIC "-//W3C//DTD SVG 1.1//EN" "http://www.w3.org/Graphics/SVG/1.1/DTD/svg11.dtd">
<svg xmlns="http://www.w3.org/2000/svg" xmlns:xlink="http://www.w3.org/1999/xlink" version="1.1" width="3391.6666pt" height="3391.6666pt" viewBox="0 0 3391.6666 3391.6666">
<g enable-background="new">
<g id="Layer-1" data-name="Слой 1">
<path transform="matrix(2.7777777,0,0,-2.7777777,0,3391.6666)" d="M 0 0 L 1221 0 L 1221 1221 L 0 1221 Z " fill="#ffffff"/>
<clipPath id="cp0">
<path transform="matrix(2.7777777,0,0,-2.7777777,0,3391.6666)" d="M 0 1221 L 1221 1221 L 1221 0 L 0 0 Z "/>
</clipPath>
<g clip-path="url(#cp0)">
<path transform="matrix(2.7777777,0,0,-2.7777777,1324.3178,2699.1292)" d="M 0 0 C -4.118 2.244 -8.852 4.824 -14.153 7.71 C -19.378 10.776 -25.162 14.172 -31.461 17.869 C -37.585 21.841 -44.43 25.813 -51.339 30.654 C -55.022 33.093 -58.793 35.678 -62.634 38.396 C -62.598 38.908 -62.552 39.554 -62.498 40.307 C -62.408 41.24 -62.419 42.381 -62.377 43.571 C -62.377 43.58 -62.377 43.588 -62.377 43.596 C -61.931 43.562 -61.273 43.674 -60.431 43.939 C -58.144 44.681 -54.597 46.554 -50.894 49.506 C -48.155 51.696 -45.33 54.478 -42.871 57.826 C -35.085 67.686 -30.482 82.541 -28.449 100.709 C -28.372 101.313 -28.298 101.917 -28.237 102.523 C -26.654 120.144 -35.276 137.011 -41.365 149.262 C -43.767 153.689 -45.846 157.522 -47.635 160.634 C -50.034 164.832 -51.902 167.721 -53.322 168.987 C -53.869 169.475 -54.353 169.726 -54.768 169.707 C -56.902 169.835 -61.639 166.296 -66.091 160.072 C -67.739 157.771 -69.342 155.101 -70.759 152.107 C -76.361 141.05 -79.41 125.59 -81.007 108.948 C -81.057 108.324 -81.101 107.697 -81.134 107.073 C -81.986 91.161 -76.97 75.901 -73.146 64.449 C -71.936 61.134 -70.832 58.142 -69.789 55.521 C -67.549 49.867 -65.641 45.949 -63.799 44.341 C -63.83 44.125 -63.862 43.908 -63.889 43.695 C -64.057 42.538 -64.162 41.478 -64.355 40.542 C -64.408 40.255 -64.457 39.99 -64.503 39.734 C -74.781 47.084 -85.545 55.399 -96.577 64.737 C -106.97 73.545 -117.558 83.292 -128.049 94 C -127.962 94.396 -127.863 94.846 -127.754 95.346 C -127.533 96.255 -127.38 97.389 -127.167 98.556 C -127.167 98.563 -127.165 98.571 -127.164 98.578 C -126.729 98.479 -126.061 98.494 -125.189 98.643 C -122.818 99.045 -119.04 100.393 -114.951 102.783 C -111.926 104.553 -108.733 106.902 -105.815 109.861 C -96.693 118.503 -90.009 132.547 -85.388 150.235 C -85.225 150.819 -85.067 151.407 -84.92 152.001 C -80.82 169.211 -86.933 187.14 -91.202 200.137 C -92.946 204.86 -94.453 208.951 -95.775 212.289 C -97.547 216.792 -98.984 219.915 -100.205 221.375 C -100.675 221.939 -101.117 222.253 -101.531 222.293 C -103.627 222.727 -108.824 219.905 -114.121 214.383 C -116.081 212.344 -118.053 209.926 -119.885 207.169 C -127.017 197.03 -132.25 182.175 -136.221 165.931 C -136.36 165.318 -136.494 164.705 -136.615 164.092 C -139.743 148.467 -136.97 132.647 -134.83 120.765 C -134.104 117.31 -133.442 114.187 -132.786 111.444 C -131.38 105.53 -130.056 101.379 -128.465 99.521 C -128.526 99.313 -128.589 99.103 -128.645 98.898 C -128.979 97.778 -129.235 96.745 -129.561 95.846 C -129.587 95.767 -129.611 95.697 -129.636 95.621 C -134.596 100.734 -139.532 106.063 -144.412 111.613 C -158.091 127.225 -171.215 144.649 -183.21 163.628 C -183.1 163.904 -182.985 164.194 -182.858 164.512 C -182.489 165.374 -182.153 166.465 -181.751 167.585 C -181.748 167.594 -181.745 167.602 -181.742 167.609 C -181.329 167.441 -180.669 167.347 -179.787 167.347 C -177.379 167.355 -173.434 168.062 -169.007 169.751 C -165.733 171.004 -162.198 172.795 -158.837 175.237 C -148.42 182.269 -139.521 195.024 -132.066 211.716 C -131.809 212.263 -131.554 212.819 -131.311 213.376 C -124.451 229.688 -127.54 248.371 -129.618 261.896 C -130.563 266.844 -131.38 271.122 -132.138 274.632 C -133.148 279.365 -134.051 282.684 -135.018 284.32 C -135.389 284.951 -135.774 285.335 -136.175 285.445 C -138.171 286.212 -143.757 284.28 -149.892 279.707 C -152.162 278.014 -154.5 275.952 -156.759 273.533 C -165.456 264.701 -173.057 250.9 -179.636 235.532 C -179.873 234.952 -180.106 234.364 -180.327 233.78 C -185.973 218.883 -185.83 202.827 -185.668 190.743 C -185.519 187.225 -185.379 184.033 -185.183 181.222 C -184.765 175.155 -184.139 170.845 -182.873 168.751 C -182.968 168.555 -183.064 168.358 -183.153 168.166 C -183.613 167.218 -184.003 166.336 -184.418 165.562 C -185.756 167.703 -187.083 169.857 -188.39 172.037 C -194.996 183.208 -201.176 194.884 -206.899 206.963 C -212.488 219.107 -217.597 231.647 -222.098 244.532 C -222.241 244.948 -222.377 245.366 -222.518 245.783 C -222.371 246.006 -222.216 246.239 -222.049 246.491 C -221.513 247.256 -220.96 248.259 -220.338 249.274 C -220.334 249.281 -220.33 249.289 -220.326 249.296 C -219.956 249.045 -219.329 248.818 -218.461 248.636 C -216.103 248.16 -212.098 248.046 -207.421 248.798 C -203.96 249.361 -200.134 250.388 -196.345 252.099 C -184.715 256.862 -173.406 267.533 -162.707 282.361 C -162.341 282.844 -161.979 283.334 -161.629 283.83 C -151.59 298.397 -150.806 317.327 -150.086 330.989 C -150.004 336.027 -149.934 340.382 -149.961 343.97 C -149.983 348.812 -150.193 352.24 -150.806 354.042 C -151.042 354.737 -151.339 355.192 -151.71 355.378 C -153.506 356.542 -159.371 355.787 -166.309 352.557 C -168.875 351.36 -171.584 349.817 -174.29 347.913 C -184.603 341.032 -194.854 329.075 -204.427 315.367 C -204.778 314.845 -205.125 314.32 -205.459 313.79 C -214.024 300.357 -217.154 284.609 -219.455 272.745 C -220.028 269.271 -220.539 266.117 -220.921 263.324 C -221.748 257.305 -222.011 252.95 -221.199 250.644 C -221.333 250.471 -221.467 250.298 -221.595 250.127 C -222.196 249.346 -222.725 248.612 -223.253 247.969 C -231.504 272.745 -237.505 298.7 -240.673 325.044 C -241.189 329.39 -241.628 333.743 -242.006 338.104 C -241.706 338.413 -241.044 339.096 -240.163 340.001 C -239.547 340.604 -238.875 341.42 -238.138 342.235 C -238.133 342.241 -238.129 342.245 -238.124 342.251 C -237.832 341.961 -237.299 341.651 -236.542 341.338 C -234.485 340.5 -230.869 339.718 -226.498 339.607 C -223.259 339.526 -219.613 339.81 -215.883 340.719 C -204.519 343.061 -192.438 350.819 -180.208 362.455 C -179.794 362.831 -179.385 363.219 -178.979 363.608 C -167.39 375.119 -163.46 392.163 -160.482 404.443 C -159.551 408.995 -158.743 412.937 -158.161 416.198 C -157.356 420.596 -156.963 423.744 -157.213 425.485 C -157.309 426.155 -157.501 426.618 -157.808 426.85 C -159.241 428.212 -164.688 428.525 -171.536 426.773 C -174.065 426.126 -176.788 425.186 -179.568 423.915 C -190.099 419.429 -201.435 410.32 -212.456 399.508 C -212.861 399.099 -213.265 398.678 -213.659 398.255 C -223.717 387.516 -229.238 373.761 -233.345 363.388 C -234.456 360.328 -235.456 357.556 -236.278 355.084 C -238.051 349.76 -239.031 345.856 -238.687 343.625 C -238.837 343.49 -238.989 343.356 -239.133 343.223 C -239.938 342.5 -240.644 341.819 -241.337 341.272 C -241.66 341.006 -241.954 340.762 -242.218 340.542 C -244.035 363.032 -244.04 385.648 -242.501 407.828 C -241.968 415.407 -241.232 422.934 -240.316 430.4 C -239.898 430.648 -239.225 431.048 -238.376 431.554 C -237.652 431.961 -236.821 432.549 -235.929 433.125 C -235.923 433.129 -235.917 433.133 -235.912 433.136 C -235.71 432.792 -235.293 432.371 -234.667 431.89 C -232.965 430.591 -229.792 428.955 -225.75 427.755 C -222.756 426.866 -219.29 426.212 -215.587 426.128 C -204.418 425.454 -191.221 429.644 -176.911 437.408 C -176.431 437.652 -175.954 437.911 -175.478 438.171 C -161.799 445.979 -153.857 460.863 -148.001 471.551 C -145.992 475.555 -144.251 479.023 -142.886 481.914 C -141.037 485.806 -139.881 488.64 -139.676 490.321 C -139.595 490.973 -139.657 491.451 -139.885 491.745 C -140.877 493.37 -145.873 495.03 -152.687 495.115 C -155.206 495.153 -157.973 494.959 -160.885 494.474 C -171.815 492.94 -184.658 487.307 -197.635 480.005 C -198.114 479.726 -198.597 479.435 -199.069 479.141 C -211.131 471.668 -219.726 460.244 -226.154 451.62 C -227.958 449.047 -229.585 446.716 -230.972 444.621 C -233.958 440.108 -235.852 436.721 -236.092 434.558 C -236.266 434.471 -236.44 434.383 -236.608 434.294 C -237.539 433.823 -238.37 433.365 -239.151 433.032 C -239.475 432.885 -239.769 432.75 -240.042 432.625 C -237.656 451.286 -234.112 469.529 -229.557 487.078 C -227.228 496.072 -224.628 504.874 -221.817 513.479 C -221.542 513.605 -221.244 513.744 -220.917 513.894 C -220.155 514.227 -219.27 514.726 -218.322 515.208 C -218.316 515.211 -218.31 515.214 -218.304 515.218 C -218.14 514.853 -217.767 514.391 -217.192 513.846 C -215.633 512.38 -212.645 510.43 -208.747 508.823 C -205.858 507.631 -202.478 506.624 -198.807 506.159 C -187.764 504.345 -174.205 507.16 -159.174 513.415 C -158.673 513.609 -158.172 513.818 -157.672 514.032 C -143.267 520.396 -133.84 534.385 -126.919 544.417 C -124.507 548.195 -122.421 551.465 -120.768 554.2 C -118.529 557.882 -117.087 560.583 -116.712 562.235 C -116.565 562.875 -116.578 563.356 -116.775 563.672 C -117.596 565.39 -122.394 567.553 -129.164 568.337 C -131.666 568.633 -134.439 568.723 -137.383 568.54 C -148.413 568.135 -161.767 563.846 -175.422 557.914 C -175.93 557.686 -176.44 557.443 -176.939 557.201 C -189.703 551.004 -199.426 540.521 -206.701 532.602 C -208.76 530.226 -210.617 528.077 -212.213 526.132 C -215.645 521.952 -217.875 518.777 -218.336 516.65 C -218.519 516.581 -218.702 516.512 -218.878 516.441 C -219.696 516.127 -220.429 515.832 -221.127 515.592 C -216.21 530.395 -210.644 544.579 -204.604 558.004 C -198.303 572.012 -191.515 585.196 -184.501 597.517 C -184.136 597.59 -183.358 597.746 -182.326 597.954 C -181.608 598.081 -180.749 598.324 -179.844 598.542 C -179.838 598.544 -179.832 598.545 -179.826 598.547 C -179.761 598.201 -179.537 597.73 -179.161 597.145 C -178.128 595.578 -175.981 593.301 -172.985 591.129 C -170.765 589.522 -168.086 587.971 -165.05 586.822 C -156.004 583.007 -143.862 582.629 -129.757 584.887 C -129.289 584.947 -128.818 585.021 -128.35 585.102 C -114.754 587.578 -103.844 597.575 -95.883 604.714 C -93.053 607.442 -90.603 609.801 -88.632 611.801 C -85.967 614.48 -84.185 616.486 -83.524 617.822 C -83.267 618.336 -83.18 618.751 -83.282 619.06 C -83.628 620.69 -87.282 623.523 -92.894 625.578 C -94.967 626.348 -97.316 626.989 -99.864 627.437 C -109.356 629.353 -121.626 628.435 -134.492 626.173 C -134.972 626.082 -135.455 625.982 -135.934 625.878 C -148.09 623.207 -158.534 616.258 -166.366 610.995 C -168.61 609.391 -170.632 607.936 -172.392 606.606 C -176.178 603.744 -178.731 601.493 -179.561 599.774 C -179.73 599.752 -179.899 599.731 -180.065 599.707 C -180.974 599.588 -181.794 599.45 -182.538 599.403 C -182.874 599.373 -183.18 599.345 -183.459 599.32 C -179.871 605.558 -176.232 611.591 -172.565 617.364 C -165.63 628.281 -158.627 638.329 -151.752 647.527 C -150.091 646.767 -146.322 647.386 -141.11 649.004 C -139.021 649.658 -136.716 650.466 -134.208 651.423 C -125.683 654.882 -115.058 660.183 -107.187 669.355 C -106.882 669.721 -106.57 670.083 -106.265 670.448 C -98.4 680.462 -91.558 690.353 -87.717 698.775 C -86.643 701.016 -85.796 703.167 -85.19 705.143 C -83.513 710.473 -83.443 714.556 -84.575 715.708 C -84.768 715.956 -85.164 716.123 -85.755 716.224 C -87.293 716.496 -90.11 716.347 -93.935 715.838 C -96.78 715.477 -100.163 714.902 -103.976 714.154 C -114.33 711.822 -127.794 707.884 -136.171 697.338 C -136.458 696.977 -136.741 696.607 -137.012 696.234 C -145.447 685.129 -151.157 674.636 -153.095 665.439 C -153.84 662.411 -154.105 659.501 -154.09 656.928 C -154.078 653.466 -153.523 650.641 -152.866 649.026 C -152.761 648.775 -152.656 648.563 -152.55 648.372 C -159.58 639.187 -166.753 629.139 -173.872 618.204 C -177.846 612.101 -181.794 605.709 -185.684 599.075 C -185.713 599.177 -185.743 599.278 -185.773 599.386 C -186 600.096 -186.169 600.909 -186.389 601.8 C -186.425 601.962 -186.467 602.126 -186.507 602.292 C -185.207 603.687 -184.034 606.884 -182.74 611.456 C -182.14 613.573 -181.519 615.988 -180.841 618.661 C -178.778 627.869 -176.091 640.125 -178.016 652.42 C -178.093 652.906 -178.174 653.389 -178.264 653.87 C -180.825 666.681 -184.421 678.45 -189.652 686.597 C -190.993 688.807 -192.442 690.763 -193.914 692.416 C -197.868 696.901 -201.83 699.276 -203.477 699.01 C -203.799 698.992 -204.155 698.76 -204.541 698.336 C -205.543 697.234 -206.769 694.848 -208.299 691.39 C -209.447 688.825 -210.758 685.685 -212.272 682.059 C -216.035 672.052 -221.389 658.254 -218.763 644.688 C -218.669 644.223 -218.568 643.76 -218.454 643.301 C -215.438 629.334 -210.681 618.164 -203.839 611.114 C -201.67 608.7 -199.251 606.772 -196.95 605.286 C -193.838 603.28 -190.934 602.106 -189.101 601.713 C -188.421 601.577 -187.903 601.539 -187.556 601.601 C -187.555 601.595 -187.554 601.589 -187.554 601.583 C -187.428 600.661 -187.342 599.771 -187.201 599.057 C -187.048 598.189 -186.929 597.5 -186.855 597.082 C -193.757 585.179 -200.45 572.458 -206.702 558.96 C -213.196 544.95 -219.18 530.088 -224.458 514.539 C -224.475 514.581 -224.491 514.619 -224.508 514.661 C -224.852 515.437 -225.147 516.338 -225.508 517.317 C -225.57 517.494 -225.637 517.675 -225.704 517.854 C -224.404 519.6 -223.482 523.37 -222.594 528.714 C -222.177 531.193 -221.783 534.006 -221.349 537.122 C -220.172 547.81 -218.674 562.026 -222.409 575.717 C -222.554 576.254 -222.708 576.797 -222.87 577.329 C -227.392 591.512 -232.948 604.393 -239.902 612.961 C -241.704 615.303 -243.592 617.33 -245.466 619.021 C -250.511 623.602 -255.296 625.788 -257.131 625.277 C -257.497 625.216 -257.87 624.911 -258.255 624.379 C -259.25 623.01 -260.334 620.148 -261.633 616.038 C -262.606 612.995 -263.696 609.268 -264.954 604.97 C -267.953 593.156 -272.281 576.851 -267.595 561.815 C -267.426 561.299 -267.252 560.787 -267.071 560.279 C -261.888 544.847 -255.083 532.783 -246.452 525.664 C -243.688 523.204 -240.705 521.323 -237.906 519.928 C -234.129 518.054 -230.696 517.086 -228.565 516.88 C -227.782 516.804 -227.19 516.827 -226.807 516.94 C -226.806 516.936 -226.804 516.93 -226.803 516.926 C -226.542 515.896 -226.335 514.901 -226.084 514.107 C -225.758 512.996 -225.511 512.151 -225.388 511.728 C -227.974 503.938 -230.4 495.997 -232.599 487.885 C -237.436 470.069 -241.242 451.513 -243.859 432.505 C -244.272 433.027 -244.69 433.592 -245.158 434.208 C -245.271 434.361 -245.389 434.515 -245.507 434.67 C -244.774 436.722 -244.993 440.596 -245.701 445.958 C -246.03 448.448 -246.469 451.256 -246.964 454.359 C -248.965 464.928 -251.685 478.962 -259.254 490.964 C -259.55 491.436 -259.855 491.91 -260.164 492.371 C -268.631 504.618 -277.707 515.31 -286.862 521.478 C -289.267 523.19 -291.669 524.575 -293.947 525.649 C -300.115 528.555 -305.331 529.249 -306.935 528.222 C -307.267 528.059 -307.535 527.657 -307.747 527.036 C -308.302 525.433 -308.501 522.381 -308.545 518.074 C -308.582 514.876 -308.535 510.995 -308.485 506.512 C -307.901 494.34 -307.288 477.485 -298.411 464.47 C -298.098 464.031 -297.779 463.589 -297.454 463.157 C -287.996 449.907 -277.969 440.359 -267.632 436.072 C -264.267 434.526 -260.865 433.596 -257.785 433.083 C -253.625 432.393 -250.054 432.476 -247.955 432.893 C -247.179 433.055 -246.617 433.249 -246.29 433.47 C -246.287 433.464 -246.283 433.458 -246.281 433.454 C -245.732 432.544 -245.244 431.652 -244.771 430.968 C -244.557 430.643 -244.362 430.347 -244.187 430.079 C -245.145 422.821 -245.935 415.504 -246.536 408.135 C -248.312 386.074 -248.57 363.611 -247.073 341.176 C -247.343 341.423 -247.612 341.671 -247.906 341.934 C -248.05 342.067 -248.201 342.202 -248.351 342.336 C -248.007 344.566 -248.988 348.471 -250.761 353.796 C -251.582 356.269 -252.583 359.038 -253.693 362.098 C -257.799 372.473 -263.323 386.228 -273.381 396.968 C -273.772 397.39 -274.176 397.809 -274.582 398.219 C -285.604 409.031 -296.941 418.14 -307.469 422.626 C -310.252 423.898 -312.972 424.837 -315.501 425.485 C -322.349 427.235 -327.799 426.923 -329.231 425.562 C -329.538 425.331 -329.731 424.868 -329.827 424.196 C -330.074 422.454 -329.681 419.308 -328.878 414.909 C -328.294 411.648 -327.488 407.707 -326.557 403.153 C -323.58 390.875 -319.647 373.832 -308.059 362.321 C -307.655 361.932 -307.244 361.542 -306.832 361.167 C -294.601 349.531 -282.519 341.771 -271.156 339.429 C -267.426 338.521 -263.778 338.238 -260.54 338.319 C -256.168 338.43 -252.552 339.21 -250.497 340.05 C -249.739 340.362 -249.208 340.672 -248.915 340.963 C -248.91 340.957 -248.906 340.952 -248.901 340.947 C -248.174 340.142 -247.509 339.339 -246.901 338.738 C -246.556 333.979 -246.138 329.222 -245.632 324.471 C -242.773 298.042 -237.101 271.932 -229.159 246.93 C -229.169 246.936 -229.179 246.94 -229.189 246.947 C -229.37 247.059 -229.56 247.17 -229.748 247.281 C -229.851 249.725 -231.712 253.665 -234.719 258.95 C -236.115 261.403 -237.759 264.137 -239.584 267.156 C -246.132 277.308 -254.892 290.762 -267.839 300.057 C -268.346 300.422 -268.862 300.779 -269.382 301.129 C -283.366 310.295 -297.33 317.588 -309.458 320.138 C -312.678 320.903 -315.77 321.325 -318.593 321.484 C -326.233 321.902 -331.96 320.421 -333.195 318.676 C -333.47 318.367 -333.577 317.831 -333.537 317.1 C -333.436 315.2 -332.355 311.938 -330.578 307.437 C -329.27 304.096 -327.585 300.074 -325.635 295.431 C -319.886 283.013 -312.122 265.736 -297.387 255.944 C -296.876 255.615 -296.357 255.293 -295.841 254.979 C -280.394 245.194 -265.927 239.491 -253.362 239.397 C -249.209 239.216 -245.275 239.682 -241.851 240.452 C -237.231 241.491 -233.554 243.082 -231.541 244.402 C -230.809 244.894 -230.31 245.337 -230.058 245.708 C -230.051 245.703 -230.044 245.698 -230.037 245.692 C -229.442 245.249 -228.878 244.807 -228.345 244.407 C -228.15 243.809 -227.961 243.207 -227.764 242.608 C -223.351 229.475 -218.313 216.672 -212.779 204.266 C -207.108 191.919 -200.965 179.968 -194.379 168.521 C -193.075 166.289 -191.751 164.079 -190.417 161.886 C -190.586 161.947 -190.742 162.004 -190.917 162.065 C -191.116 162.142 -191.323 162.213 -191.528 162.286 C -192.104 164.665 -194.695 168.166 -198.672 172.767 C -200.517 174.9 -202.656 177.268 -205.037 179.87 C -213.427 188.56 -224.635 200.057 -239.136 206.659 C -239.704 206.921 -240.284 207.169 -240.861 207.417 C -256.354 213.695 -271.469 218.137 -283.865 218.282 C -287.173 218.408 -290.287 218.227 -293.087 217.828 C -300.662 216.758 -305.991 214.195 -306.867 212.242 C -307.074 211.879 -307.078 211.339 -306.896 210.628 C -306.426 208.785 -304.732 205.793 -302.119 201.724 C -300.183 198.698 -297.747 195.085 -294.936 190.909 C -286.887 179.84 -275.919 164.4 -259.561 157.654 C -258.997 157.428 -258.428 157.213 -257.853 157.006 C -240.806 150.406 -225.508 147.617 -213.161 149.963 C -209.056 150.594 -205.281 151.814 -202.076 153.23 C -197.745 155.15 -194.444 157.428 -192.73 159.112 C -192.1 159.739 -191.696 160.271 -191.524 160.68 C -191.517 160.677 -191.51 160.674 -191.504 160.67 C -190.573 160.226 -189.697 159.769 -188.913 159.425 C -177.016 140.152 -163.969 122.414 -150.342 106.487 C -144.943 100.196 -139.471 94.182 -133.969 88.428 C -134.484 88.479 -135.022 88.539 -135.589 88.592 C -135.801 88.614 -136.02 88.634 -136.238 88.653 C -137.378 90.817 -140.743 93.583 -145.715 97.072 C -148.02 98.696 -150.676 100.469 -153.617 102.421 C -163.866 108.802 -177.541 117.229 -193.212 120.101 C -193.829 120.215 -194.45 120.318 -195.07 120.416 C -211.627 122.731 -227.364 123.365 -239.426 120.49 C -242.663 119.806 -245.636 118.867 -248.259 117.804 C -255.346 114.922 -259.888 111.137 -260.265 109.029 C -260.378 108.635 -260.25 108.104 -259.899 107.459 C -258.995 105.781 -256.62 103.293 -253.098 99.985 C -250.484 97.522 -247.244 94.609 -243.499 91.242 C -232.998 82.464 -218.601 70.158 -201.095 67.6 C -200.491 67.515 -199.889 67.449 -199.284 67.388 C -181.141 65.133 -165.624 66.152 -154.219 71.433 C -150.388 73.044 -147.026 75.145 -144.262 77.298 C -140.531 80.216 -137.881 83.23 -136.626 85.284 C -136.17 86.036 -135.91 86.652 -135.841 87.095 C -135.834 87.093 -135.826 87.091 -135.818 87.089 C -134.65 86.854 -133.543 86.578 -132.618 86.448 C -132.39 86.411 -132.172 86.376 -131.965 86.342 C -122.044 76.095 -112.042 66.71 -102.206 58.176 C -90.705 48.204 -79.479 39.341 -68.788 31.549 C -68.876 31.534 -68.959 31.521 -69.05 31.507 C -69.992 31.337 -71.051 31.249 -72.216 31.107 C -72.428 31.085 -72.646 31.058 -72.864 31.032 C -74.432 32.907 -78.307 34.9 -83.91 37.26 C -86.505 38.359 -89.477 39.531 -92.759 40.815 C -104.132 44.89 -119.274 50.236 -135.203 49.728 C -135.828 49.707 -136.456 49.68 -137.08 49.64 C -153.754 48.405 -169.273 45.694 -180.45 40.337 C -183.475 38.984 -186.179 37.438 -188.515 35.843 C -194.837 31.525 -198.478 26.865 -198.397 24.733 C -198.42 24.316 -198.186 23.825 -197.706 23.269 C -196.47 21.82 -193.623 19.895 -189.478 17.402 C -186.406 15.546 -182.621 13.386 -178.248 10.886 C -166.132 4.528 -149.457 -4.457 -131.805 -3.256 C -131.197 -3.208 -130.591 -3.147 -129.989 -3.085 C -111.779 -1.446 -96.826 2.832 -86.801 10.402 C -83.395 12.789 -80.556 15.553 -78.308 18.243 C -75.275 21.881 -73.325 25.383 -72.533 27.657 C -72.249 28.494 -72.122 29.15 -72.149 29.595 L -72.122 29.595 C -70.931 29.611 -69.789 29.574 -68.855 29.645 C -67.755 29.699 -66.879 29.742 -66.332 29.77 C -63.027 27.394 -59.768 25.107 -56.582 22.942 C -49.605 17.93 -42.704 13.81 -36.517 9.696 C -30.156 5.864 -24.315 2.339 -19.038 -.845 C -13.643 -3.865 -8.823 -6.562 -4.633 -8.911 C -.439 -11.252 3.156 -13.004 6.056 -14.547 C 11.865 -17.569 14.963 -19.181 14.963 -19.181 L 19.664 -10.008 C 19.664 -10.008 16.547 -8.435 10.703 -5.481 C 7.807 -3.985 4.119 -2.241 0 0 " fill="#29abe2"/>
<path transform="matrix(2.7777777,0,0,-2.7777777,2968.4678,1813.9185)" d="M 0 0 C -1.234 1.745 -6.958 3.227 -14.601 2.809 C -17.425 2.649 -20.512 2.228 -23.733 1.462 C -35.864 -1.088 -49.828 -8.381 -63.811 -17.547 C -64.327 -17.896 -64.846 -18.254 -65.354 -18.619 C -78.298 -27.914 -87.061 -41.368 -93.61 -51.52 C -95.435 -54.539 -97.078 -57.272 -98.475 -59.726 C -101.479 -65.012 -103.343 -68.952 -103.445 -71.395 C -103.634 -71.506 -103.823 -71.617 -104.004 -71.729 C -104.013 -71.733 -104.022 -71.74 -104.031 -71.745 C -96.091 -46.743 -90.419 -20.633 -87.562 5.795 C -87.055 10.547 -86.637 15.305 -86.291 20.063 C -85.68 20.664 -85.018 21.467 -84.29 22.271 C -84.285 22.275 -84.282 22.281 -84.277 22.286 C -83.982 21.996 -83.451 21.687 -82.697 21.374 C -80.64 20.534 -77.022 19.754 -72.651 19.644 C -69.413 19.562 -65.768 19.845 -62.037 20.753 C -50.673 23.095 -38.593 30.855 -26.363 42.491 C -25.946 42.866 -25.539 43.256 -25.135 43.646 C -13.547 55.156 -9.616 72.199 -6.637 84.478 C -5.703 89.031 -4.896 92.973 -4.314 96.233 C -3.509 100.632 -3.119 103.778 -3.369 105.52 C -3.463 106.192 -3.657 106.655 -3.962 106.886 C -5.395 108.248 -10.843 108.56 -17.69 106.809 C -20.22 106.161 -22.941 105.222 -25.723 103.951 C -36.254 99.464 -47.587 90.355 -58.611 79.543 C -59.014 79.133 -59.42 78.714 -59.813 78.292 C -69.871 67.552 -75.392 53.797 -79.499 43.422 C -80.609 40.362 -81.609 37.593 -82.433 35.12 C -84.205 29.795 -85.185 25.891 -84.841 23.66 C -84.991 23.526 -85.143 23.392 -85.287 23.258 C -85.579 22.995 -85.849 22.748 -86.119 22.501 C -84.621 44.937 -84.88 67.398 -86.658 89.459 C -87.259 96.828 -88.048 104.146 -89.007 111.403 C -88.831 111.671 -88.637 111.967 -88.424 112.292 C -87.947 112.976 -87.461 113.869 -86.914 114.778 C -86.91 114.783 -86.907 114.79 -86.903 114.795 C -86.578 114.574 -86.015 114.379 -85.237 114.217 C -83.136 113.8 -79.567 113.717 -75.407 114.408 C -72.326 114.92 -68.925 115.85 -65.563 117.396 C -55.223 121.684 -45.197 131.231 -35.736 144.481 C -35.415 144.913 -35.094 145.355 -34.785 145.794 C -25.906 158.81 -25.288 175.664 -24.706 187.836 C -24.659 192.319 -24.61 196.201 -24.646 199.398 C -24.691 203.706 -24.894 206.757 -25.443 208.36 C -25.658 208.981 -25.926 209.383 -26.255 209.546 C -27.86 210.573 -33.081 209.879 -39.246 206.973 C -41.521 205.899 -43.923 204.514 -46.333 202.802 C -55.485 196.634 -64.563 185.942 -73.03 173.695 C -73.341 173.234 -73.642 172.76 -73.938 172.288 C -81.505 160.287 -84.23 146.252 -86.229 135.683 C -86.727 132.581 -87.162 129.772 -87.491 127.282 C -88.2 121.922 -88.416 118.05 -87.685 115.997 C -87.803 115.841 -87.922 115.686 -88.034 115.533 C -88.503 114.915 -88.92 114.351 -89.333 113.828 C -91.951 132.836 -95.759 151.393 -100.596 169.209 C -102.794 177.323 -105.22 185.264 -107.805 193.054 C -107.682 193.479 -107.434 194.322 -107.111 195.432 C -106.855 196.225 -106.651 197.22 -106.389 198.25 C -106.388 198.254 -106.387 198.259 -106.385 198.264 C -106 198.151 -105.409 198.128 -104.628 198.205 C -102.493 198.411 -99.066 199.378 -95.288 201.252 C -92.49 202.647 -89.504 204.528 -86.739 206.988 C -78.11 214.107 -71.307 226.171 -66.12 241.604 C -65.938 242.111 -65.764 242.623 -65.597 243.139 C -60.913 258.175 -65.24 274.48 -68.24 286.294 C -69.494 290.592 -70.589 294.319 -71.561 297.362 C -72.856 301.473 -73.942 304.334 -74.937 305.703 C -75.326 306.235 -75.695 306.541 -76.063 306.602 C -77.896 307.112 -82.681 304.926 -87.726 300.345 C -89.598 298.654 -91.489 296.627 -93.288 294.286 C -100.247 285.717 -105.802 272.836 -110.325 258.653 C -110.485 258.122 -110.64 257.578 -110.781 257.042 C -114.519 243.351 -113.021 229.134 -111.841 218.446 C -111.411 215.331 -111.016 212.517 -110.6 210.039 C -109.711 204.692 -108.788 200.921 -107.489 199.178 C -107.556 198.998 -107.623 198.818 -107.685 198.641 C -108.044 197.663 -108.339 196.762 -108.685 195.985 C -108.702 195.943 -108.718 195.905 -108.734 195.864 C -114.012 211.412 -119.996 226.274 -126.489 240.285 C -132.742 253.782 -139.435 266.503 -146.337 278.406 C -146.265 278.824 -146.144 279.513 -145.992 280.381 C -145.852 281.096 -145.768 281.985 -145.64 282.908 C -145.639 282.914 -145.638 282.919 -145.638 282.925 C -145.29 282.863 -144.769 282.901 -144.089 283.038 C -142.258 283.43 -139.352 284.604 -136.246 286.61 C -133.944 288.096 -131.521 290.024 -129.354 292.438 C -122.51 299.488 -117.753 310.659 -114.738 324.625 C -114.625 325.084 -114.526 325.547 -114.431 326.012 C -111.8 339.578 -117.156 353.376 -120.92 363.383 C -122.437 367.009 -123.745 370.149 -124.893 372.714 C -126.423 376.172 -127.649 378.558 -128.648 379.66 C -129.038 380.084 -129.395 380.316 -129.716 380.334 C -131.36 380.601 -135.325 378.226 -139.278 373.74 C -140.747 372.087 -142.197 370.131 -143.54 367.921 C -148.772 359.774 -152.369 348.005 -154.926 335.194 C -155.02 334.713 -155.101 334.23 -155.174 333.745 C -157.101 321.449 -154.417 309.193 -152.349 299.985 C -151.671 297.312 -151.054 294.897 -150.451 292.78 C -149.156 288.208 -147.987 285.011 -146.687 283.616 C -146.728 283.451 -146.768 283.286 -146.804 283.124 C -147.022 282.233 -147.192 281.42 -147.418 280.71 C -147.448 280.602 -147.479 280.501 -147.508 280.398 C -151.397 287.032 -155.347 293.424 -159.321 299.528 C -166.439 310.463 -173.613 320.51 -180.643 329.695 C -180.536 329.887 -180.432 330.099 -180.326 330.351 C -179.668 331.965 -179.116 334.79 -179.101 338.252 C -179.088 340.826 -179.351 343.735 -180.095 346.764 C -182.034 355.96 -187.745 366.454 -196.179 377.559 C -196.453 377.932 -196.736 378.301 -197.021 378.663 C -205.397 389.208 -218.861 393.146 -229.215 395.479 C -233.03 396.226 -236.411 396.801 -239.257 397.163 C -243.081 397.671 -245.9 397.82 -247.436 397.548 C -248.027 397.447 -248.423 397.28 -248.617 397.032 C -249.75 395.88 -249.677 391.797 -248.003 386.467 C -247.396 384.491 -246.551 382.34 -245.477 380.099 C -241.636 371.677 -234.796 361.787 -226.927 351.772 C -226.622 351.407 -226.31 351.045 -226.004 350.68 C -218.135 341.507 -207.513 336.206 -198.983 332.748 C -196.474 331.791 -194.172 330.982 -192.081 330.329 C -186.869 328.71 -183.104 328.092 -181.439 328.852 C -174.565 319.653 -167.562 309.605 -160.63 298.688 C -156.961 292.916 -153.323 286.882 -149.735 280.645 C -150.013 280.669 -150.32 280.697 -150.655 280.727 C -151.397 280.774 -152.219 280.912 -153.127 281.031 C -153.291 281.055 -153.461 281.077 -153.629 281.098 C -154.459 282.816 -157.013 285.067 -160.799 287.93 C -162.562 289.26 -164.582 290.715 -166.829 292.319 C -174.659 297.583 -185.1 304.531 -197.259 307.202 C -197.735 307.307 -198.218 307.406 -198.701 307.498 C -211.564 309.759 -223.837 310.677 -233.327 308.761 C -235.875 308.313 -238.223 307.672 -240.296 306.902 C -245.913 304.847 -249.563 302.015 -249.912 300.384 C -250.013 300.075 -249.925 299.66 -249.671 299.146 C -249.006 297.811 -247.229 295.805 -244.562 293.125 C -242.592 291.125 -240.139 288.766 -237.31 286.039 C -229.346 278.899 -218.436 268.902 -204.842 266.426 C -204.371 266.345 -203.901 266.271 -203.437 266.211 C -189.332 263.953 -177.188 264.332 -168.142 268.146 C -165.105 269.295 -162.427 270.847 -160.206 272.454 C -157.21 274.625 -155.063 276.902 -154.033 278.469 C -153.653 279.054 -153.433 279.525 -153.365 279.87 C -153.359 279.869 -153.354 279.868 -153.35 279.867 C -152.443 279.648 -151.584 279.405 -150.866 279.278 C -149.836 279.071 -149.059 278.915 -148.692 278.842 C -141.678 266.521 -134.891 253.336 -128.589 239.329 C -122.55 225.904 -116.983 211.72 -112.065 196.917 C -112.764 197.157 -113.497 197.452 -114.313 197.765 C -114.491 197.836 -114.674 197.905 -114.856 197.975 C -115.318 200.101 -117.547 203.275 -120.98 207.457 C -122.577 209.401 -124.432 211.55 -126.489 213.926 C -133.77 221.846 -143.487 232.328 -156.253 238.525 C -156.751 238.768 -157.26 239.01 -157.771 239.238 C -171.425 245.17 -184.778 249.459 -195.811 249.864 C -198.757 250.047 -201.525 249.957 -204.03 249.662 C -210.8 248.877 -215.598 246.714 -216.417 244.996 C -216.613 244.68 -216.628 244.199 -216.479 243.56 C -216.108 241.907 -214.664 239.207 -212.424 235.524 C -210.772 232.789 -208.686 229.52 -206.274 225.742 C -199.354 215.709 -189.925 201.72 -175.52 195.356 C -175.021 195.143 -174.519 194.933 -174.015 194.739 C -158.984 188.484 -145.428 185.669 -134.387 187.483 C -130.717 187.948 -127.334 188.955 -124.446 190.147 C -120.547 191.754 -117.559 193.705 -116.001 195.17 C -115.426 195.715 -115.054 196.177 -114.889 196.542 C -114.883 196.538 -114.877 196.536 -114.871 196.532 C -113.922 196.05 -113.035 195.551 -112.277 195.218 C -111.95 195.068 -111.651 194.93 -111.376 194.803 C -108.564 186.198 -105.965 177.396 -103.635 168.402 C -99.08 150.853 -95.535 132.61 -93.15 113.949 C -93.423 114.075 -93.716 114.209 -94.04 114.356 C -94.824 114.689 -95.653 115.147 -96.583 115.619 C -96.751 115.708 -96.926 115.795 -97.101 115.882 C -97.342 118.045 -99.233 121.433 -102.22 125.945 C -103.608 128.04 -105.235 130.371 -107.038 132.944 C -113.464 141.568 -122.061 152.993 -134.124 160.465 C -134.595 160.759 -135.077 161.05 -135.557 161.33 C -148.535 168.631 -161.379 174.264 -172.309 175.798 C -175.217 176.283 -177.988 176.478 -180.505 176.439 C -187.322 176.354 -192.313 174.694 -193.307 173.069 C -193.534 172.775 -193.595 172.297 -193.515 171.645 C -193.313 169.964 -192.157 167.13 -190.308 163.238 C -188.942 160.347 -187.201 156.879 -185.192 152.875 C -179.336 142.187 -171.392 127.304 -157.718 119.496 C -157.24 119.235 -156.761 118.976 -156.281 118.732 C -141.973 110.968 -128.773 106.778 -117.604 107.452 C -113.901 107.537 -110.439 108.19 -107.443 109.08 C -103.4 110.279 -100.227 111.916 -98.525 113.214 C -97.896 113.694 -97.481 114.115 -97.28 114.459 C -97.275 114.457 -97.27 114.453 -97.265 114.449 C -96.371 113.874 -95.543 113.286 -94.818 112.878 C -93.968 112.373 -93.294 111.972 -92.875 111.725 C -91.959 104.258 -91.224 96.731 -90.691 89.152 C -89.153 66.972 -89.158 44.356 -90.975 21.866 C -91.239 22.086 -91.533 22.33 -91.855 22.597 C -92.55 23.144 -93.255 23.824 -94.06 24.547 C -94.204 24.681 -94.355 24.814 -94.506 24.949 C -94.16 27.181 -95.143 31.084 -96.915 36.408 C -97.736 38.88 -98.737 41.652 -99.847 44.712 C -103.954 55.085 -109.477 68.84 -119.535 79.579 C -119.926 80.002 -120.33 80.423 -120.738 80.832 C -131.757 91.645 -143.097 100.753 -153.623 105.239 C -156.406 106.51 -159.126 107.45 -161.655 108.097 C -168.503 109.849 -173.953 109.537 -175.385 108.174 C -175.694 107.942 -175.885 107.479 -175.982 106.809 C -176.23 105.068 -175.833 101.92 -175.032 97.522 C -174.448 94.261 -173.641 90.319 -172.711 85.767 C -169.735 73.487 -165.803 56.443 -154.215 44.933 C -153.81 44.543 -153.396 44.155 -152.985 43.779 C -140.755 32.144 -128.673 24.385 -117.311 22.043 C -113.578 21.134 -109.932 20.851 -106.694 20.932 C -102.323 21.042 -98.706 21.824 -96.65 22.662 C -95.891 22.977 -95.359 23.286 -95.067 23.576 C -95.063 23.571 -95.058 23.565 -95.053 23.56 C -94.318 22.744 -93.645 21.929 -93.03 21.325 C -92.148 20.42 -91.487 19.737 -91.188 19.428 C -91.564 15.067 -92.003 10.714 -92.52 6.368 C -95.688 -19.975 -101.691 -45.93 -109.941 -70.703 C -110.469 -70.062 -110.996 -69.33 -111.6 -68.549 C -111.726 -68.378 -111.86 -68.205 -111.993 -68.032 C -111.18 -65.726 -111.443 -61.371 -112.271 -55.352 C -112.652 -52.559 -113.163 -49.405 -113.736 -45.931 C -116.038 -34.066 -119.169 -18.318 -127.733 -4.886 C -128.066 -4.355 -128.416 -3.831 -128.765 -3.309 C -138.34 10.399 -148.592 22.356 -158.904 29.237 C -161.609 31.142 -164.32 32.685 -166.883 33.881 C -173.82 37.111 -179.686 37.866 -181.483 36.702 C -181.853 36.517 -182.151 36.062 -182.387 35.366 C -183 33.564 -183.208 30.136 -183.232 25.294 C -183.26 21.706 -183.187 17.352 -183.107 12.313 C -182.387 -1.349 -181.601 -20.278 -171.562 -34.846 C -171.21 -35.342 -170.848 -35.832 -170.486 -36.314 C -159.787 -51.143 -148.477 -61.813 -136.851 -66.577 C -133.059 -68.288 -129.232 -69.314 -125.771 -69.878 C -121.094 -70.63 -117.088 -70.516 -114.729 -70.04 C -113.865 -69.857 -113.236 -69.631 -112.866 -69.38 C -112.862 -69.387 -112.858 -69.395 -112.854 -69.401 C -112.231 -70.417 -111.681 -71.42 -111.144 -72.185 C -110.978 -72.437 -110.823 -72.668 -110.677 -72.892 C -110.817 -73.309 -110.954 -73.728 -111.097 -74.144 C -115.596 -87.028 -120.704 -99.568 -126.295 -111.713 C -132.019 -123.792 -138.198 -135.468 -144.8 -146.639 C -146.108 -148.819 -147.437 -150.974 -148.772 -153.116 C -149.189 -152.34 -149.579 -151.458 -150.042 -150.51 C -150.131 -150.317 -150.226 -150.121 -150.321 -149.925 C -149.055 -147.832 -148.428 -143.521 -148.009 -137.454 C -147.813 -134.643 -147.672 -131.451 -147.525 -127.933 C -147.363 -115.849 -147.221 -99.793 -152.866 -84.896 C -153.087 -84.312 -153.318 -83.724 -153.558 -83.144 C -160.137 -67.775 -167.735 -53.975 -176.431 -45.143 C -178.693 -42.724 -181.032 -40.662 -183.302 -38.969 C -189.435 -34.396 -195.022 -32.464 -197.017 -33.23 C -197.421 -33.341 -197.803 -33.725 -198.176 -34.355 C -199.142 -35.992 -200.044 -39.311 -201.058 -44.044 C -201.812 -47.554 -202.626 -51.832 -203.572 -56.78 C -205.653 -70.305 -208.739 -88.987 -201.882 -105.3 C -201.64 -105.856 -201.387 -106.413 -201.127 -106.96 C -193.668 -123.651 -184.771 -136.407 -174.358 -143.438 C -170.995 -145.881 -167.46 -147.672 -164.185 -148.925 C -159.757 -150.613 -155.812 -151.32 -153.406 -151.329 C -152.525 -151.329 -151.863 -151.235 -151.452 -151.066 C -151.449 -151.074 -151.446 -151.083 -151.443 -151.091 C -151.041 -152.211 -150.706 -153.302 -150.336 -154.164 C -150.209 -154.482 -150.093 -154.773 -149.983 -155.05 C -161.98 -174.028 -175.101 -191.452 -188.781 -207.062 C -193.661 -212.612 -198.598 -217.942 -203.558 -223.056 C -203.583 -222.979 -203.607 -222.909 -203.634 -222.83 C -203.956 -221.931 -204.214 -220.897 -204.547 -219.777 C -204.603 -219.573 -204.665 -219.363 -204.727 -219.155 C -203.138 -217.299 -201.81 -213.147 -200.406 -207.231 C -199.748 -204.489 -199.087 -201.366 -198.363 -197.911 C -196.222 -186.028 -193.447 -170.209 -196.574 -154.584 C -196.699 -153.971 -196.833 -153.357 -196.971 -152.745 C -200.942 -136.501 -206.177 -121.646 -213.31 -111.507 C -215.14 -108.75 -217.114 -106.332 -219.072 -104.293 C -224.368 -98.771 -229.568 -95.949 -231.662 -96.383 C -232.077 -96.423 -232.516 -96.736 -232.99 -97.301 C -234.211 -98.761 -235.647 -101.884 -237.418 -106.387 C -238.741 -109.725 -240.247 -113.815 -241.991 -118.539 C -246.258 -131.536 -252.371 -149.465 -248.275 -166.675 C -248.127 -167.269 -247.967 -167.856 -247.806 -168.44 C -243.182 -186.129 -236.498 -200.173 -227.377 -208.814 C -224.462 -211.773 -221.268 -214.123 -218.24 -215.893 C -214.153 -218.283 -210.377 -219.631 -208.003 -220.033 C -207.134 -220.182 -206.466 -220.197 -206.029 -220.099 C -206.028 -220.105 -206.027 -220.112 -206.025 -220.12 C -205.814 -221.287 -205.661 -222.421 -205.438 -223.33 C -205.329 -223.83 -205.231 -224.28 -205.145 -224.677 C -215.636 -235.384 -226.222 -245.131 -236.616 -253.938 C -247.647 -263.276 -258.413 -271.592 -268.691 -278.942 C -268.737 -278.687 -268.785 -278.421 -268.838 -278.134 C -269.029 -277.198 -269.137 -276.138 -269.305 -274.98 C -269.331 -274.768 -269.363 -274.553 -269.394 -274.335 C -267.554 -272.727 -265.643 -268.809 -263.407 -263.155 C -262.359 -260.534 -261.26 -257.542 -260.044 -254.227 C -256.219 -242.774 -251.206 -227.515 -252.059 -211.603 C -252.092 -210.979 -252.132 -210.352 -252.187 -209.728 C -253.784 -193.086 -256.829 -177.626 -262.433 -166.568 C -263.849 -163.575 -265.452 -160.904 -267.102 -158.604 C -271.553 -152.38 -276.289 -148.841 -278.423 -148.969 C -278.84 -148.95 -279.322 -149.201 -279.871 -149.688 C -281.287 -150.955 -283.159 -153.844 -285.556 -158.042 C -287.347 -161.153 -289.426 -164.986 -291.828 -169.414 C -297.916 -181.665 -306.537 -198.532 -304.954 -216.152 C -304.894 -216.759 -304.82 -217.362 -304.746 -217.967 C -302.714 -236.135 -298.11 -250.99 -290.319 -260.85 C -287.863 -264.198 -285.038 -266.979 -282.301 -269.17 C -278.597 -272.122 -275.048 -273.995 -272.76 -274.736 C -271.919 -275.002 -271.261 -275.114 -270.815 -275.079 C -270.815 -275.088 -270.813 -275.096 -270.813 -275.104 C -270.773 -276.295 -270.786 -277.436 -270.693 -278.369 C -270.64 -279.122 -270.594 -279.768 -270.558 -280.28 C -274.397 -282.998 -278.17 -285.583 -281.852 -288.021 C -288.763 -292.862 -295.607 -296.835 -301.733 -300.807 C -308.03 -304.504 -313.814 -307.899 -319.038 -310.966 C -324.339 -313.852 -329.076 -316.432 -333.192 -318.676 C -337.31 -320.917 -341 -322.661 -343.896 -324.157 C -349.74 -327.11 -352.856 -328.684 -352.856 -328.684 L -348.156 -337.856 C -348.156 -337.856 -345.06 -336.245 -339.248 -333.223 C -336.35 -331.68 -332.754 -329.928 -328.561 -327.587 C -324.369 -325.237 -319.548 -322.541 -314.153 -319.521 C -308.879 -316.337 -303.035 -312.812 -296.674 -308.979 C -290.488 -304.866 -283.59 -300.746 -276.61 -295.733 C -273.424 -293.568 -270.166 -291.282 -266.86 -288.906 C -266.313 -288.934 -265.439 -288.977 -264.339 -289.031 C -263.405 -289.102 -262.263 -289.064 -261.071 -289.081 L -261.043 -289.081 C -261.07 -289.525 -260.945 -290.182 -260.66 -291.019 C -259.869 -293.293 -257.917 -296.795 -254.884 -300.433 C -252.636 -303.123 -249.798 -305.887 -246.389 -308.273 C -236.364 -315.844 -221.415 -320.122 -203.205 -321.761 C -202.601 -321.823 -201.996 -321.884 -201.387 -321.932 C -183.739 -323.133 -167.062 -314.147 -154.946 -307.79 C -150.57 -305.29 -146.786 -303.13 -143.714 -301.273 C -139.566 -298.781 -136.722 -296.855 -135.487 -295.407 C -135.008 -294.851 -134.77 -294.359 -134.797 -293.942 C -134.716 -291.811 -138.355 -287.15 -144.677 -282.833 C -147.015 -281.238 -149.718 -279.691 -152.742 -278.339 C -163.917 -272.981 -179.437 -270.271 -196.111 -269.036 C -196.736 -268.996 -197.365 -268.969 -197.99 -268.948 C -213.92 -268.439 -229.061 -273.786 -240.431 -277.86 C -243.714 -279.145 -246.688 -280.316 -249.281 -281.416 C -254.886 -283.775 -258.76 -285.769 -260.328 -287.644 C -260.546 -287.618 -260.765 -287.591 -260.977 -287.568 C -262.141 -287.427 -263.202 -287.339 -264.144 -287.169 C -264.235 -287.154 -264.317 -287.142 -264.404 -287.127 C -253.715 -279.335 -242.488 -270.472 -230.986 -260.5 C -221.151 -251.966 -211.148 -242.581 -201.229 -232.335 C -201.02 -232.301 -200.802 -232.266 -200.574 -232.228 C -199.648 -232.098 -198.541 -231.821 -197.373 -231.587 C -197.366 -231.585 -197.359 -231.584 -197.354 -231.582 C -197.284 -232.024 -197.024 -232.64 -196.568 -233.392 C -195.312 -235.445 -192.662 -238.46 -188.932 -241.378 C -186.167 -243.531 -182.806 -245.632 -178.975 -247.243 C -167.567 -252.523 -152.055 -253.543 -133.909 -251.288 C -133.307 -251.227 -132.703 -251.161 -132.099 -251.076 C -114.592 -248.518 -100.192 -236.212 -89.691 -227.434 C -85.947 -224.066 -82.706 -221.153 -80.096 -218.69 C -76.573 -215.383 -74.198 -212.895 -73.292 -211.217 C -72.943 -210.572 -72.816 -210.041 -72.931 -209.646 C -73.306 -207.539 -77.848 -203.754 -84.934 -200.872 C -87.559 -199.809 -90.53 -198.87 -93.765 -198.186 C -105.829 -195.311 -121.564 -195.944 -138.125 -198.26 C -138.742 -198.357 -139.366 -198.461 -139.983 -198.575 C -155.651 -201.447 -169.325 -209.874 -179.579 -216.255 C -182.518 -218.207 -185.175 -219.979 -187.477 -221.604 C -192.451 -225.093 -195.814 -227.858 -196.956 -230.022 C -197.174 -230.042 -197.392 -230.062 -197.602 -230.084 C -198.169 -230.137 -198.708 -230.196 -199.225 -230.248 C -193.723 -224.494 -188.251 -218.479 -182.853 -212.188 C -169.224 -196.262 -156.179 -178.523 -144.281 -159.251 C -143.497 -158.907 -142.618 -158.45 -141.687 -158.006 C -141.682 -158.003 -141.676 -158 -141.669 -157.996 C -141.496 -158.405 -141.091 -158.937 -140.463 -159.563 C -138.748 -161.248 -135.446 -163.525 -131.115 -165.445 C -127.912 -166.861 -124.138 -168.082 -120.03 -168.713 C -107.685 -171.059 -92.386 -168.27 -75.339 -161.67 C -74.766 -161.463 -74.194 -161.248 -73.63 -161.021 C -57.272 -154.275 -46.306 -138.836 -38.256 -127.767 C -35.444 -123.591 -33.009 -119.978 -31.073 -116.952 C -28.459 -112.883 -26.766 -109.891 -26.295 -108.048 C -26.115 -107.337 -26.119 -106.797 -26.327 -106.434 C -27.201 -104.48 -32.529 -101.918 -40.104 -100.848 C -42.907 -100.449 -46.021 -100.268 -49.328 -100.394 C -61.725 -100.539 -76.839 -104.98 -92.332 -111.259 C -92.909 -111.507 -93.489 -111.755 -94.058 -112.017 C -108.557 -118.619 -119.766 -130.116 -128.157 -138.806 C -130.535 -141.408 -132.676 -143.775 -134.521 -145.909 C -138.497 -150.51 -141.087 -154.011 -141.664 -156.39 C -141.871 -156.463 -142.077 -156.534 -142.277 -156.61 C -142.452 -156.671 -142.607 -156.729 -142.777 -156.79 C -141.443 -154.595 -140.119 -152.387 -138.815 -150.154 C -132.226 -138.708 -126.087 -126.757 -120.413 -114.41 C -114.882 -102.004 -109.843 -89.201 -105.427 -76.067 C -105.229 -75.468 -105.04 -74.866 -104.846 -74.266 C -104.313 -73.867 -103.75 -73.426 -103.155 -72.983 C -103.149 -72.978 -103.142 -72.973 -103.136 -72.968 C -102.883 -73.339 -102.385 -73.782 -101.648 -74.273 C -99.635 -75.594 -95.958 -77.185 -91.342 -78.224 C -87.921 -78.994 -83.98 -79.46 -79.828 -79.278 C -67.266 -79.185 -52.8 -73.481 -37.354 -63.697 C -36.836 -63.383 -36.313 -63.061 -35.804 -62.731 C -21.069 -52.939 -13.306 -35.663 -7.555 -23.245 C -5.61 -18.602 -3.925 -14.58 -2.615 -11.239 C -.838 -6.737 .242 -3.476 .344 -1.576 C .384 -.845 .275 -.309 0 0 " fill="#29abe2"/>
<path transform="matrix(2.7777777,0,0,-2.7777777,1967.57,852.48617)" d="M 0 0 C .123 -.075 .246 -.15 .369 -.225 C 1.19 .543 2.663 .914 2.474 2.35 C 2.325 3.476 1.192 3.928 0 4.104 Z M -101.503 20.086 C -99.464 23.503 -97.571 26.677 -95.554 30.059 C -97.965 29.637 -100.19 28.29 -101.479 26.629 C -103.059 24.595 -103.136 22.75 -101.503 20.086 M -77.771 -6.44 C -81.753 -3.516 -85.267 -.182 -87.586 4.223 C -89.933 8.681 -90.413 13.519 -90.291 18.495 C -92.602 15.249 -93.268 11.682 -92.495 7.903 C -91.324 2.171 -87.78 -1.811 -82.788 -4.601 C -81.241 -5.465 -79.644 -6.279 -77.771 -6.44 M 9.81 -105.105 C -9 -107.968 -27.8 -110.888 -46.834 -112.275 C -47.166 -113.609 -47.435 -114.69 -47.782 -116.086 C -28.314 -112.642 -9.103 -109.699 9.81 -105.105 M -17.904 9.644 C -17.87 9.781 -17.834 9.918 -17.8 10.055 C -18.424 10.26 -19.036 10.532 -19.677 10.655 C -20.558 10.824 -21.462 10.868 -22.354 10.987 C -27.263 11.642 -32.174 12.26 -37.144 12.094 C -41.207 11.959 -45.223 11.538 -49.055 10.049 C -51.238 9.2 -52.869 7.809 -53.931 5.65 C -55.212 3.047 -55.943 .372 -55.688 -2.531 C -55.177 -8.354 -54.69 -14.179 -54.104 -19.995 C -53.724 -23.764 -50.979 -26.573 -47.248 -27.271 C -43.126 -28.042 -39.63 -26.85 -36.718 -23.901 C -36.035 -23.208 -35.354 -22.418 -35.729 -21.116 C -37.8 -22.17 -39.724 -23.195 -41.691 -24.13 C -42.728 -24.623 -43.811 -25.085 -44.924 -25.336 C -46.688 -25.734 -48.162 -25.089 -48.967 -23.471 C -49.557 -22.288 -50.108 -20.954 -50.169 -19.663 C -50.474 -13.245 -50.583 -6.817 -50.817 -.395 C -50.93 2.695 -49.551 4.893 -47.022 6.495 C -45.151 7.681 -43.086 8.355 -40.947 8.861 C -36.702 9.864 -32.391 9.679 -28.084 9.648 C -24.691 9.624 -21.298 9.644 -17.904 9.644 M 13.945 12.765 C 12.112 12.765 10.278 12.773 8.445 12.763 C -.296 12.716 -8.875 13.924 -17.218 16.476 C -25.507 19.012 -33.75 21.707 -41.947 24.527 C -48.298 26.712 -54.717 27.333 -61.317 26.227 C -64.507 25.692 -67.586 24.798 -70.344 23.039 C -73.78 20.846 -75.371 17.06 -74.618 13.061 C -74.193 10.806 -73.156 8.824 -72.005 6.881 C -70.859 4.945 -69.646 3.042 -68.617 1.046 C -65.771 -4.474 -64.036 -10.234 -64.836 -16.57 C -65.254 -19.878 -63.921 -22.587 -61.465 -24.788 C -59.164 -26.851 -56.339 -27.944 -53.542 -29.077 C -53.176 -29.225 -52.666 -29.017 -52.197 -28.971 C -52.266 -28.646 -52.257 -28.551 -52.296 -28.525 C -52.818 -28.163 -53.333 -27.787 -53.876 -27.46 C -57.891 -25.045 -60.434 -21.569 -61.445 -16.988 C -61.764 -15.544 -62.028 -14.089 -62.367 -12.651 C -64.283 -4.522 -66.191 3.608 -68.148 11.727 C -69.297 16.49 -67.077 19.469 -63.505 21.183 C -61.271 22.254 -58.857 22.624 -56.397 22.739 C -51.928 22.948 -47.528 22.381 -43.208 21.339 C -37.088 19.864 -31.018 18.188 -24.912 16.657 C -15.239 14.231 -5.404 12.65 4.45 11.2 C 6.286 10.93 8.157 10.822 10.014 10.802 C 11.503 10.785 12.938 11.157 13.945 12.765 M -26.199 24.656 C -26.727 24.949 -27.117 25.155 -27.496 25.377 C -31.877 27.945 -36.325 30.409 -40.619 33.115 C -45.151 35.971 -50.056 37.733 -55.248 38.848 C -60.437 39.962 -65.574 40.496 -70.907 39.419 C -78.411 37.904 -86.047 37.187 -93.706 37.012 C -99.742 36.874 -105.786 36.844 -111.821 36.978 C -121.148 37.185 -130.444 37.817 -139.572 39.968 C -140.326 40.146 -141.141 40.069 -142.124 40.122 C -141.596 38.682 -140.564 38.433 -139.591 38.225 C -138.274 37.943 -136.932 37.772 -135.594 37.598 C -129.286 36.773 -122.994 35.768 -116.663 35.196 C -106.728 34.3 -96.756 34.283 -86.792 34.754 C -79.793 35.086 -72.797 35.472 -65.805 35.917 C -58.101 36.409 -50.886 34.915 -44.062 31.224 C -38.92 28.443 -33.639 25.92 -28.384 23.354 C -23.649 21.043 -18.888 18.774 -13.793 17.334 C -6.868 15.376 .249 14.746 7.392 14.767 C 10.895 14.777 14.424 15.416 17.891 16.049 C 22.691 16.926 26.822 16.139 30.055 12.197 C 30.638 11.486 31.448 10.96 32.233 10.28 C 32.938 13.197 32.001 15.421 29.408 16.956 C 26.354 18.764 23.001 19.311 19.56 18.544 C 10.759 16.585 1.937 16.919 -6.904 18.086 C -7.619 18.18 -8.302 18.51 -9.301 18.825 C -8.781 19.602 -8.479 20.13 -8.101 20.598 C -7.618 21.197 -7.029 21.713 -6.564 22.325 C -4.792 24.655 -5.031 26.852 -7.24 28.787 C -7.578 29.082 -7.947 29.345 -8.32 29.596 C -14.532 33.778 -21.276 30.925 -24.391 26.959 C -24.978 26.212 -25.564 25.464 -26.199 24.656 M -144.733 -149.322 C -144.706 -149.173 -144.678 -149.024 -144.65 -148.875 C -145.608 -148.674 -146.558 -148.405 -147.526 -148.284 C -150.14 -147.957 -152.767 -147.734 -155.378 -147.394 C -166.149 -145.992 -176.848 -144.176 -187.425 -141.689 C -199.379 -138.879 -211.177 -135.552 -222.542 -130.844 C -232.162 -126.859 -241.197 -121.907 -248.841 -114.693 C -249.68 -113.901 -250.578 -113.146 -251.542 -112.519 C -252.5 -111.896 -253.525 -111.258 -254.612 -110.968 C -261.124 -109.228 -267.66 -107.578 -274.195 -105.923 C -275.077 -105.7 -275.998 -105.596 -277.024 -106.087 C -276.801 -106.481 -276.429 -106.634 -276.155 -106.891 C -267.252 -115.23 -257.092 -121.702 -246.131 -126.943 C -227.096 -136.045 -206.952 -141.547 -186.239 -145.14 C -174.326 -147.207 -162.32 -148.505 -150.26 -149.306 C -148.425 -149.427 -146.576 -149.322 -144.733 -149.322 M -203.578 -117.658 C -202.94 -119.084 -202.124 -119.815 -201.215 -120.389 C -199.426 -121.519 -197.641 -122.688 -195.742 -123.61 C -177.984 -132.24 -159.321 -138.262 -140.143 -142.781 C -139.683 -142.89 -139.188 -142.857 -138.688 -142.892 C -138.989 -137.281 -139.28 -131.844 -139.579 -126.283 C -139.744 -126.201 -140.015 -125.963 -140.304 -125.938 C -161.406 -124.117 -182.351 -121.05 -203.578 -117.658 M -114.437 26.702 C -114.409 26.896 -114.381 27.089 -114.354 27.283 C -115.521 27.579 -116.672 27.98 -117.856 28.152 C -121.226 28.642 -124.602 29.088 -127.986 29.46 C -134.628 30.19 -141.264 31.086 -147.928 31.499 C -158.574 32.158 -169.235 32.506 -179.915 32.199 C -194.542 31.777 -209.012 30.154 -223.29 26.945 C -236.93 23.879 -249.839 19.008 -261.65 11.373 C -275.356 2.512 -285.739 -9.168 -292.34 -24.142 C -292.598 -24.726 -292.875 -25.326 -292.973 -25.945 C -293.018 -26.231 -292.651 -26.582 -292.345 -27.129 C -291.594 -26.081 -291.029 -25.31 -290.484 -24.525 C -285.918 -17.954 -280.777 -11.871 -274.904 -6.434 C -261.829 5.673 -246.754 14.445 -229.858 20.001 C -217.869 23.945 -205.595 26.731 -192.988 27.849 C -186.139 28.457 -179.294 29.181 -172.432 29.558 C -165.308 29.951 -158.165 29.931 -151.037 29.363 C -143.35 28.75 -135.661 28.156 -127.973 27.54 C -124.385 27.252 -120.802 26.912 -117.212 26.641 C -116.294 26.572 -115.362 26.677 -114.437 26.702 M -133.036 -317.203 C -133.647 -316.93 -134.283 -316.634 -134.929 -316.364 C -140.982 -313.823 -146.832 -310.878 -152.355 -307.328 C -154.017 -306.26 -155.598 -306.022 -157.448 -306.682 C -160.47 -307.76 -163.497 -308.853 -166.586 -309.708 C -175.803 -312.258 -185.031 -314.775 -194.292 -317.16 C -208.612 -320.847 -223.136 -323.514 -237.783 -325.517 C -239.876 -325.803 -241.967 -326.106 -244.06 -326.402 C -244.052 -326.459 -244.044 -326.517 -244.037 -326.576 L -133.036 -326.576 Z M -25.116 -168.508 C -24.235 -169.934 -23.122 -170.069 -22.058 -170.273 C -15.307 -171.568 -8.543 -172.8 -1.803 -174.15 C 11.217 -176.756 23.898 -180.468 35.904 -186.225 C 46.749 -191.426 56.9 -197.672 65.296 -206.449 C 70.607 -212.003 74.753 -218.287 77.258 -225.595 C 80.527 -235.139 80.91 -244.905 79.009 -254.71 C 77.016 -264.987 72.831 -274.302 65.543 -282.011 C 62.573 -285.152 59.199 -287.836 55.678 -290.333 C 48.882 -295.149 41.525 -298.945 33.928 -302.304 C 33.331 -302.568 32.755 -302.876 32.169 -303.165 C 32.594 -303.39 32.901 -303.343 33.194 -303.251 C 36.687 -302.16 40.182 -301.072 43.668 -299.961 C 52.95 -297.004 61.46 -292.654 68.946 -286.325 C 77.34 -279.229 83.625 -270.733 87.043 -260.211 C 89.414 -252.911 90.601 -245.45 89.769 -237.791 C 88.685 -227.806 84.635 -219.013 78.502 -211.145 C 72.269 -203.149 64.341 -197.17 55.563 -192.279 C 42.922 -185.236 29.473 -180.187 15.51 -176.494 C 2.703 -173.106 -10.401 -171.122 -23.356 -168.435 C -23.81 -168.341 -24.31 -168.468 -25.116 -168.508 M -288.805 -298.984 C -288.738 -298.828 -288.671 -298.671 -288.604 -298.515 C -289.318 -298.043 -290.012 -297.534 -290.752 -297.105 C -294.478 -294.952 -298.294 -292.945 -301.931 -290.651 C -307.176 -287.343 -311.931 -283.41 -315.86 -278.565 C -320.558 -272.773 -323.23 -266.272 -322.847 -258.668 C -322.55 -252.775 -320.792 -247.518 -316.214 -243.588 C -314.232 -241.885 -312.029 -240.351 -309.718 -239.136 C -301.815 -234.981 -293.257 -232.987 -284.438 -232.084 C -277.323 -231.355 -270.193 -231.447 -263.058 -231.966 C -252.947 -232.702 -243.072 -234.594 -233.406 -237.635 C -224.75 -240.358 -216.441 -243.963 -208.117 -247.53 C -189.821 -255.37 -172.537 -264.883 -157.535 -278.16 C -155.924 -279.586 -154.204 -279.532 -152.312 -278.909 C -149.996 -278.146 -147.656 -277.45 -145.312 -276.78 C -143.769 -276.338 -142.182 -276.046 -140.647 -275.582 C -139.827 -275.334 -138.701 -275.229 -138.572 -274.141 C -138.457 -273.161 -139.459 -272.816 -140.12 -272.351 C -151.693 -264.185 -163.726 -256.787 -176.494 -250.618 C -191.679 -243.281 -207.284 -237.053 -223.585 -232.627 C -235.027 -229.52 -246.599 -227.152 -258.463 -226.589 C -265.006 -226.278 -271.566 -226.23 -278.118 -226.222 C -285.274 -226.213 -292.368 -226.997 -299.344 -228.607 C -305.756 -230.089 -311.903 -232.267 -317.547 -235.774 C -329.332 -243.098 -333.283 -258.284 -327.13 -270.289 C -324.84 -274.756 -321.803 -278.621 -318.287 -282.139 C -310.444 -289.983 -301.107 -295.335 -290.553 -298.624 C -289.988 -298.8 -289.389 -298.867 -288.805 -298.984 M -250.64 -303.963 C -246.489 -303.814 -243.522 -303.85 -240.586 -303.572 C -234.381 -302.984 -228.182 -302.308 -221.999 -301.529 C -211.885 -300.254 -202.039 -297.821 -192.552 -294.092 C -189.097 -292.734 -185.794 -290.97 -182.484 -289.268 C -180.903 -288.456 -180.952 -287.591 -182.452 -286.595 C -183.576 -285.849 -184.755 -285.185 -185.877 -284.436 C -202.113 -273.594 -219.722 -265.819 -238.568 -260.801 C -248.37 -258.191 -258.26 -256.398 -268.475 -257.504 C -274.818 -258.191 -280.798 -259.993 -286.319 -263.229 C -289.902 -265.329 -292.808 -268.073 -294.418 -271.99 C -295.151 -273.772 -295.847 -275.572 -296.473 -277.394 C -296.671 -277.971 -296.687 -278.655 -296.619 -279.271 C -296.237 -282.692 -294.72 -285.649 -292.749 -288.398 C -290.061 -292.147 -286.624 -295.138 -283.062 -298.017 C -281.366 -299.388 -279.501 -300.344 -277.395 -300.752 C -274.685 -301.278 -271.96 -301.774 -269.22 -302.079 C -262.645 -302.809 -256.057 -303.42 -250.64 -303.963 M -54.268 -188.1 C -54.365 -188.658 -54.457 -188.969 -54.467 -189.282 C -54.733 -197.182 -55.13 -205.081 -55.22 -212.983 C -55.39 -227.901 -55.429 -242.822 -55.435 -257.743 C -55.441 -276.458 -55.359 -295.174 -55.315 -313.89 C -55.314 -314.521 -55.315 -315.152 -55.315 -315.793 C -54.788 -315.953 -54.433 -316.113 -54.062 -316.165 C -50.179 -316.701 -46.306 -317.373 -42.404 -317.701 C -38.375 -318.041 -34.319 -318.102 -30.273 -318.178 C -23.451 -318.308 -16.636 -318.062 -9.893 -316.975 C -4.124 -316.044 1.62 -314.94 7.351 -313.793 C 13.596 -312.544 19.218 -310.032 23.624 -305.24 C 29.404 -298.955 34.388 -292.126 37.875 -284.284 C 43.808 -270.945 43.613 -257.721 36.99 -244.678 C 32.139 -235.124 25.341 -227.138 16.956 -220.514 C 8.992 -214.223 .134 -209.403 -9.001 -205.066 C -21.736 -199.02 -34.972 -194.279 -48.371 -189.964 C -50.258 -189.356 -52.151 -188.769 -54.268 -188.1 M -57.952 50.543 C -56.451 50.302 -54.952 50.043 -53.448 49.822 C -49.993 49.314 -46.633 48.414 -43.483 46.935 C -39.916 45.26 -36.237 44.931 -32.383 45.285 C -26.675 45.811 -20.949 45.953 -15.256 45.145 C -10.279 44.439 -5.598 42.888 -1.835 39.372 C -.774 38.381 .195 37.171 .837 35.878 C 2.369 32.791 4.906 31.322 8.151 30.906 C 9.585 30.723 10.863 30.262 12.159 29.659 C 18.856 26.541 25.598 23.518 32.289 20.387 C 34.083 19.547 35.856 18.585 37.458 17.429 C 39.746 15.776 40.047 14.4 39.204 11.739 C 38.913 10.822 38.698 9.88 38.446 8.95 C 37.834 6.687 36.449 5.087 34.271 4.223 C 33.26 3.822 32.224 3.387 31.16 3.227 C 28.79 2.87 26.566 2.128 24.351 1.237 C 19.098 -.874 13.819 -.767 8.555 1.303 C 7.552 1.697 6.382 2.3 5.463 2.08 C 4.65 1.885 4.074 .685 3.403 -.081 C 1.42 -2.347 -1.191 -3.213 -4.249 -3.606 C -4.044 -2.445 -3.288 -1.813 -2.798 -1.044 C -1.127 1.581 -2.051 4.62 -4.999 5.477 C -9.6 6.815 -14.297 7.487 -19.094 6.574 C -22.375 5.95 -25.097 4.411 -27.205 1.772 C -29.273 -.815 -30.817 -3.701 -32.088 -6.728 C -32.444 -7.576 -32.445 -8.608 -32.458 -9.558 C -32.491 -12.19 -32.476 -14.824 -32.409 -17.455 C -32.391 -18.144 -32.151 -18.837 -31.95 -19.51 C -31.342 -21.541 -30.682 -23.558 -30.079 -25.591 C -29.304 -28.207 -30.054 -29.95 -32.468 -31.172 C -34.952 -32.429 -37.668 -32.61 -40.363 -32.662 C -47.541 -32.798 -54.406 -31.275 -60.976 -28.43 C -63.168 -27.48 -65.176 -26.209 -66.872 -24.482 C -68.255 -23.074 -69.295 -21.468 -69.704 -19.528 C -70.469 -15.901 -72.603 -13.252 -75.637 -11.317 C -77.309 -10.251 -79.089 -9.317 -80.908 -8.528 C -86.266 -6.203 -90.696 -2.628 -94.603 1.605 C -97.797 5.068 -99.395 9.319 -100.027 13.952 C -100.071 14.27 -100.087 14.592 -100.125 14.911 C -100.396 17.259 -100.646 17.575 -102.976 18.085 C -115.105 20.74 -127.297 22.999 -139.735 23.58 C -145.32 23.841 -150.912 24.222 -156.497 24.168 C -171.492 24.024 -186.228 22.132 -200.417 16.96 C -210.862 13.153 -220.364 7.784 -228.55 .191 C -236.846 -7.506 -242.872 -16.602 -245.721 -27.652 C -247.898 -36.096 -248.332 -44.644 -247.249 -53.289 C -246.551 -58.854 -245.318 -64.291 -243.746 -69.67 C -243.256 -71.349 -242.288 -72.167 -240.626 -72.288 C -239.089 -72.4 -237.551 -72.5 -236.011 -72.576 C -228.114 -72.965 -220.219 -73.394 -212.32 -73.717 C -200.759 -74.188 -189.197 -74.641 -177.633 -74.991 C -167.802 -75.289 -157.967 -75.473 -148.132 -75.629 C -140.93 -75.744 -133.725 -75.731 -126.521 -75.778 C -114.044 -75.86 -101.567 -76.031 -89.09 -76 C -79.769 -75.978 -70.444 -75.794 -61.127 -75.506 C -50.591 -75.18 -40.063 -74.648 -29.53 -74.222 C -20.988 -73.876 -12.442 -73.61 -3.902 -73.208 C 7.976 -72.649 19.855 -72.091 31.724 -71.36 C 44.557 -70.571 57.381 -69.636 70.201 -68.665 C 79.111 -67.99 88.02 -67.253 96.907 -66.336 C 101.812 -65.83 106.665 -65.628 111.467 -66.844 C 113.445 -67.345 115.363 -68.12 117.259 -68.893 C 118.009 -69.198 118.692 -69.765 119.283 -70.339 C 120.549 -71.57 120.58 -73.09 119.202 -74.183 C 118.114 -75.046 116.839 -75.755 115.54 -76.252 C 111.461 -77.811 107.329 -79.235 103.221 -80.717 C 102.447 -80.996 101.685 -81.301 100.996 -81.856 C 101.653 -81.688 102.321 -81.553 102.968 -81.348 C 107.803 -79.81 112.635 -78.264 117.464 -76.708 C 118.321 -76.431 119.16 -76.041 120.078 -76.783 C 119.549 -77.849 118.532 -78.246 117.529 -78.612 C 109.625 -81.497 101.765 -84.515 93.796 -87.209 C 70.104 -95.222 46.023 -101.873 21.592 -107.227 C 9.345 -109.911 -2.998 -112.1 -15.454 -113.557 C -25.86 -114.774 -36.286 -115.82 -46.703 -116.943 C -47.139 -116.99 -47.572 -117.058 -48.126 -117.131 C -50.711 -129.545 -51.561 -142.093 -52.482 -154.832 C -51.152 -155.071 -49.909 -155.29 -48.667 -155.518 C -38.934 -157.303 -29.185 -159.007 -19.471 -160.892 C 1.831 -165.026 22.228 -171.982 41.881 -181.102 C 59.405 -189.233 75.718 -199.321 90.286 -212.094 C 97.486 -218.406 103.847 -225.449 108.711 -233.75 C 112.32 -239.907 114.95 -246.426 115.841 -253.568 C 116.927 -262.264 115.678 -270.617 112.135 -278.623 C 109 -285.707 104.396 -291.78 99.18 -297.444 C 85.648 -312.138 68.663 -320.69 49.539 -325.465 C 48.551 -325.712 47.566 -325.976 46.604 -326.523 L 208.872 -326.523 C 209.1 -330.855 208.941 -335 208.98 -339.277 C 208.379 -339.341 207.889 -339.418 207.396 -339.439 C 206.754 -339.465 206.11 -339.446 205.467 -339.446 L -13.4 -339.446 C -139.495 -339.446 -265.59 -339.446 -391.685 -339.443 C -392.776 -339.443 -393.868 -339.391 -394.959 -339.364 L -394.959 -327.01 C -394.141 -326.91 -393.322 -326.722 -392.503 -326.721 C -375.971 -326.704 -359.438 -326.708 -342.906 -326.708 C -326.695 -326.708 -310.485 -326.708 -294.274 -326.706 C -293.582 -326.706 -292.889 -326.667 -292.196 -326.647 C -295.503 -325.775 -298.805 -325.259 -302.027 -324.433 C -319.572 -319.936 -335.298 -311.988 -348.682 -299.634 C -353.034 -295.618 -357.329 -291.547 -360.895 -286.793 C -366.084 -279.874 -367.79 -272.158 -366.15 -263.654 C -364.705 -256.152 -361.445 -249.542 -356.576 -243.709 C -348.021 -233.461 -337.248 -226.517 -324.601 -222.394 C -311.27 -218.049 -297.523 -216.409 -283.577 -216.25 C -273.726 -216.137 -263.926 -217.062 -254.159 -218.264 C -241.045 -219.876 -228.244 -222.898 -215.703 -227.037 C -200.963 -231.9 -186.574 -237.63 -173.269 -245.689 C -164.973 -250.714 -157.014 -256.298 -148.927 -261.667 C -145.5 -263.943 -142.128 -266.305 -138.741 -268.642 C -136.915 -269.902 -134.976 -269.964 -132.841 -269.407 C -132.841 -268.76 -132.839 -268.25 -132.842 -267.74 C -132.948 -246.002 -133.115 -224.264 -133.135 -202.525 C -133.145 -192.482 -133.529 -182.475 -134.776 -172.506 C -135.158 -169.454 -135.547 -166.403 -135.944 -163.267 C -137.143 -163.008 -138.203 -162.771 -139.267 -162.553 C -146.502 -161.062 -153.828 -159.913 -160.954 -158.014 C -173.799 -154.593 -186.527 -150.736 -199.298 -147.039 C -215.009 -142.49 -230.271 -136.791 -244.806 -129.232 C -251.883 -125.551 -258.819 -121.637 -265.394 -117.106 C -274.176 -111.056 -281.987 -103.974 -289.051 -95.949 C -294.77 -89.453 -298.609 -82.119 -300.759 -73.859 C -301.841 -69.704 -302.651 -65.456 -303.258 -61.204 C -304.505 -52.456 -304.141 -43.771 -301.683 -35.22 C -299.776 -28.591 -297.155 -22.238 -294.373 -15.949 C -288.955 -3.7 -280.872 6.461 -270.236 14.598 C -260.865 21.768 -250.517 27.146 -239.491 31.243 C -221.47 37.939 -202.673 40.563 -183.606 41.626 C -177.833 41.948 -172.041 41.924 -166.258 42.096 C -159.77 42.288 -153.284 42.581 -146.794 42.726 C -134.328 43.005 -121.854 43.05 -109.407 43.938 C -100.422 44.579 -91.496 45.678 -82.644 47.335 C -78.288 48.15 -73.958 49.104 -69.61 49.96 C -68.31 50.216 -66.986 50.353 -65.672 50.543 Z "/>
<path transform="matrix(2.7777777,0,0,-2.7777777,2388.2325,2151.3048)" d="M 0 0 C 7.031 12.997 9.548 34.993 5.247 45.776 L -21.563 45.776 C -21.593 45.667 -21.623 45.558 -21.652 45.448 C -13.357 41.897 -5.062 38.347 3.264 34.782 L 3.264 29.159 C -7.969 33.94 -19.05 38.658 -30.124 43.372 C -30.225 44.235 -30.312 44.981 -30.419 45.899 C -31.898 45.899 -33.303 45.909 -34.706 45.892 C -35.075 45.888 -35.443 45.796 -35.996 45.719 C -35.785 44.699 -35.669 43.75 -35.391 42.851 C -32.335 32.965 -27.153 24.345 -19.979 16.893 C -14.113 10.8 -7.48 5.61 -.811 .46 C -.568 .272 -.272 .152 0 0 M 1.325 -19.639 C .269 -22.781 -.703 -25.624 -1.643 -28.477 C -3.701 -34.724 -5.236 -41.079 -5.568 -47.683 C -6.043 -57.131 -4.365 -66.227 -1.33 -75.145 C 2.946 -87.71 9.518 -98.812 18.988 -108.188 C 24.449 -113.594 30.57 -118.179 36.61 -122.874 C 36.741 -122.976 36.953 -122.974 37.271 -123.059 C 38.396 -119.752 39.561 -116.488 40.618 -113.19 C 44.157 -102.161 45.261 -90.918 42.939 -79.519 C 39.097 -60.646 30.572 -44.34 16.015 -31.43 C 11.394 -27.331 6.554 -23.517 1.325 -19.639 M -8.989 -85.013 C -9.251 -84.248 -9.411 -83.766 -9.581 -83.287 C -12.57 -74.842 -14.846 -66.233 -15.705 -57.281 C -16.817 -45.691 -15.539 -34.446 -11.038 -23.644 C -9.656 -20.327 -8.233 -17.026 -6.838 -13.739 C -6.924 -13.595 -6.967 -13.458 -7.059 -13.381 C -7.649 -12.885 -8.242 -12.393 -8.849 -11.917 C -15.083 -7.036 -21.133 -1.946 -26.484 3.915 C -32.063 10.023 -37.103 16.494 -39.992 24.383 C -40.098 24.67 -40.288 24.927 -40.51 25.327 C -40.775 24.806 -41 24.421 -41.175 24.016 C -56.8 -12.205 -72.42 -48.428 -88.037 -84.651 C -88.057 -84.695 -88.023 -84.771 -87.998 -84.823 C -87.971 -84.88 -87.925 -84.929 -87.863 -85.013 Z M -174.261 -196.068 C -174.896 -195.8 -175.534 -195.538 -176.166 -195.262 C -176.878 -194.95 -177.492 -194.604 -177.798 -193.763 C -178.607 -191.541 -178.318 -190.505 -176.074 -189.708 C -174.275 -189.068 -172.357 -188.71 -170.463 -188.4 C -167.614 -187.936 -164.738 -187.64 -161.878 -187.239 C -156.505 -186.486 -151.816 -184.427 -148.735 -179.744 C -147.117 -177.285 -145.604 -174.71 -144.41 -172.024 C -132.242 -144.656 -120.152 -117.253 -108.034 -89.862 C -88.296 -45.249 -68.551 -.639 -48.813 43.975 C -48.583 44.493 -48.393 45.028 -48.182 45.562 C -49.609 45.971 -203.839 46.099 -206.489 45.696 C -206.563 45.247 -206.668 44.76 -206.717 44.267 C -206.762 43.82 -206.751 43.367 -206.752 42.917 C -206.798 24.712 -206.91 6.506 -206.854 -11.699 C -206.829 -20.248 -206.584 -28.8 -206.239 -37.342 C -205.992 -43.457 -204.775 -49.461 -203.511 -55.439 C -202.58 -59.842 -201.532 -64.219 -200.66 -68.632 C -200.095 -71.494 -198.49 -73.514 -196.121 -75.038 C -194.032 -76.383 -191.701 -77.069 -189.293 -77.563 C -180.345 -79.402 -171.345 -80.94 -162.234 -81.637 C -155.763 -82.132 -149.27 -82.342 -142.784 -82.647 C -139.639 -82.796 -136.489 -82.963 -133.342 -82.951 C -130.812 -82.941 -129.257 -84.155 -128.204 -86.307 C -127.03 -88.705 -126.427 -91.267 -126.062 -93.882 C -125.832 -95.533 -125.664 -97.21 -125.682 -98.874 C -125.716 -102.195 -127.195 -103.749 -130.513 -103.84 C -133.982 -103.937 -137.458 -103.844 -140.932 -103.808 C -144.339 -103.771 -147.746 -103.68 -151.154 -103.651 C -161.38 -103.566 -171.606 -103.464 -181.833 -103.435 C -199.717 -103.385 -217.602 -103.393 -235.487 -103.361 C -247.452 -103.341 -259.417 -103.256 -271.382 -103.27 C -289.651 -103.29 -307.921 -103.359 -326.19 -103.435 C -330.754 -103.454 -335.321 -103.688 -339.883 -103.618 C -346.245 -103.521 -352.606 -103.287 -358.961 -102.984 C -360.474 -102.912 -361.972 -102.376 -363.458 -101.981 C -364.673 -101.659 -364.933 -100.643 -364.948 -99.558 C -364.975 -97.628 -364.96 -95.698 -364.96 -93.768 C -364.961 -91.709 -364.983 -89.649 -364.954 -87.591 C -364.922 -85.286 -363.938 -83.957 -361.696 -83.456 C -360.327 -83.149 -358.898 -83.06 -357.491 -82.979 C -345.747 -82.297 -333.984 -81.86 -322.265 -80.894 C -315.298 -80.318 -308.37 -79.083 -301.479 -77.842 C -294.98 -76.671 -290.876 -72.69 -289.266 -66.214 C -287.902 -60.727 -286.262 -55.292 -285.708 -49.644 C -285.395 -46.451 -285.316 -43.229 -285.258 -40.019 C -285.127 -32.624 -285.079 -25.229 -284.986 -17.833 C -284.862 -7.931 -284.705 1.971 -284.604 11.873 C -284.493 22.742 -284.429 33.61 -284.35 44.479 C -284.347 44.856 -284.406 45.233 -284.434 45.587 C -285.931 45.983 -443.671 46.156 -447.779 45.776 C -447.779 45.492 -447.847 45.181 -447.769 44.911 C -444.608 34.029 -445.948 23.542 -450.533 13.344 C -453.841 5.985 -458.569 -.364 -464.116 -6.195 C -470.3 -12.695 -477.175 -18.396 -484.079 -24.076 C -489.295 -28.368 -487.942 -27.293 -493.839 -27.548 C -498.976 -27.771 -504.13 -27.588 -509.277 -27.602 C -510.046 -27.604 -510.823 -27.646 -511.581 -27.765 C -512.41 -27.895 -513.025 -28.374 -513.098 -29.267 C -513.173 -30.189 -512.581 -30.708 -511.771 -30.91 C -511.095 -31.079 -510.38 -31.161 -509.681 -31.164 C -505.307 -31.187 -500.932 -31.176 -496.557 -31.176 L -494.262 -31.176 C -494.723 -31.772 -494.944 -32.196 -495.284 -32.477 C -496.573 -33.541 -497.885 -34.579 -499.216 -35.592 C -502.605 -38.171 -505.826 -40.933 -508.429 -44.329 C -509.58 -45.83 -510.926 -46.542 -512.882 -46.403 C -515.187 -46.239 -517.513 -46.318 -519.827 -46.39 C -520.706 -46.416 -521.617 -46.604 -522.439 -46.916 C -523.193 -47.202 -523.678 -47.878 -523.514 -48.766 C -523.356 -49.62 -522.794 -50.141 -521.916 -50.178 C -519.862 -50.266 -517.807 -50.318 -515.751 -50.368 C -514.809 -50.391 -513.866 -50.372 -512.581 -50.372 C -515.042 -55.343 -515.962 -60.377 -516.614 -65.595 C -518.666 -65.595 -520.588 -65.587 -522.511 -65.599 C -523.087 -65.603 -523.68 -65.585 -524.236 -65.709 C -525.187 -65.921 -525.73 -66.635 -525.684 -67.492 C -525.637 -68.389 -525.11 -68.926 -524.266 -69.076 C -523.511 -69.21 -522.735 -69.265 -521.967 -69.279 C -520.367 -69.309 -518.766 -69.288 -516.947 -69.288 C -515.917 -74.464 -514.909 -79.528 -513.854 -84.834 C -515.298 -84.834 -516.507 -84.834 -517.715 -84.835 C -518.165 -84.835 -518.617 -84.814 -519.065 -84.847 C -520.275 -84.933 -520.981 -85.447 -521.068 -86.272 C -521.168 -87.229 -520.371 -88.167 -519.146 -88.292 C -517.935 -88.416 -516.705 -88.356 -515.483 -88.371 C -514.84 -88.379 -514.195 -88.4 -513.554 -88.367 C -512.329 -88.305 -511.519 -88.808 -510.917 -89.904 C -508.049 -95.127 -504.291 -99.691 -500.268 -104.049 C -499.49 -104.891 -498.633 -105.658 -497.678 -106.592 C -499.956 -108.73 -502.134 -110.776 -504.448 -112.948 C -506.349 -111.312 -508.222 -109.854 -509.917 -108.211 C -513.889 -104.36 -517.733 -100.39 -520.922 -95.831 C -526.611 -87.695 -529.803 -78.656 -531 -68.836 C -531.965 -60.922 -531.806 -53.062 -530.396 -45.217 C -527.954 -31.637 -521.531 -20.107 -512.29 -10.033 C -507.749 -5.083 -502.664 -.758 -497.126 3.043 C -495.432 4.206 -493.783 5.437 -491.768 6.884 C -492.565 7.01 -493.006 7.111 -493.452 7.143 C -494.54 7.218 -495.644 7.172 -496.715 7.341 C -497.777 7.508 -498.15 8.077 -498.135 9.072 C -498.121 10.033 -497.658 10.635 -496.683 10.823 C -496.184 10.92 -495.658 10.898 -495.145 10.9 C -492.829 10.907 -490.512 10.928 -488.197 10.896 C -486.334 10.871 -484.667 11.324 -483.144 12.452 C -478.388 15.972 -473.582 19.423 -468.831 22.949 C -467.824 23.696 -466.967 24.646 -466.165 25.875 C -466.832 25.903 -467.498 25.957 -468.164 25.958 C -481.481 25.963 -494.799 25.959 -508.117 25.968 C -508.82 25.968 -509.54 25.979 -510.222 26.125 C -511.114 26.313 -511.721 26.85 -511.683 27.872 C -511.648 28.802 -511.055 29.737 -510.219 29.92 C -509.54 30.069 -508.818 30.065 -508.115 30.065 C -493.704 30.072 -479.292 30.125 -464.881 30.023 C -462.119 30.004 -460.255 30.895 -458.855 33.266 C -457.025 36.364 -454.975 39.332 -453.056 42.38 C -452.483 43.289 -452.036 44.277 -451.396 45.482 C -452.333 45.525 -453.002 45.583 -453.67 45.583 C -473.293 45.588 -492.916 45.574 -512.538 45.602 C -515.489 45.605 -518.44 45.8 -521.391 45.897 C -522.021 45.918 -522.653 45.9 -523.405 45.9 C -523.342 43.198 -522.881 40.754 -522.23 38.354 C -519.93 29.879 -515.721 22.408 -509.81 15.972 C -507.038 12.954 -503.804 10.36 -500.778 7.576 C -500.218 7.06 -499.653 6.548 -498.875 5.837 C -500.635 4.532 -502.248 3.338 -503.733 2.238 C -504.043 2.324 -504.125 2.321 -504.161 2.359 C -510.064 8.818 -515.946 15.287 -519.812 23.278 C -522.969 29.807 -524.704 36.653 -524.714 43.919 C -524.715 44.49 -524.714 45.061 -524.714 45.882 L -545.912 45.882 L -545.912 58.352 C -545.839 58.431 -545.8 58.482 -545.751 58.524 C -545.705 58.564 -545.652 58.617 -545.597 58.625 C -545.343 58.661 -545.088 58.706 -544.833 58.706 C -344.36 58.706 -143.888 58.703 56.584 58.694 C 56.765 58.694 56.945 58.612 57.237 58.54 L 57.237 45.908 L 6.682 45.908 C 6.85 45.185 6.927 44.694 7.077 44.228 C 10.063 35.001 11.208 25.54 10.618 15.874 C 10.249 9.818 9.131 3.867 7.34 -1.911 C 6.572 -4.389 7.039 -5.773 9.09 -7.367 C 17.133 -13.615 24.521 -20.576 30.947 -28.52 C 33.586 -31.781 35.807 -35.287 37.835 -38.964 C 42.504 -47.429 46.548 -56.165 49.852 -65.243 C 51.902 -70.878 53.428 -76.669 54.131 -82.617 C 54.491 -85.659 54.413 -88.782 54.24 -91.853 C 53.872 -98.398 53.276 -104.927 52 -111.378 C 51.181 -115.521 49.458 -119.32 47.813 -123.158 C 46.979 -125.105 46.117 -127.042 45.191 -129.156 C 45.97 -129.812 46.72 -130.487 47.514 -131.106 C 52.746 -135.182 57.799 -139.458 62.41 -144.237 C 67.427 -149.437 71.993 -155.012 75.874 -161.1 C 79.58 -166.915 81.528 -173.48 83.187 -180.1 C 84.309 -184.577 85.082 -189.143 86.022 -193.666 C 86.058 -193.837 86.213 -193.981 86.312 -194.139 L 86.312 -194.524 C 82.738 -194.65 79.165 -194.776 75.442 -194.908 C 75.198 -192.932 74.964 -191.021 74.728 -189.112 C 74.405 -186.503 74.183 -183.893 73.168 -181.401 C 69.751 -173.012 64.828 -165.633 58.51 -159.164 C 52.646 -153.163 46.024 -148.06 39.388 -142.974 C 39.162 -142.8 38.866 -142.718 38.609 -142.596 C 29.984 -159.124 29.133 -176.209 34.159 -193.837 C 33.779 -193.454 33.56 -193.071 33.398 -192.666 C 27.677 -178.181 26.123 -163.314 29.373 -148.023 C 30.014 -145.009 30.729 -142.009 31.453 -139.013 C 31.753 -137.77 31.537 -136.877 30.424 -136.046 C 28.365 -134.51 26.438 -132.797 24.461 -131.151 C 14.144 -122.563 5.27 -112.731 -1.384 -101.007 C -1.967 -99.979 -2.643 -99.595 -3.817 -99.616 C -10.759 -99.746 -17.701 -99.825 -24.644 -99.886 C -37.246 -99.994 -49.849 -100.086 -62.451 -100.169 C -72.805 -100.237 -83.158 -100.282 -93.512 -100.342 C -94.013 -100.345 -94.515 -100.401 -95.003 -100.432 C -95.204 -100.853 -95.385 -101.193 -95.532 -101.548 C -106.482 -127.824 -117.431 -154.102 -128.374 -180.381 C -129.214 -182.397 -128.907 -183.65 -127.046 -184.818 C -125.922 -185.524 -124.647 -186.135 -123.36 -186.41 C -119.279 -187.281 -115.154 -187.943 -111.059 -188.751 C -109.365 -189.085 -107.64 -189.418 -106.046 -190.05 C -104.158 -190.799 -103.829 -192.311 -105.069 -193.92 C -105.514 -194.495 -106.227 -194.906 -106.887 -195.26 C -107.553 -195.615 -108.307 -195.806 -109.021 -196.068 Z "/>
<path transform="matrix(2.7777777,0,0,-2.7777777,1023.1444,2575.7486)" d="M 0 0 C .057 -.122 .113 -.244 .169 -.367 L 2.075 -.367 C 7.025 -.367 11.976 -.364 16.927 -.369 C 17.504 -.37 18.087 -.369 18.658 -.441 C 19.505 -.549 20.061 -1.039 20.261 -1.886 C 20.594 -3.292 19.879 -4.252 18.373 -4.346 C 16.963 -4.435 15.55 -4.505 14.138 -4.498 C 8.162 -4.47 2.186 -4.411 -3.791 -4.359 C -5.234 -4.347 -6.583 -4.529 -7.724 -5.579 C -10.417 -8.058 -13.206 -10.435 -15.862 -12.951 C -19.083 -16.001 -22.267 -19.097 -24.609 -22.929 C -25.152 -23.817 -25.539 -24.702 -25.397 -25.84 C -23.881 -25.43 -22.493 -24.897 -21.058 -24.696 C -16.988 -24.126 -12.911 -23.535 -8.816 -23.24 C -2.924 -22.816 2.985 -22.452 8.889 -22.412 C 19.103 -22.345 29.319 -22.549 39.535 -22.626 C 39.95 -22.629 40.367 -22.506 40.766 -22.444 C 40.334 -8.079 32.18 5.365 19.774 15.25 C 13.17 10.156 6.585 5.078 0 0 M 41.734 -22.552 C 43.233 -22.623 44.631 -22.735 46.03 -22.749 C 60.112 -22.89 74.194 -23.126 88.276 -23.104 C 97.594 -23.09 106.913 -22.737 116.229 -22.466 C 123.424 -22.256 130.618 -21.983 137.809 -21.654 C 145.33 -21.311 152.789 -20.334 160.216 -19.142 C 164.149 -18.51 168.054 -17.705 171.988 -17.086 C 173.382 -16.867 174.096 -16.242 174.542 -14.902 C 177.917 -4.785 181.356 5.311 184.781 15.411 C 185.563 17.718 186.366 20.018 187.184 22.394 L 201.479 22.394 C 198.581 2.682 195.706 -16.874 192.812 -36.557 C 190.309 -36.835 187.9 -37.205 185.478 -37.353 C 177.331 -37.851 169.184 -38.385 161.028 -38.684 C 154.091 -38.938 147.143 -38.98 140.2 -38.95 C 125.088 -38.884 109.977 -38.726 94.866 -38.577 C 84.322 -38.475 73.778 -38.334 63.234 -38.192 C 51.983 -38.041 40.733 -37.73 29.484 -37.748 C 19.2 -37.765 8.915 -38.086 -1.368 -38.352 C -8.371 -38.532 -15.37 -38.846 -22.371 -39.107 C -25.325 -39.218 -28.278 -39.354 -31.232 -39.464 C -32.055 -39.494 -32.879 -39.468 -33.783 -39.468 C -34.906 -35.781 -35.948 -32.222 -36.438 -28.518 C -38.153 -15.534 -34.844 -3.638 -28.451 7.518 C -24.436 14.522 -19.319 20.698 -13.673 26.483 C -5.066 35.301 4.558 42.933 13.982 50.808 C 16.839 53.195 19.641 55.682 22.228 58.355 C 29.894 66.278 33.246 75.924 33.532 86.855 C 33.918 101.576 28.62 114.095 19.272 125.148 C 17.826 126.858 16.395 128.582 14.841 130.437 C 17.251 132.701 19.574 134.883 21.948 137.114 C 31.474 128.475 39.452 118.948 43.989 106.889 C 46.57 100.028 47.921 92.918 48.417 85.638 C 48.811 79.86 48.98 74.068 48.09 68.315 C 46.472 57.852 44.107 47.608 38.728 38.315 C 35.002 31.88 30.397 26.111 25.301 20.719 C 24.864 20.256 24.422 19.796 23.877 19.224 C 24.498 18.527 25.077 17.87 25.666 17.222 C 32.01 10.237 37.079 2.505 39.746 -6.651 C 41.144 -11.449 41.732 -15.916 41.734 -22.552 "/>
<path transform="matrix(2.7777777,0,0,-2.7777777,2173.8253,1825.4855)" d="M 0 0 C -.295 -2.966 -.188 -20.152 .13 -21.434 C 3.05 -21.415 5.985 -21.298 8.83 -20.328 C 9.836 -19.985 10.814 -19.443 11.729 -18.833 C 14.666 -16.872 15.886 -13.827 15.721 -9.908 C 15.564 -6.197 13.979 -3.657 11.215 -2.036 C 7.68 .037 3.871 -.043 0 0 M .007 -24.839 C -.041 -25.094 -.116 -25.311 -.117 -25.528 C -.157 -31.701 -.225 -37.875 -.207 -44.049 C -.2 -46.5 .933 -47.955 3.03 -48.28 C 6.729 -48.854 10.258 -48.111 13.473 -45.863 C 15.824 -44.219 17.315 -41.766 17.723 -38.528 C 18.396 -33.178 15.813 -28.253 11.296 -26.243 C 9.29 -25.351 7.186 -24.994 5.063 -24.86 C 3.392 -24.755 1.711 -24.839 .007 -24.839 M 17.185 -22.527 C 19.605 -23.236 21.748 -23.808 23.861 -24.499 C 26.484 -25.357 28.966 -26.586 30.996 -28.814 C 33.683 -31.765 34.5 -35.357 33.58 -39.495 C 33.208 -41.168 32.415 -42.591 31.403 -43.849 C 29.183 -46.612 26.372 -48.187 23.357 -49.334 C 19.423 -50.832 15.353 -51.494 11.244 -51.537 C .092 -51.654 -11.061 -51.628 -22.214 -51.654 C -22.448 -51.655 -22.684 -51.613 -23.02 -51.582 C -23.039 -51.111 -23.057 -50.698 -23.073 -50.293 C -22.849 -50.204 -22.717 -50.116 -22.58 -50.103 C -21.187 -49.968 -19.784 -49.928 -18.405 -49.686 C -17.664 -49.556 -16.929 -49.169 -16.259 -48.748 C -15.412 -48.217 -14.883 -47.328 -14.777 -46.173 C -14.675 -45.049 -14.536 -43.92 -14.535 -42.792 C -14.518 -30.436 -14.52 -18.08 -14.533 -5.724 C -14.534 -4.708 -14.675 -3.693 -14.729 -2.678 C -14.825 -.859 -15.703 .344 -17.104 .783 C -18.58 1.246 -20.132 1.378 -21.653 1.63 C -22.075 1.699 -22.508 1.682 -23.022 1.708 C -23.046 2.144 -23.066 2.51 -23.087 2.88 C -22.899 2.968 -22.771 3.07 -22.638 3.081 C -22.253 3.113 -21.866 3.114 -21.48 3.114 C -11.292 3.116 -1.104 3.128 9.083 3.109 C 12.658 3.103 16.228 2.889 19.737 2.031 C 23.318 1.156 26.501 -.631 28.906 -3.986 C 30.076 -5.619 30.881 -7.465 31.06 -9.637 C 31.373 -13.467 29.775 -16.151 27.265 -18.229 C 25.02 -20.086 22.412 -20.961 19.791 -21.761 C 19.011 -21.999 18.228 -22.221 17.185 -22.527 " fill="#f7931e"/>
<path transform="matrix(2.7777777,0,0,-2.7777777,1355.5188,1864.095)" d="M 0 0 L -1.802 0 C -1.895 .178 -2.002 .311 -2.04 .466 C -3.909 8.19 -8.636 12.321 -14.905 14.403 C -17.778 15.357 -20.729 15.351 -23.647 14.546 C -25.369 14.071 -26.896 13.139 -28.138 11.614 C -30.037 9.281 -30.036 6.34 -28.074 4.068 C -26.648 2.418 -24.961 1.186 -23.117 .309 C -19.184 -1.56 -15.218 -3.33 -11.278 -5.178 C -8.274 -6.586 -5.329 -8.142 -2.592 -10.191 C -1.119 -11.295 .238 -12.547 1.35 -14.152 C 4.87 -19.237 4.683 -26.099 .86 -30.891 C -2.289 -34.839 -6.238 -37.074 -10.693 -38.136 C -16.892 -39.611 -22.975 -38.961 -28.968 -36.678 C -30.153 -36.227 -31.385 -35.871 -32.619 -35.688 C -34.478 -35.41 -36.074 -36.24 -37.208 -37.958 C -37.824 -38.892 -38.46 -39.069 -39.42 -38.74 L -39.42 -18.248 C -38.933 -18.219 -38.436 -18.188 -37.898 -18.155 C -37.672 -18.888 -37.477 -19.521 -37.281 -20.155 C -34.395 -29.458 -28.504 -34.299 -20.384 -35.808 C -17.671 -36.312 -14.994 -36.062 -12.374 -35.097 C -10.732 -34.492 -9.288 -33.487 -8.119 -31.992 C -6.303 -29.667 -6.184 -26.763 -7.799 -24.245 C -8.837 -22.629 -10.183 -21.396 -11.719 -20.553 C -14.204 -19.187 -16.75 -17.97 -19.282 -16.72 C -22.791 -14.987 -26.337 -13.356 -29.813 -11.538 C -32.023 -10.382 -33.983 -8.729 -35.772 -6.78 C -40.907 -1.187 -40.528 7.4 -35.088 12.664 C -31.853 15.795 -28.117 17.413 -24.004 17.998 C -18.918 18.722 -14.004 17.923 -9.226 15.792 C -8.237 15.352 -7.218 14.975 -6.187 14.693 C -4.038 14.106 -3.092 14.727 -2.238 17.142 C -1.837 18.276 -1.837 18.276 -.499 18.059 C -.334 12.117 -.17 6.145 0 0 " fill="#f7931e"/>
<path transform="matrix(2.7777777,0,0,-2.7777777,1749.9702,1820.9391)" d="M 0 0 L 0 1.388 L 32.813 1.388 L 32.813 .001 C 31.929 .001 31.067 .078 30.22 -.018 C 28.93 -.162 27.615 -.277 26.375 -.678 C 24.676 -1.228 23.721 -2.653 23.641 -4.784 C 23.615 -5.464 23.583 -6.144 23.583 -6.822 C 23.58 -19.122 23.58 -31.421 23.583 -43.721 C 23.583 -44.456 23.593 -45.195 23.647 -45.928 C 23.828 -48.372 24.833 -49.608 26.916 -49.896 C 27.824 -50.022 28.744 -50.087 29.659 -50.092 C 33.661 -50.112 37.67 -50.411 41.65 -49.633 C 45.765 -48.828 49.087 -46.47 51.389 -42.396 C 52.581 -40.287 53.467 -37.938 54.478 -35.688 C 54.701 -35.192 54.87 -34.664 55.083 -34.1 L 56.792 -34.1 C 56.993 -35.383 55.099 -51.634 54.563 -53.236 L .044 -53.236 C .005 -52.782 -.031 -52.369 -.088 -51.716 C .589 -51.716 1.157 -51.764 1.716 -51.706 C 2.962 -51.578 4.231 -51.539 5.44 -51.208 C 7.412 -50.669 8.351 -49.252 8.511 -46.87 C 8.587 -45.742 8.604 -44.605 8.604 -43.474 C 8.61 -31.74 8.612 -20.008 8.603 -8.275 C 8.602 -6.974 8.545 -5.671 8.481 -4.371 C 8.402 -2.735 7.645 -1.657 6.406 -.975 C 5.109 -.261 3.729 -.059 2.324 -.005 C 1.603 .023 .88 0 0 0 " fill="#f7931e"/>
<path transform="matrix(2.7777777,0,0,-2.7777777,2020.8088,1916.9271)" d="M 0 0 C -3.075 6.269 -6.042 12.314 -9.126 18.601 C -12.315 12.29 -15.376 6.235 -18.527 0 Z M -.71 -18.644 L -.71 -17.25 C .256 -17.198 1.207 -17.195 2.148 -17.082 C 3.056 -16.974 3.979 -16.858 4.848 -16.555 C 6.356 -16.026 6.802 -14.867 6.269 -13.128 C 6.106 -12.598 5.885 -12.087 5.648 -11.596 C 4.44 -9.079 3.203 -6.581 2.011 -4.055 C 1.69 -3.376 1.292 -3.127 .628 -3.13 C -6.132 -3.157 -12.892 -3.148 -19.651 -3.154 C -19.794 -3.154 -19.937 -3.199 -20.184 -3.241 C -21.171 -5.232 -22.208 -7.272 -23.195 -9.344 C -23.498 -9.98 -23.719 -10.688 -23.887 -11.392 C -24.468 -13.819 -23.606 -15.732 -21.524 -16.354 C -20.225 -16.741 -18.861 -16.843 -17.524 -17.055 C -17.055 -17.129 -16.578 -17.15 -16.015 -17.205 C -15.988 -17.696 -15.967 -18.115 -15.938 -18.641 L -36.423 -18.641 C -36.462 -18.36 -36.515 -18.144 -36.516 -17.926 C -36.517 -17.71 -36.466 -17.494 -36.433 -17.243 C -35.934 -17.106 -35.475 -16.969 -35.011 -16.854 C -32.746 -16.299 -30.872 -14.969 -29.483 -12.808 C -28.38 -11.092 -27.294 -9.345 -26.357 -7.501 C -19.163 6.655 -12.008 20.839 -4.839 35.014 C -4.568 35.55 -4.323 36.109 -4.011 36.61 C -3.545 37.356 -2.98 37.325 -2.504 36.562 C -2.334 36.288 -2.206 35.979 -2.061 35.685 C 5.104 21.246 12.264 6.802 19.444 -7.627 C 20.271 -9.288 21.196 -10.883 22.105 -12.485 C 23.69 -15.281 25.787 -17.105 28.907 -17.121 C 28.932 -17.653 28.953 -18.112 28.978 -18.644 Z " fill="#f7931e"/>
<path transform="matrix(2.7777777,0,0,-2.7777777,1570.657,1916.9866)" d="M 0 0 C -3.108 6.297 -6.024 12.358 -9.155 18.599 C -12.363 12.247 -15.416 6.203 -18.549 0 Z M 28.959 -17.198 L 28.959 -18.626 L -.647 -18.626 C -.694 -18.405 -.765 -18.203 -.773 -17.997 C -.781 -17.778 -.73 -17.558 -.698 -17.285 C -.445 -17.234 -.215 -17.171 .018 -17.146 C 1.551 -16.976 3.111 -16.97 4.61 -16.608 C 6.357 -16.187 6.957 -14.794 6.148 -12.912 C 4.718 -9.584 3.109 -6.363 1.587 -3.123 L -4.507 -3.123 C -9.287 -3.123 -14.067 -3.153 -18.847 -3.098 C -19.779 -3.087 -20.354 -3.358 -20.795 -4.369 C -21.497 -5.98 -22.357 -7.496 -23.096 -9.086 C -23.439 -9.826 -23.73 -10.625 -23.913 -11.438 C -24.464 -13.895 -23.587 -15.743 -21.484 -16.353 C -20.181 -16.729 -18.819 -16.834 -17.482 -17.043 C -17.015 -17.116 -16.542 -17.136 -16.008 -17.187 L -16.008 -18.636 L -36.4 -18.636 C -36.421 -18.148 -36.439 -17.724 -36.458 -17.29 C -36.265 -17.196 -36.143 -17.1 -36.011 -17.079 C -33.019 -16.6 -30.629 -14.899 -28.954 -11.984 C -27.202 -8.935 -25.528 -5.818 -23.923 -2.658 C -17.445 10.088 -10.992 22.851 -4.573 35.638 C -3.66 37.458 -3.098 37.844 -1.978 35.569 C 5.151 21.105 12.322 6.671 19.516 -7.748 C 20.538 -9.795 21.73 -11.729 22.904 -13.664 C 24.153 -15.722 25.919 -16.781 28.044 -17.05 C 28.325 -17.085 28.603 -17.14 28.959 -17.198 " fill="#f7931e"/>
<path transform="matrix(2.7777777,0,0,-2.7777777,1137.188,1968.7283)" d="M 0 0 L 0 1.55 C 1.126 1.55 2.187 1.461 3.231 1.575 C 4.182 1.68 5.147 1.894 6.048 2.259 C 7.37 2.795 8.236 3.908 8.382 5.613 C 8.488 6.852 8.592 8.097 8.593 9.339 C 8.609 21.303 8.609 33.267 8.593 45.23 C 8.591 46.529 8.448 47.827 8.39 49.126 C 8.323 50.606 7.575 51.499 6.533 52.134 C 5.216 52.938 3.781 53.145 2.324 53.2 C 1.604 53.228 .881 53.204 .042 53.204 C .008 53.684 -.02 54.084 -.055 54.59 L 32.1 54.59 L 32.1 53.407 C 31.968 53.35 31.839 53.249 31.706 53.239 C 30.407 53.142 29.101 53.124 27.81 52.948 C 27.105 52.852 26.396 52.578 25.741 52.241 C 24.498 51.601 23.771 50.453 23.665 48.832 C 23.603 47.872 23.532 46.909 23.531 45.948 C 23.522 33.531 23.522 21.113 23.531 8.696 C 23.532 7.735 23.625 6.774 23.663 5.813 C 23.722 4.304 24.384 3.296 25.497 2.597 C 26.86 1.739 28.329 1.52 29.838 1.492 C 30.554 1.479 31.271 1.49 32.09 1.49 C 32.115 .926 32.133 .512 32.155 0 Z " fill="#f7931e"/>
<path transform="matrix(2.7777777,0,0,-2.7777777,1700.0813,1860.8696)" d="M 0 0 C 3.867 .003 7.336 -1.258 10.212 -4.386 C 11.948 -6.273 12.925 -8.561 12.964 -11.42 C 13.007 -14.487 11.954 -16.907 10.079 -18.896 C 7.046 -22.115 3.387 -23.285 -.606 -23.15 C -4.128 -23.031 -7.345 -21.829 -10.037 -19.038 C -11.483 -17.539 -12.543 -15.754 -12.917 -13.485 C -13.519 -9.824 -12.528 -6.783 -10.239 -4.298 C -8.042 -1.913 -5.406 -.616 -2.453 -.196 C -1.641 -.08 -.818 -.062 0 0 " fill="#f7931e"/>
<path transform="matrix(2.7777777,0,0,-2.7777777,1422.3984,1925.2277)" d="M 0 0 C -3.529 .036 -6.845 1.115 -9.718 3.844 C -14.222 8.12 -14.05 15.306 -9.707 19.388 C -6.467 22.433 -2.749 23.351 1.282 23.095 C 4.676 22.879 7.682 21.543 10.212 18.847 C 14.021 14.787 14.001 8.388 10.185 4.327 C 7.32 1.278 3.885 .068 0 0 " fill="#f7931e"/>
<path transform="matrix(2.7777777,0,0,-2.7777777,961.4583,2343.7718)" d="M 0 0 L 0 3.617 C .666 3.662 1.346 3.748 2.026 3.748 C 17.257 3.756 32.488 3.756 47.718 3.747 C 48.357 3.747 49.016 3.735 49.631 3.589 C 50.61 3.354 51.047 2.693 50.981 1.762 C 50.913 .796 50.391 .213 49.443 .068 C 48.939 -.009 48.419 .003 47.906 .003 C 32.611 0 17.316 0 2.021 0 Z "/>
<path transform="matrix(2.7777777,0,0,-2.7777777,975.77999,2290.9505)" d="M 0 0 C .156 .407 .182 .539 .25 .644 C 2.355 3.906 2.356 3.906 6.195 3.906 C 17.704 3.906 29.213 3.909 40.722 3.897 C 41.42 3.896 42.151 3.885 42.808 3.685 C 43.874 3.36 44.405 2.441 44.264 1.473 C 44.129 .542 43.546 .055 42.351 -.075 C 41.905 -.123 41.451 -.099 41.001 -.099 C 28.014 -.1 15.025 -.101 2.038 -.095 C 1.413 -.095 .789 -.038 0 0 "/>
<path transform="matrix(2.7777777,0,0,-2.7777777,972.4772,2386.6673)" d="M 0 0 L 1.921 0 C 11.617 0 21.312 .003 31.008 -.005 C 31.647 -.005 32.294 -.03 32.925 -.127 C 33.81 -.263 34.253 -.834 34.266 -1.729 C 34.278 -2.661 33.789 -3.424 32.929 -3.588 C 32.243 -3.72 31.524 -3.708 30.82 -3.709 C 22.024 -3.716 13.227 -3.714 4.431 -3.713 C 1.131 -3.713 1.028 -3.63 0 0 "/>
<path transform="matrix(2.7777777,0,0,-2.7777777,1026.9652,2237.0118)" d="M 0 0 C 1.252 .974 2.475 1.991 3.774 2.899 C 4.214 3.208 4.844 3.368 5.392 3.38 C 7.766 3.43 10.142 3.41 12.517 3.39 C 12.892 3.386 13.288 3.302 13.635 3.159 C 14.462 2.82 14.728 2.123 14.658 1.284 C 14.594 .506 14.196 -.045 13.426 -.256 C 13.12 -.34 12.791 -.368 12.472 -.368 C 8.367 -.376 4.261 -.373 .156 -.373 C .104 -.249 .052 -.125 0 0 "/>
<path transform="matrix(2.7777777,0,0,-2.7777777,1014.4314,2440.0174)" d="M 0 0 C -.727 -.825 -1.414 -1.605 -2.256 -2.562 C -2.858 -1.663 -3.337 -.946 -3.971 0 Z "/>
<path transform="matrix(2.7777777,0,0,-2.7777777,1165.3333,1682.997)" d="M 0 0 C -.583 .117 -1.183 .184 -1.748 .36 C -12.302 3.648 -21.639 9.001 -29.481 16.845 C -32.998 20.363 -36.035 24.228 -38.325 28.695 C -44.478 40.7 -40.527 55.886 -28.742 63.209 C -23.098 66.717 -16.951 68.895 -10.539 70.376 C -3.563 71.987 3.531 72.771 10.687 72.762 C 17.239 72.753 23.799 72.706 30.342 72.395 C 42.207 71.832 53.778 69.464 65.22 66.357 C 81.521 61.931 97.126 55.703 112.312 48.366 C 125.079 42.197 137.112 34.799 148.686 26.633 C 149.346 26.168 150.349 25.823 150.233 24.843 C 150.104 23.754 148.978 23.65 148.158 23.402 C 146.623 22.938 145.037 22.646 143.494 22.204 C 141.149 21.534 138.809 20.838 136.493 20.075 C 134.601 19.452 132.881 19.398 131.27 20.824 C 116.269 34.101 98.984 43.614 80.688 51.454 C 72.364 55.021 64.055 58.626 55.399 61.349 C 45.733 64.39 35.858 66.282 25.748 67.018 C 18.612 67.537 11.482 67.628 4.367 66.9 C -4.452 65.997 -13.01 64.002 -20.913 59.848 C -23.224 58.633 -25.427 57.099 -27.409 55.396 C -31.987 51.466 -33.745 46.209 -34.042 40.315 C -34.425 32.712 -31.752 26.211 -27.055 20.418 C -23.126 15.574 -18.371 11.641 -13.126 8.333 C -9.489 6.039 -5.673 4.032 -1.947 1.878 C -1.207 1.45 -.513 .941 .202 .469 C .134 .312 .067 .156 0 0 " fill="#ffffff"/>
<path transform="matrix(2.7777777,0,0,-2.7777777,1897.8041,1320.5632)" d="M 0 0 C .806 .04 1.306 .167 1.76 .073 C 14.715 -2.614 27.819 -4.599 40.625 -7.986 C 54.588 -11.68 68.038 -16.728 80.678 -23.771 C 89.457 -28.663 97.384 -34.641 103.618 -42.637 C 109.75 -50.505 113.8 -59.298 114.884 -69.283 C 115.716 -76.942 114.53 -84.403 112.159 -91.703 C 108.741 -102.226 102.456 -110.722 94.062 -117.817 C 86.576 -124.146 78.066 -128.497 68.784 -131.454 C 65.297 -132.564 61.802 -133.652 58.31 -134.744 C 58.017 -134.835 57.709 -134.882 57.285 -134.657 C 57.871 -134.369 58.447 -134.06 59.043 -133.796 C 66.641 -130.437 73.998 -126.641 80.793 -121.825 C 84.315 -119.329 87.689 -116.645 90.659 -113.503 C 97.947 -105.794 102.131 -96.479 104.125 -86.203 C 106.026 -76.397 105.643 -66.631 102.374 -57.087 C 99.869 -49.779 95.723 -43.495 90.412 -37.941 C 82.016 -29.164 71.865 -22.918 61.02 -17.717 C 49.014 -11.96 36.333 -8.249 23.313 -5.642 C 16.573 -4.292 9.809 -3.06 3.058 -1.766 C 1.994 -1.562 .881 -1.426 0 0 " fill="#ffffff"/>
<path transform="matrix(2.7777777,0,0,-2.7777777,1649.6907,778.315)" d="M 0 0 C -.926 -.025 -1.857 -.13 -2.776 -.061 C -6.365 .21 -9.949 .551 -13.537 .838 C -21.224 1.454 -28.913 2.048 -36.601 2.661 C -43.728 3.229 -50.871 3.249 -57.995 2.856 C -64.858 2.479 -71.703 1.755 -78.552 1.147 C -91.159 .029 -103.432 -2.757 -115.421 -6.7 C -132.317 -12.257 -147.393 -21.029 -160.468 -33.135 C -166.34 -38.573 -171.482 -44.656 -176.047 -51.227 C -176.592 -52.012 -177.158 -52.782 -177.909 -53.831 C -178.215 -53.284 -178.582 -52.933 -178.537 -52.646 C -178.439 -52.027 -178.161 -51.428 -177.903 -50.843 C -171.302 -35.87 -160.919 -24.189 -147.213 -15.329 C -135.402 -7.693 -122.493 -2.822 -108.853 .243 C -94.576 3.452 -80.105 5.076 -65.478 5.497 C -54.798 5.804 -44.137 5.456 -33.492 4.797 C -26.827 4.385 -20.192 3.488 -13.549 2.758 C -10.166 2.387 -6.789 1.94 -3.42 1.45 C -2.235 1.278 -1.084 .877 .083 .582 C .055 .388 .028 .194 0 0 " fill="#ffffff"/>
<path transform="matrix(2.7777777,0,0,-2.7777777,1565.5327,1267.2702)" d="M 0 0 C -1.842 0 -3.692 -.105 -5.526 .017 C -17.586 .817 -29.593 2.116 -41.505 4.182 C -62.218 7.775 -82.362 13.277 -101.397 22.379 C -112.358 27.62 -122.519 34.092 -131.422 42.432 C -131.696 42.688 -132.068 42.841 -132.291 43.235 C -131.264 43.726 -130.344 43.623 -129.461 43.399 C -122.927 41.745 -116.391 40.094 -109.878 38.354 C -108.792 38.064 -107.767 37.427 -106.809 36.804 C -105.844 36.177 -104.947 35.421 -104.107 34.629 C -96.463 27.415 -87.429 22.463 -77.809 18.479 C -66.443 13.77 -54.646 10.443 -42.692 7.633 C -32.114 5.146 -21.416 3.33 -10.645 1.928 C -8.033 1.588 -5.406 1.366 -2.792 1.038 C -1.825 .917 -.875 .648 .083 .447 C .056 .298 .028 .149 0 0 " fill="#ffffff"/>
<path transform="matrix(2.7777777,0,0,-2.7777777,1894.7943,783.9981)" d="M 0 0 C .635 .808 1.222 1.556 1.809 2.303 C 4.923 6.269 11.667 9.122 17.879 4.94 C 18.252 4.689 18.622 4.426 18.959 4.131 C 21.168 2.196 21.407 0 19.635 -2.331 C 19.17 -2.942 18.582 -3.459 18.098 -4.058 C 17.721 -4.526 17.418 -5.054 16.898 -5.831 C 17.897 -6.146 18.581 -6.476 19.295 -6.57 C 28.137 -7.737 36.958 -8.071 45.759 -6.111 C 49.2 -5.345 52.553 -5.892 55.607 -7.7 C 58.2 -9.235 59.137 -11.459 58.433 -14.376 C 57.647 -13.695 56.837 -13.17 56.254 -12.458 C 53.021 -8.517 48.891 -7.729 44.09 -8.606 C 40.623 -9.24 37.094 -9.878 33.591 -9.889 C 26.448 -9.91 19.332 -9.28 12.406 -7.322 C 7.312 -5.881 2.55 -3.612 -2.185 -1.301 C -7.439 1.264 -12.721 3.788 -17.862 6.568 C -24.687 10.259 -31.901 11.753 -39.606 11.262 C -46.598 10.816 -53.594 10.43 -60.593 10.099 C -70.557 9.627 -80.528 9.644 -90.463 10.541 C -96.794 11.112 -103.087 12.118 -109.395 12.942 C -110.732 13.116 -112.075 13.288 -113.392 13.569 C -114.365 13.777 -115.397 14.026 -115.924 15.466 C -114.941 15.414 -114.127 15.49 -113.373 15.312 C -104.245 13.161 -94.949 12.529 -85.622 12.322 C -79.586 12.188 -73.542 12.218 -67.507 12.356 C -59.848 12.531 -52.211 13.249 -44.708 14.764 C -39.375 15.84 -34.238 15.306 -29.049 14.192 C -23.857 13.077 -18.952 11.315 -14.42 8.459 C -10.126 5.753 -5.678 3.29 -1.297 .722 C -.917 .499 -.528 .293 0 0 " fill="#ffffff"/>
<path transform="matrix(2.7777777,0,0,-2.7777777,2006.3069,817.02877)" d="M 0 0 C -1.008 -1.607 -2.442 -1.979 -3.932 -1.963 C -5.788 -1.942 -7.659 -1.835 -9.495 -1.565 C -19.35 -.114 -29.184 1.466 -38.857 3.892 C -44.963 5.423 -51.034 7.1 -57.153 8.575 C -61.473 9.616 -65.874 10.184 -70.343 9.974 C -72.802 9.859 -75.216 9.49 -77.45 8.418 C -81.022 6.705 -83.242 3.726 -82.094 -1.038 C -80.137 -9.157 -78.228 -17.287 -76.312 -25.416 C -75.973 -26.854 -75.709 -28.309 -75.391 -29.752 C -74.379 -34.333 -71.836 -37.81 -67.822 -40.225 C -67.278 -40.552 -66.763 -40.928 -66.241 -41.29 C -66.203 -41.316 -66.211 -41.411 -66.142 -41.736 C -66.611 -41.782 -67.121 -41.99 -67.487 -41.842 C -70.284 -40.709 -73.109 -39.615 -75.411 -37.553 C -77.867 -35.352 -79.2 -32.643 -78.782 -29.334 C -77.981 -22.999 -79.716 -17.238 -82.563 -11.719 C -83.592 -9.722 -84.805 -7.819 -85.951 -5.884 C -87.102 -3.94 -88.139 -1.958 -88.563 .296 C -89.316 4.295 -87.725 8.082 -84.289 10.274 C -81.532 12.034 -78.453 12.927 -75.263 13.462 C -68.663 14.568 -62.244 13.947 -55.892 11.762 C -47.696 8.942 -39.452 6.247 -31.164 3.711 C -22.82 1.159 -14.241 -.048 -5.5 -.001 C -3.667 .008 -1.833 0 0 0 " fill="#ffffff"/>
<path transform="matrix(2.7777777,0,0,-2.7777777,1917.8358,825.69869)" d="M 0 0 C -3.394 0 -6.787 -.02 -10.18 .005 C -14.486 .036 -18.798 .221 -23.043 -.782 C -25.182 -1.288 -27.247 -1.963 -29.118 -3.149 C -31.646 -4.751 -33.025 -6.948 -32.913 -10.038 C -32.679 -16.46 -32.569 -22.888 -32.265 -29.307 C -32.204 -30.597 -31.652 -31.932 -31.063 -33.114 C -30.257 -34.733 -28.783 -35.378 -27.02 -34.979 C -25.907 -34.729 -24.823 -34.267 -23.787 -33.774 C -21.82 -32.839 -19.896 -31.813 -17.824 -30.76 C -17.45 -32.062 -18.13 -32.852 -18.814 -33.544 C -21.726 -36.493 -25.222 -37.685 -29.343 -36.915 C -33.075 -36.217 -35.82 -33.408 -36.2 -29.638 C -36.786 -23.823 -37.273 -17.997 -37.784 -12.174 C -38.039 -9.272 -37.308 -6.597 -36.026 -3.994 C -34.964 -1.835 -33.334 -.443 -31.15 .405 C -27.319 1.895 -23.303 2.316 -19.24 2.451 C -14.27 2.616 -9.358 1.999 -4.45 1.343 C -3.558 1.224 -2.653 1.18 -1.772 1.011 C -1.132 .888 -.52 .617 .104 .412 C .07 .274 .035 .137 0 0 " fill="#ffffff"/>
<path transform="matrix(2.7777777,0,0,-2.7777777,1994.8189,1144.4445)" d="M 0 0 C -18.913 -4.594 -38.124 -7.537 -57.591 -10.981 C -57.245 -9.585 -56.976 -8.504 -56.644 -7.17 C -37.609 -5.783 -18.81 -2.863 0 0 " fill="#ffffff"/>
<path transform="matrix(2.7777777,0,0,-2.7777777,1751.538,870.375)" d="M 0 0 C -1.873 .161 -3.47 .975 -5.017 1.839 C -10.008 4.629 -13.552 8.611 -14.724 14.343 C -15.496 18.122 -14.83 21.688 -12.52 24.935 C -12.642 19.959 -12.162 15.121 -9.814 10.663 C -7.496 6.258 -3.981 2.924 0 0 " fill="#ffffff"/>
<path transform="matrix(2.7777777,0,0,-2.7777777,1685.6176,796.6905)" d="M 0 0 C -1.633 2.664 -1.556 4.508 .023 6.543 C 1.312 8.204 3.538 9.551 5.949 9.972 C 3.932 6.591 2.039 3.417 0 0 " fill="#ffffff"/>
<path transform="matrix(2.7777777,0,0,-2.7777777,1967.57,852.48617)" d="M 0 0 L 0 4.104 C 1.192 3.928 2.325 3.476 2.474 2.35 C 2.663 .914 1.19 .543 .369 -.225 C .246 -.15 .123 -.075 0 0 " fill="#ffffff"/>
<path transform="matrix(2.7777777,0,0,-2.7777777,2549.1644,2594.9163)" d="M 0 0 C 1.201 -1.72 2.296 -3.287 3.521 -5.04 C -3.667 -13.744 -10.845 -22.437 -18.174 -31.312 C -19.401 -29.564 -20.498 -28.004 -21.707 -26.284 C -14.481 -17.535 -7.301 -8.841 0 0 "/>
<path transform="matrix(2.7777777,0,0,-2.7777777,2506.464,2558.1407)" d="M 0 0 C 1.312 -1.661 2.487 -3.152 3.734 -4.732 C .56 -9.565 -2.567 -14.328 -5.872 -19.36 C -7.165 -17.712 -8.329 -16.229 -9.604 -14.604 C -6.445 -9.801 -3.289 -5.002 0 0 "/>
<path transform="matrix(2.7777777,0,0,-2.7777777,1023.1444,2575.7486)" d="M 0 0 C 6.585 5.078 13.17 10.156 19.774 15.25 C 32.18 5.365 40.334 -8.079 40.766 -22.444 C 40.367 -22.506 39.95 -22.629 39.535 -22.626 C 29.319 -22.549 19.103 -22.345 8.889 -22.412 C 2.985 -22.452 -2.924 -22.816 -8.816 -23.24 C -12.911 -23.535 -16.988 -24.126 -21.058 -24.696 C -22.493 -24.897 -23.881 -25.43 -25.397 -25.84 C -25.539 -24.702 -25.152 -23.817 -24.609 -22.929 C -22.267 -19.097 -19.083 -16.001 -15.862 -12.951 C -13.206 -10.435 -10.417 -8.058 -7.724 -5.579 C -6.583 -4.529 -5.234 -4.347 -3.791 -4.359 C 2.186 -4.411 8.162 -4.47 14.138 -4.498 C 15.55 -4.505 16.963 -4.435 18.373 -4.346 C 19.879 -4.252 20.594 -3.292 20.261 -1.886 C 20.061 -1.039 19.505 -.549 18.658 -.441 C 18.087 -.369 17.504 -.37 16.927 -.369 C 11.976 -.364 7.025 -.367 2.075 -.367 L .169 -.367 C .113 -.244 .057 -.122 0 0 " fill="#ffffff"/>
<path transform="matrix(2.7777777,0,0,-2.7777777,2463.7425,2280.558)" d="M 0 0 C .867 -2.011 1.646 -3.818 2.491 -5.778 C -7.915 -10.076 -18.202 -14.324 -28.628 -18.63 C -29.478 -16.64 -30.247 -14.836 -31.098 -12.845 C -20.715 -8.557 -10.485 -4.331 0 0 "/>
<path transform="matrix(2.7777777,0,0,-2.7777777,2487.0687,2343.636)" d="M 0 0 C .59 -1.704 1.192 -3.443 1.892 -5.463 C -8.898 -7.75 -19.523 -10.003 -30.351 -12.298 C -31 -10.461 -31.611 -8.73 -32.22 -7.011 C -31.019 -6.285 -3.537 -.308 0 0 "/>
<path transform="matrix(2.7777777,0,0,-2.7777777,2492.6759,2419.5557)" d="M 0 0 C -1.767 -.38 -21.331 2.293 -24.534 3.274 C -24.851 5.021 -25.179 6.839 -25.564 8.972 C -17.253 7.863 -9.186 6.576 -.914 5.368 C -.612 3.596 -.315 1.854 0 0 "/>
<path transform="matrix(2.7777777,0,0,-2.7777777,2379.6549,2261.6319)" d="M 0 0 C 4.319 3.58 8.463 7.013 12.729 10.549 C 13.821 8.678 14.813 6.978 15.877 5.156 C 11.641 1.646 7.497 -1.787 3.162 -5.379 C 2.09 -3.555 1.102 -1.874 0 0 "/>
<path transform="matrix(2.7777777,0,0,-2.7777777,2463.8348,2454.4896)" d="M 0 0 C -.208 1.984 -.395 3.755 -.615 5.854 C 2.423 5.012 5.216 4.238 7.986 3.471 C 8.187 1.494 8.366 -.281 8.576 -2.351 C 5.618 -1.539 2.884 -.79 0 0 "/>
<path transform="matrix(2.7777777,0,0,-2.7777777,2341.5284,2101.4378)" d="M 0 0 L 0 5.056 C 1.276 5.017 15.822 -.88 18.136 -2.305 L 18.136 -7.401 C 16.835 -7.301 2.474 -1.46 0 0 "/>
</g>
</g>
</g>
</svg>
