<?xml version="1.0" encoding="utf-8"?>
<!-- Generator: Adobe Illustrator 28.1.0, SVG Export Plug-In . SVG Version: 6.00 Build 0)  -->
<svg version="1.1" id="Слой_1" xmlns="http://www.w3.org/2000/svg" xmlns:xlink="http://www.w3.org/1999/xlink" x="0px" y="0px"
	 viewBox="0 0 1221 1221" style="enable-background:new 0 0 1221 1221;" xml:space="preserve">
<style type="text/css">
	.st0{fill:#FFFFFF;}
	.st1{fill:#29ABE2;}
	.st2{fill:#134560;stroke:#FFFFFF;stroke-miterlimit:10;}
</style>
<rect class="st0" width="1221" height="1221"/>
<g>
	<path class="st1" d="M474.75,971.69c-4.12-2.24-8.85-4.82-14.15-7.71c-5.23-3.07-11.01-6.46-17.31-10.16
		c-6.12-3.97-12.97-7.94-19.88-12.79c-3.68-2.44-7.45-5.02-11.29-7.74c0.04-0.51,0.08-1.16,0.14-1.91c0.09-0.93,0.08-2.07,0.12-3.26
		c0-0.01,0-0.02,0-0.02c0.45,0.03,1.1-0.08,1.95-0.34c2.29-0.74,5.83-2.61,9.54-5.57c2.74-2.19,5.56-4.97,8.02-8.32
		c7.79-9.86,12.39-24.72,14.42-42.88c0.08-0.6,0.15-1.21,0.21-1.81c1.58-17.62-7.04-34.49-13.13-46.74
		c-2.4-4.43-4.48-8.26-6.27-11.37c-2.4-4.2-4.27-7.09-5.69-8.35c-0.55-0.49-1.03-0.74-1.45-0.72c-2.13-0.13-6.87,3.41-11.32,9.63
		c-1.65,2.3-3.25,4.97-4.67,7.97c-5.6,11.06-8.65,26.52-10.25,43.16c-0.05,0.62-0.09,1.25-0.13,1.88
		c-0.85,15.91,4.16,31.17,7.99,42.62c1.21,3.32,2.31,6.31,3.36,8.93c2.24,5.65,4.15,9.57,5.99,11.18c-0.03,0.22-0.06,0.43-0.09,0.65
		c-0.17,1.16-0.27,2.22-0.47,3.15c-0.05,0.29-0.1,0.55-0.15,0.81c-10.28-7.35-21.04-15.67-32.07-25
		c-10.39-8.81-20.98-18.55-31.47-29.26c0.09-0.4,0.19-0.85,0.29-1.35c0.22-0.91,0.37-2.04,0.59-3.21c0-0.01,0-0.01,0-0.02
		c0.44,0.1,1.1,0.08,1.97-0.06c2.37-0.4,6.15-1.75,10.24-4.14c3.03-1.77,6.22-4.12,9.14-7.08c9.12-8.64,15.81-22.69,20.43-40.37
		c0.16-0.58,0.32-1.17,0.47-1.77c4.1-17.21-2.01-35.14-6.28-48.14c-1.74-4.72-3.25-8.82-4.57-12.15c-1.77-4.5-3.21-7.63-4.43-9.09
		c-0.47-0.56-0.91-0.88-1.33-0.92c-2.1-0.43-7.29,2.39-12.59,7.91c-1.96,2.04-3.93,4.46-5.76,7.21
		c-7.13,10.14-12.37,24.99-16.34,41.24c-0.14,0.61-0.27,1.22-0.39,1.84c-3.13,15.63-0.35,31.44,1.79,43.33
		c0.73,3.46,1.39,6.58,2.04,9.32c1.41,5.91,2.73,10.07,4.32,11.92c-0.06,0.21-0.12,0.42-0.18,0.62c-0.33,1.12-0.59,2.15-0.92,3.05
		c-0.03,0.08-0.05,0.15-0.08,0.22c-4.96-5.11-9.9-10.44-14.78-15.99c-13.68-15.61-26.8-33.04-38.8-52.01
		c0.11-0.28,0.23-0.57,0.35-0.88c0.37-0.86,0.7-1.95,1.11-3.07c0-0.01,0.01-0.02,0.01-0.02c0.41,0.17,1.07,0.26,1.96,0.26
		c2.41-0.01,6.35-0.72,10.78-2.4c3.27-1.25,6.81-3.04,10.17-5.49c10.42-7.03,19.32-19.79,26.77-36.48c0.26-0.55,0.51-1.1,0.76-1.66
		c6.86-16.31,3.77-35,1.69-48.52c-0.95-4.95-1.76-9.23-2.52-12.74c-1.01-4.73-1.91-8.05-2.88-9.69c-0.37-0.63-0.76-1.01-1.16-1.12
		c-2-0.77-7.58,1.17-13.72,5.74c-2.27,1.69-4.61,3.75-6.87,6.17c-8.7,8.83-16.3,22.63-22.88,38c-0.24,0.58-0.47,1.17-0.69,1.75
		c-5.65,14.9-5.5,30.95-5.34,43.04c0.15,3.52,0.29,6.71,0.48,9.52c0.42,6.07,1.04,10.38,2.31,12.47c-0.1,0.2-0.19,0.39-0.28,0.59
		c-0.46,0.95-0.85,1.83-1.27,2.6c-1.34-2.14-2.66-4.29-3.97-6.47c-6.61-11.17-12.79-22.85-18.51-34.93
		c-5.59-12.14-10.7-24.69-15.2-37.57c-0.14-0.42-0.28-0.83-0.42-1.25c0.15-0.22,0.3-0.46,0.47-0.71c0.54-0.77,1.09-1.77,1.71-2.78
		c0-0.01,0.01-0.01,0.01-0.02c0.37,0.25,1,0.48,1.86,0.66c2.36,0.48,6.36,0.59,11.04-0.16c3.46-0.56,7.29-1.59,11.08-3.3
		c11.63-4.76,22.94-15.43,33.64-30.26c0.37-0.48,0.73-0.97,1.08-1.47c10.04-14.57,10.82-33.5,11.54-47.16
		c0.08-5.04,0.15-9.39,0.12-12.98c-0.02-4.84-0.23-8.27-0.84-10.07c-0.24-0.69-0.53-1.15-0.9-1.34c-1.8-1.16-7.66-0.41-14.6,2.82
		c-2.57,1.2-5.28,2.74-7.98,4.64c-10.31,6.88-20.56,18.84-30.14,32.55c-0.35,0.52-0.7,1.05-1.03,1.58
		c-8.57,13.43-11.69,29.18-14,41.04c-0.57,3.48-1.08,6.63-1.47,9.42c-0.83,6.02-1.09,10.37-0.28,12.68
		c-0.13,0.17-0.27,0.35-0.4,0.52c-0.6,0.78-1.13,1.52-1.66,2.16c-8.25-24.78-14.25-50.73-17.42-77.08
		c-0.52-4.35-0.96-8.7-1.33-13.06c0.3-0.31,0.96-0.99,1.84-1.9c0.62-0.6,1.29-1.42,2.02-2.24c0-0.01,0.01-0.01,0.01-0.02
		c0.29,0.29,0.82,0.6,1.58,0.91c2.06,0.84,5.67,1.62,10.05,1.73c3.24,0.08,6.88-0.2,10.61-1.11c11.36-2.34,23.44-10.1,35.68-21.74
		c0.41-0.38,0.82-0.76,1.23-1.15c11.59-11.51,15.52-28.55,18.5-40.83c0.93-4.55,1.74-8.49,2.32-11.76c0.8-4.4,1.2-7.55,0.95-9.29
		c-0.1-0.67-0.29-1.13-0.6-1.36c-1.43-1.36-6.88-1.67-13.73,0.08c-2.53,0.65-5.25,1.59-8.03,2.86
		c-10.53,4.49-21.87,13.59-32.89,24.41c-0.41,0.41-0.81,0.83-1.2,1.25c-10.06,10.74-15.58,24.49-19.69,34.87
		c-1.11,3.06-2.11,5.83-2.93,8.3c-1.77,5.32-2.75,9.23-2.41,11.46c-0.15,0.13-0.3,0.27-0.45,0.4c-0.81,0.72-1.51,1.4-2.2,1.95
		c-0.32,0.27-0.62,0.51-0.88,0.73c-1.82-22.49-1.82-45.11-0.28-67.29c0.53-7.58,1.27-15.11,2.18-22.57
		c0.42-0.25,1.09-0.65,1.94-1.15c0.72-0.41,1.56-1,2.45-1.57c0.01,0,0.01-0.01,0.02-0.01c0.2,0.34,0.62,0.76,1.24,1.25
		c1.7,1.3,4.87,2.94,8.92,4.13c2.99,0.89,6.46,1.54,10.16,1.63c11.17,0.67,24.37-3.52,38.68-11.28c0.48-0.24,0.96-0.5,1.43-0.76
		c13.68-7.81,21.62-22.69,27.48-33.38c2.01-4,3.75-7.47,5.12-10.36c1.85-3.89,3.01-6.73,3.21-8.41c0.08-0.65,0.02-1.13-0.21-1.42
		c-0.99-1.63-5.99-3.29-12.8-3.37c-2.52-0.04-5.29,0.16-8.2,0.64c-10.93,1.53-23.77,7.17-36.75,14.47
		c-0.48,0.28-0.96,0.57-1.43,0.87c-12.06,7.47-20.66,18.9-27.09,27.52c-1.8,2.57-3.43,4.9-4.82,7c-2.99,4.51-4.88,7.9-5.12,10.06
		c-0.17,0.09-0.35,0.17-0.52,0.26c-0.93,0.47-1.76,0.93-2.54,1.26c-0.32,0.15-0.62,0.28-0.89,0.41c2.39-18.66,5.93-36.9,10.48-54.45
		c2.33-8.99,4.93-17.8,7.74-26.4c0.28-0.13,0.57-0.27,0.9-0.42c0.76-0.33,1.65-0.83,2.59-1.31c0.01,0,0.01-0.01,0.02-0.01
		c0.16,0.36,0.54,0.83,1.11,1.37c1.56,1.47,4.55,3.42,8.45,5.02c2.89,1.19,6.27,2.2,9.94,2.66c11.04,1.81,24.6-1,39.63-7.26
		c0.5-0.19,1-0.4,1.5-0.62c14.41-6.36,23.83-20.35,30.75-30.39c2.41-3.78,4.5-7.05,6.15-9.78c2.24-3.68,3.68-6.38,4.06-8.04
		c0.15-0.64,0.13-1.12-0.06-1.44c-0.82-1.72-5.62-3.88-12.39-4.67c-2.5-0.3-5.28-0.39-8.22-0.2c-11.03,0.4-24.38,4.69-38.04,10.63
		c-0.51,0.23-1.02,0.47-1.52,0.71c-12.76,6.2-22.49,16.68-29.76,24.6c-2.06,2.38-3.92,4.52-5.51,6.47
		c-3.43,4.18-5.66,7.35-6.12,9.48c-0.18,0.07-0.37,0.14-0.54,0.21c-0.82,0.31-1.55,0.61-2.25,0.85
		c4.92-14.8,10.48-28.99,16.52-42.41c6.3-14.01,13.09-27.19,20.1-39.51c0.37-0.07,1.14-0.23,2.17-0.44
		c0.72-0.13,1.58-0.37,2.48-0.59c0.01,0,0.01,0,0.02,0c0.07,0.35,0.29,0.82,0.67,1.4c1.03,1.57,3.18,3.84,6.18,6.02
		c2.22,1.61,4.9,3.16,7.93,4.31c9.05,3.82,21.19,4.19,35.29,1.94c0.47-0.06,0.94-0.13,1.41-0.22c13.6-2.48,24.51-12.47,32.47-19.61
		c2.83-2.73,5.28-5.09,7.25-7.09c2.67-2.68,4.45-4.69,5.11-6.02c0.26-0.51,0.34-0.93,0.24-1.24c-0.35-1.63-4-4.46-9.61-6.52
		c-2.07-0.77-4.42-1.41-6.97-1.86c-9.49-1.92-21.76-1-34.63,1.26c-0.48,0.09-0.96,0.19-1.44,0.3c-12.16,2.67-22.6,9.62-30.43,14.88
		c-2.24,1.6-4.27,3.06-6.03,4.39c-3.79,2.86-6.34,5.11-7.17,6.83c-0.17,0.02-0.34,0.04-0.5,0.07c-0.91,0.12-1.73,0.26-2.47,0.3
		c-0.34,0.03-0.64,0.06-0.92,0.08c3.59-6.24,7.23-12.27,10.89-18.04c6.94-10.92,13.94-20.97,20.81-30.16
		c1.66,0.76,5.43,0.14,10.64-1.48c2.09-0.65,4.39-1.46,6.9-2.42c8.52-3.46,19.15-8.76,27.02-17.93c0.3-0.37,0.62-0.73,0.92-1.09
		c7.86-10.01,14.71-19.9,18.55-28.33c1.07-2.24,1.92-4.39,2.53-6.37c1.68-5.33,1.75-9.41,0.62-10.57c-0.19-0.25-0.59-0.42-1.18-0.52
		c-1.54-0.27-4.35-0.12-8.18,0.39c-2.85,0.36-6.23,0.94-10.04,1.68c-10.35,2.33-23.82,6.27-32.19,16.82
		c-0.29,0.36-0.57,0.73-0.84,1.1c-8.43,11.11-14.14,21.6-16.08,30.8c-0.75,3.03-1.01,5.94-1,8.51c0.01,3.46,0.57,6.29,1.22,7.9
		c0.1,0.25,0.21,0.46,0.32,0.65c-7.03,9.18-14.2,19.23-21.32,30.17c-3.97,6.1-7.92,12.49-11.81,19.13c-0.03-0.1-0.06-0.2-0.09-0.31
		c-0.23-0.71-0.4-1.52-0.62-2.41c-0.04-0.16-0.08-0.33-0.12-0.49c1.3-1.4,2.47-4.59,3.77-9.16c0.6-2.12,1.22-4.53,1.9-7.21
		c2.06-9.21,4.75-21.46,2.82-33.76c-0.08-0.49-0.16-0.97-0.25-1.45c-2.56-12.81-6.16-24.58-11.39-32.73
		c-1.34-2.21-2.79-4.17-4.26-5.82c-3.95-4.49-7.92-6.86-9.56-6.59c-0.32,0.02-0.68,0.25-1.06,0.67c-1,1.1-2.23,3.49-3.76,6.95
		c-1.15,2.56-2.46,5.71-3.97,9.33c-3.76,10.01-9.12,23.8-6.49,37.37c0.09,0.46,0.19,0.93,0.31,1.39
		c3.02,13.97,7.77,25.14,14.62,32.19c2.17,2.41,4.59,4.34,6.89,5.83c3.11,2.01,6.02,3.18,7.85,3.57c0.68,0.14,1.2,0.17,1.54,0.11
		c0,0.01,0,0.01,0,0.02c0.13,0.92,0.21,1.81,0.35,2.53c0.15,0.87,0.27,1.56,0.35,1.98c-6.9,11.9-13.59,24.62-19.85,38.12
		c-6.49,14.01-12.48,28.87-17.76,44.42c-0.02-0.04-0.03-0.08-0.05-0.12c-0.34-0.78-0.64-1.68-1-2.66c-0.06-0.18-0.13-0.36-0.2-0.54
		c1.3-1.74,2.22-5.51,3.11-10.86c0.42-2.48,0.81-5.29,1.25-8.41c1.18-10.69,2.67-24.9-1.06-38.6c-0.15-0.54-0.3-1.08-0.46-1.61
		c-4.52-14.18-10.08-27.06-17.03-35.63c-1.8-2.34-3.69-4.37-5.56-6.06c-5.05-4.58-9.83-6.77-11.67-6.26
		c-0.37,0.06-0.74,0.37-1.12,0.9c-1,1.37-2.08,4.23-3.38,8.34c-0.97,3.04-2.06,6.77-3.32,11.07c-3,11.81-7.33,28.12-2.64,43.15
		c0.17,0.52,0.34,1.03,0.52,1.54c5.18,15.43,11.99,27.5,20.62,34.62c2.76,2.46,5.75,4.34,8.55,5.74c3.78,1.87,7.21,2.84,9.34,3.05
		c0.78,0.08,1.38,0.05,1.76-0.06c0,0,0,0.01,0,0.01c0.26,1.03,0.47,2.02,0.72,2.82c0.33,1.11,0.57,1.96,0.7,2.38
		c-2.59,7.79-5.01,15.73-7.21,23.84c-4.84,17.82-8.64,36.37-11.26,55.38c-0.41-0.52-0.83-1.09-1.3-1.7
		c-0.11-0.15-0.23-0.31-0.35-0.46c0.73-2.05,0.51-5.93-0.19-11.29c-0.33-2.49-0.77-5.3-1.26-8.4c-2-10.57-4.72-24.6-12.29-36.6
		c-0.3-0.47-0.6-0.95-0.91-1.41c-8.47-12.25-17.54-22.94-26.7-29.11c-2.4-1.71-4.81-3.1-7.08-4.17c-6.17-2.91-11.38-3.6-12.99-2.57
		c-0.33,0.16-0.6,0.57-0.81,1.19c-0.55,1.6-0.75,4.65-0.8,8.96c-0.04,3.2,0.01,7.08,0.06,11.56c0.58,12.17,1.2,29.03,10.07,42.04
		c0.31,0.44,0.63,0.88,0.96,1.31c9.46,13.25,19.48,22.8,29.82,27.08c3.36,1.55,6.77,2.48,9.85,2.99c4.16,0.69,7.73,0.61,9.83,0.19
		c0.78-0.16,1.34-0.36,1.67-0.58c0,0.01,0.01,0.01,0.01,0.02c0.55,0.91,1.04,1.8,1.51,2.49c0.21,0.33,0.41,0.62,0.58,0.89
		c-0.96,7.26-1.75,14.57-2.35,21.94c-1.78,22.06-2.03,44.52-0.54,66.96c-0.27-0.25-0.54-0.49-0.83-0.76
		c-0.14-0.13-0.3-0.27-0.45-0.4c0.34-2.23-0.64-6.13-2.41-11.46c-0.82-2.47-1.82-5.24-2.93-8.3c-4.11-10.37-9.63-24.13-19.69-34.87
		c-0.39-0.42-0.8-0.84-1.2-1.25c-11.02-10.81-22.36-19.92-32.89-24.41c-2.78-1.27-5.5-2.21-8.03-2.86
		c-6.85-1.75-12.3-1.44-13.73-0.08c-0.31,0.23-0.5,0.69-0.6,1.37c-0.25,1.74,0.15,4.89,0.95,9.29c0.58,3.26,1.39,7.2,2.32,11.76
		c2.98,12.28,6.91,29.32,18.5,40.83c0.4,0.39,0.82,0.78,1.23,1.15c12.23,11.64,24.31,19.4,35.68,21.74
		c3.73,0.91,7.38,1.19,10.62,1.11c4.37-0.11,7.99-0.89,10.04-1.73c0.76-0.31,1.29-0.62,1.58-0.91c0,0.01,0.01,0.01,0.01,0.02
		c0.73,0.81,1.39,1.61,2,2.21c0.34,4.76,0.76,9.52,1.27,14.27c2.86,26.43,8.53,52.54,16.47,77.54c-0.01-0.01-0.02-0.01-0.03-0.02
		c-0.18-0.11-0.37-0.22-0.56-0.33c-0.1-2.44-1.96-6.38-4.97-11.67c-1.4-2.45-3.04-5.19-4.87-8.21
		c-6.55-10.15-15.31-23.61-28.26-32.9c-0.51-0.37-1.02-0.72-1.54-1.07c-13.98-9.17-27.95-16.46-40.08-19.01
		c-3.22-0.77-6.31-1.19-9.13-1.35c-7.64-0.42-13.37,1.06-14.6,2.81c-0.28,0.31-0.38,0.84-0.34,1.58c0.1,1.9,1.18,5.16,2.96,9.66
		c1.31,3.34,2.99,7.36,4.94,12.01c5.75,12.42,13.51,29.69,28.25,39.49c0.51,0.33,1.03,0.65,1.55,0.97
		c15.45,9.78,29.91,15.49,42.48,15.58c4.15,0.18,8.09-0.28,11.51-1.05c4.62-1.04,8.3-2.63,10.31-3.95c0.73-0.49,1.23-0.93,1.48-1.31
		c0.01,0.01,0.01,0.01,0.02,0.02c0.6,0.44,1.16,0.89,1.69,1.29c0.19,0.6,0.38,1.2,0.58,1.8c4.41,13.13,9.45,25.94,14.98,38.34
		c5.67,12.35,11.81,24.3,18.4,35.74c1.3,2.23,2.63,4.44,3.96,6.64c-0.17-0.06-0.32-0.12-0.5-0.18c-0.2-0.08-0.41-0.15-0.61-0.22
		c-0.58-2.38-3.17-5.88-7.14-10.48c-1.84-2.13-3.98-4.5-6.36-7.1c-8.39-8.69-19.6-20.19-34.1-26.79c-0.57-0.26-1.15-0.51-1.72-0.76
		c-15.49-6.28-30.61-10.72-43-10.86c-3.31-0.13-6.42,0.05-9.22,0.45c-7.57,1.07-12.9,3.63-13.78,5.59c-0.21,0.36-0.21,0.9-0.03,1.61
		c0.47,1.84,2.16,4.83,4.78,8.9c1.94,3.03,4.37,6.64,7.18,10.81c8.05,11.07,19.02,26.51,35.37,33.26c0.56,0.23,1.13,0.44,1.71,0.65
		c17.05,6.6,32.35,9.39,44.69,7.04c4.1-0.63,7.88-1.85,11.08-3.27c4.33-1.92,7.63-4.2,9.35-5.88c0.63-0.63,1.03-1.16,1.21-1.57
		c0.01,0,0.01,0.01,0.02,0.01c0.93,0.44,1.81,0.9,2.59,1.24c11.9,19.27,24.94,37.01,38.57,52.94c5.4,6.29,10.87,12.31,16.37,18.06
		c-0.52-0.05-1.05-0.11-1.62-0.16c-0.21-0.02-0.43-0.04-0.65-0.06c-1.14-2.16-4.5-4.93-9.48-8.42c-2.31-1.62-4.96-3.4-7.9-5.35
		c-10.25-6.38-23.92-14.81-39.6-17.68c-0.62-0.11-1.24-0.22-1.86-0.31c-16.56-2.32-32.29-2.95-44.36-0.07
		c-3.24,0.69-6.21,1.62-8.83,2.69c-7.09,2.88-11.63,6.67-12.01,8.77c-0.11,0.39,0.01,0.93,0.37,1.57c0.9,1.68,3.28,4.17,6.8,7.47
		c2.61,2.46,5.85,5.38,9.6,8.74c10.5,8.78,24.9,21.08,42.4,23.64c0.6,0.08,1.21,0.15,1.81,0.21c18.14,2.26,33.66,1.24,45.07-4.04
		c3.83-1.61,7.19-3.71,9.96-5.87c3.73-2.92,6.38-5.93,7.64-7.99c0.46-0.75,0.72-1.37,0.79-1.81c0.01,0,0.02,0,0.02,0.01
		c1.17,0.23,2.27,0.51,3.2,0.64c0.23,0.04,0.45,0.07,0.65,0.11c9.92,10.25,19.92,19.63,29.76,28.17
		c11.5,9.97,22.73,18.84,33.42,26.63c-0.09,0.01-0.17,0.03-0.26,0.04c-0.94,0.17-2,0.26-3.17,0.4c-0.21,0.02-0.43,0.05-0.65,0.08
		c-1.57-1.88-5.44-3.87-11.05-6.23c-2.6-1.1-5.57-2.27-8.85-3.56c-11.37-4.07-26.52-9.42-42.44-8.91c-0.62,0.02-1.25,0.05-1.88,0.09
		c-16.67,1.23-32.19,3.95-43.37,9.3c-3.03,1.35-5.73,2.9-8.07,4.49c-6.32,4.32-9.96,8.98-9.88,11.11c-0.02,0.42,0.21,0.91,0.69,1.46
		c1.24,1.45,4.08,3.37,8.23,5.87c3.07,1.86,6.86,4.02,11.23,6.52c12.12,6.36,28.79,15.34,46.44,14.14c0.61-0.05,1.21-0.11,1.82-0.17
		c18.21-1.64,33.16-5.92,43.19-13.49c3.41-2.39,6.24-5.15,8.49-7.84c3.03-3.64,4.98-7.14,5.77-9.41c0.28-0.84,0.41-1.49,0.38-1.94
		c0.01,0,0.02,0,0.03,0c1.19-0.02,2.33,0.02,3.27-0.05c1.1-0.06,1.98-0.1,2.52-0.13c3.31,2.38,6.56,4.66,9.75,6.83
		c6.98,5.01,13.88,9.13,20.06,13.25c6.36,3.83,12.2,7.36,17.48,10.54c5.39,3.02,10.21,5.72,14.4,8.07
		c4.19,2.34,7.79,4.09,10.69,5.64c5.81,3.02,8.91,4.63,8.91,4.63l4.7-9.17c0,0-3.12-1.57-8.96-4.53
		C482.56,975.67,478.87,973.93,474.75,971.69z"/>
	<path class="st1" d="M1078.65,653.01c-1.23-1.74-6.96-3.23-14.6-2.81c-2.82,0.16-5.91,0.58-9.13,1.35
		c-12.13,2.55-26.09,9.84-40.08,19.01c-0.52,0.35-1.03,0.71-1.54,1.07c-12.94,9.29-21.71,22.75-28.26,32.9
		c-1.82,3.02-3.47,5.75-4.86,8.21c-3,5.29-4.87,9.23-4.97,11.67c-0.19,0.11-0.38,0.22-0.56,0.33c-0.01,0.01-0.02,0.01-0.03,0.02
		c7.94-25,13.61-51.11,16.47-77.54c0.51-4.75,0.93-9.51,1.27-14.27c0.61-0.6,1.27-1.4,2-2.21c0,0,0.01-0.01,0.01-0.01
		c0.29,0.29,0.83,0.6,1.58,0.91c2.06,0.84,5.67,1.62,10.05,1.73c3.24,0.08,6.88-0.2,10.61-1.11c11.36-2.34,23.44-10.1,35.67-21.74
		c0.42-0.37,0.82-0.76,1.23-1.15c11.59-11.51,15.52-28.55,18.5-40.83c0.93-4.55,1.74-8.49,2.32-11.76c0.81-4.4,1.2-7.55,0.95-9.29
		c-0.09-0.67-0.29-1.14-0.59-1.37c-1.43-1.36-6.88-1.67-13.73,0.08c-2.53,0.65-5.25,1.59-8.03,2.86
		c-10.53,4.49-21.86,13.6-32.89,24.41c-0.4,0.41-0.81,0.83-1.2,1.25c-10.06,10.74-15.58,24.49-19.69,34.87
		c-1.11,3.06-2.11,5.83-2.93,8.3c-1.77,5.33-2.75,9.23-2.41,11.46c-0.15,0.13-0.3,0.27-0.45,0.4c-0.29,0.26-0.56,0.51-0.83,0.76
		c1.5-22.44,1.24-44.9-0.54-66.96c-0.6-7.37-1.39-14.69-2.35-21.94c0.18-0.27,0.37-0.56,0.58-0.89c0.48-0.68,0.96-1.58,1.51-2.49
		c0-0.01,0.01-0.01,0.01-0.02c0.33,0.22,0.89,0.42,1.67,0.58c2.1,0.42,5.67,0.5,9.83-0.19c3.08-0.51,6.48-1.44,9.84-2.99
		c10.34-4.29,20.37-13.83,29.83-27.08c0.32-0.43,0.64-0.87,0.95-1.31c8.88-13.02,9.5-29.87,10.08-42.04
		c0.05-4.48,0.1-8.36,0.06-11.56c-0.05-4.31-0.25-7.36-0.8-8.96c-0.21-0.62-0.48-1.02-0.81-1.19c-1.6-1.03-6.83-0.33-12.99,2.57
		c-2.27,1.07-4.68,2.46-7.09,4.17c-9.15,6.17-18.23,16.86-26.7,29.11c-0.31,0.46-0.61,0.94-0.91,1.41
		c-7.57,12-10.29,26.04-12.29,36.6c-0.5,3.1-0.93,5.91-1.26,8.4c-0.71,5.36-0.93,9.23-0.19,11.29c-0.12,0.16-0.24,0.31-0.35,0.46
		c-0.47,0.62-0.89,1.18-1.3,1.71c-2.62-19.01-6.43-37.57-11.26-55.38c-2.2-8.11-4.62-16.06-7.21-23.85
		c0.12-0.42,0.37-1.27,0.69-2.38c0.26-0.79,0.46-1.79,0.72-2.82c0,0,0-0.01,0-0.01c0.39,0.11,0.98,0.14,1.76,0.06
		c2.13-0.21,5.56-1.17,9.34-3.05c2.8-1.4,5.78-3.28,8.55-5.74c8.63-7.12,15.43-19.18,20.62-34.62c0.18-0.51,0.36-1.02,0.52-1.54
		c4.68-15.04,0.36-31.34-2.64-43.15c-1.25-4.3-2.35-8.02-3.32-11.07c-1.3-4.11-2.38-6.97-3.38-8.34c-0.39-0.53-0.76-0.84-1.13-0.9
		c-1.83-0.51-6.62,1.68-11.66,6.26c-1.87,1.69-3.76,3.72-5.56,6.06c-6.96,8.57-12.51,21.45-17.04,35.63
		c-0.16,0.53-0.31,1.07-0.46,1.61c-3.74,13.69-2.24,27.91-1.06,38.6c0.43,3.12,0.83,5.93,1.24,8.41c0.89,5.35,1.81,9.12,3.11,10.86
		c-0.07,0.18-0.13,0.36-0.2,0.54c-0.36,0.98-0.65,1.88-1,2.66c-0.02,0.04-0.03,0.08-0.05,0.12c-5.28-15.55-11.26-30.41-17.75-44.42
		c-6.25-13.5-12.95-26.22-19.85-38.12c0.07-0.42,0.19-1.11,0.35-1.98c0.14-0.71,0.22-1.6,0.35-2.53c0-0.01,0-0.01,0-0.02
		c0.35,0.06,0.87,0.02,1.55-0.11c1.83-0.39,4.74-1.57,7.84-3.57c2.3-1.49,4.72-3.41,6.89-5.83c6.84-7.05,11.6-18.22,14.62-32.19
		c0.11-0.46,0.21-0.92,0.31-1.39c2.63-13.57-2.73-27.36-6.49-37.37c-1.52-3.63-2.82-6.77-3.97-9.33c-1.53-3.46-2.76-5.84-3.76-6.95
		c-0.39-0.42-0.75-0.66-1.07-0.67c-1.64-0.27-5.61,2.11-9.56,6.59c-1.47,1.65-2.92,3.61-4.26,5.82
		c-5.23,8.15-8.83,19.92-11.39,32.73c-0.09,0.48-0.17,0.96-0.25,1.45c-1.93,12.3,0.76,24.55,2.82,33.76
		c0.68,2.67,1.29,5.09,1.9,7.21c1.29,4.57,2.46,7.77,3.76,9.16c-0.04,0.16-0.08,0.33-0.12,0.49c-0.22,0.89-0.39,1.7-0.61,2.41
		c-0.03,0.11-0.06,0.21-0.09,0.31c-3.89-6.63-7.84-13.03-11.81-19.13c-7.12-10.93-14.29-20.98-21.32-30.17
		c0.11-0.19,0.21-0.4,0.32-0.66c0.66-1.61,1.21-4.44,1.22-7.9c0.01-2.57-0.25-5.48-0.99-8.51c-1.94-9.2-7.65-19.69-16.08-30.8
		c-0.27-0.37-0.56-0.74-0.84-1.1c-8.38-10.55-21.84-14.48-32.19-16.82c-3.81-0.75-7.2-1.32-10.04-1.68
		c-3.82-0.51-6.64-0.66-8.18-0.39c-0.59,0.1-0.99,0.27-1.18,0.52c-1.13,1.15-1.06,5.23,0.61,10.57c0.61,1.98,1.45,4.13,2.53,6.37
		c3.84,8.42,10.68,18.31,18.55,28.33c0.3,0.37,0.62,0.73,0.92,1.09c7.87,9.17,18.49,14.47,27.02,17.93c2.51,0.96,4.81,1.76,6.9,2.42
		c5.21,1.62,8.98,2.24,10.64,1.48c6.87,9.2,13.88,19.25,20.81,30.16c3.67,5.77,7.31,11.81,10.89,18.04
		c-0.28-0.03-0.59-0.05-0.92-0.08c-0.74-0.05-1.56-0.18-2.47-0.3c-0.16-0.02-0.33-0.05-0.5-0.07c-0.83-1.72-3.38-3.97-7.17-6.83
		c-1.76-1.33-3.78-2.78-6.03-4.39c-7.83-5.26-18.27-12.21-30.43-14.88c-0.48-0.1-0.96-0.2-1.44-0.3
		c-12.86-2.26-25.14-3.18-34.63-1.26c-2.55,0.45-4.89,1.09-6.97,1.86c-5.62,2.06-9.27,4.89-9.62,6.52c-0.1,0.31-0.01,0.72,0.24,1.24
		c0.67,1.34,2.44,3.34,5.11,6.02c1.97,2,4.42,4.36,7.25,7.09c7.96,7.14,18.87,17.14,32.47,19.61c0.47,0.08,0.94,0.15,1.41,0.22
		c14.1,2.26,26.25,1.88,35.3-1.94c3.04-1.15,5.71-2.7,7.94-4.31c3-2.17,5.14-4.45,6.17-6.02c0.38-0.59,0.6-1.06,0.67-1.4
		c0.01,0,0.01,0,0.01,0c0.91,0.22,1.77,0.46,2.48,0.59c1.03,0.21,1.81,0.36,2.17,0.44c7.01,12.32,13.8,25.51,20.1,39.51
		c6.04,13.42,11.61,27.61,16.52,42.41c-0.7-0.24-1.43-0.54-2.25-0.85c-0.18-0.07-0.36-0.14-0.54-0.21c-0.46-2.13-2.69-5.3-6.12-9.48
		c-1.6-1.94-3.45-4.09-5.51-6.47c-7.28-7.92-17-18.4-29.76-24.6c-0.5-0.24-1.01-0.48-1.52-0.71c-13.65-5.93-27.01-10.22-38.04-10.63
		c-2.95-0.18-5.72-0.09-8.22,0.2c-6.77,0.78-11.57,2.95-12.39,4.67c-0.2,0.32-0.21,0.8-0.06,1.44c0.37,1.65,1.81,4.35,4.06,8.04
		c1.65,2.73,3.74,6,6.15,9.78c6.92,10.03,16.35,24.02,30.75,30.39c0.5,0.21,1,0.42,1.5,0.62c15.03,6.25,28.59,9.07,39.63,7.26
		c3.67-0.46,7.05-1.47,9.94-2.66c3.9-1.61,6.89-3.56,8.45-5.02c0.58-0.54,0.95-1.01,1.11-1.37c0.01,0,0.01,0.01,0.02,0.01
		c0.95,0.48,1.84,0.98,2.59,1.31c0.33,0.15,0.63,0.29,0.9,0.42c2.81,8.6,5.41,17.41,7.74,26.4c4.55,17.55,8.1,35.79,10.48,54.45
		c-0.27-0.13-0.57-0.26-0.89-0.41c-0.79-0.33-1.61-0.79-2.54-1.26c-0.17-0.09-0.34-0.18-0.52-0.26c-0.24-2.16-2.13-5.55-5.12-10.06
		c-1.39-2.1-3.02-4.43-4.82-7c-6.43-8.62-15.02-20.05-27.09-27.52c-0.47-0.29-0.95-0.59-1.43-0.87
		c-12.98-7.3-25.82-12.93-36.75-14.47c-2.91-0.49-5.68-0.68-8.2-0.64c-6.82,0.08-11.81,1.74-12.8,3.37
		c-0.23,0.29-0.29,0.77-0.21,1.42c0.2,1.68,1.36,4.51,3.21,8.41c1.36,2.89,3.11,6.36,5.12,10.36c5.86,10.69,13.8,25.57,27.47,33.38
		c0.48,0.26,0.96,0.52,1.44,0.76c14.31,7.76,27.51,11.95,38.68,11.28c3.7-0.08,7.16-0.74,10.16-1.63c4.04-1.2,7.22-2.84,8.92-4.13
		c0.63-0.48,1.04-0.9,1.24-1.25c0.01,0,0.01,0.01,0.02,0.01c0.89,0.58,1.72,1.16,2.45,1.57c0.85,0.51,1.52,0.91,1.94,1.15
		c0.92,7.47,1.65,14.99,2.18,22.57c1.54,22.18,1.53,44.8-0.28,67.29c-0.26-0.22-0.56-0.46-0.88-0.73c-0.69-0.55-1.4-1.23-2.2-1.95
		c-0.14-0.13-0.3-0.27-0.45-0.4c0.35-2.23-0.64-6.13-2.41-11.46c-0.82-2.47-1.82-5.24-2.93-8.3c-4.11-10.37-9.63-24.13-19.69-34.87
		c-0.39-0.42-0.79-0.84-1.2-1.25c-11.02-10.81-22.36-19.92-32.89-24.41c-2.78-1.27-5.5-2.21-8.03-2.86
		c-6.85-1.75-12.3-1.44-13.73-0.08c-0.31,0.23-0.5,0.69-0.6,1.36c-0.25,1.74,0.15,4.89,0.95,9.29c0.58,3.26,1.39,7.2,2.32,11.76
		c2.98,12.28,6.91,29.32,18.5,40.83c0.41,0.39,0.82,0.78,1.23,1.15c12.23,11.64,24.31,19.39,35.68,21.74
		c3.73,0.91,7.38,1.19,10.62,1.11c4.37-0.11,7.99-0.89,10.04-1.73c0.76-0.31,1.29-0.62,1.58-0.91c0.01,0.01,0.01,0.01,0.01,0.02
		c0.73,0.82,1.41,1.63,2.02,2.24c0.88,0.91,1.54,1.59,1.84,1.9c-0.38,4.36-0.82,8.71-1.33,13.06c-3.17,26.34-9.17,52.3-17.42,77.07
		c-0.53-0.64-1.05-1.37-1.66-2.16c-0.13-0.17-0.26-0.34-0.39-0.52c0.81-2.31,0.55-6.66-0.28-12.68c-0.38-2.79-0.89-5.95-1.47-9.42
		c-2.3-11.86-5.43-27.61-14-41.04c-0.33-0.53-0.68-1.05-1.03-1.58c-9.57-13.71-19.83-25.67-30.14-32.55
		c-2.71-1.9-5.42-3.45-7.98-4.64c-6.94-3.23-12.8-3.99-14.6-2.82c-0.37,0.19-0.67,0.64-0.9,1.34c-0.61,1.8-0.82,5.23-0.85,10.07
		c-0.03,3.59,0.04,7.94,0.13,12.98c0.72,13.66,1.51,32.59,11.54,47.16c0.35,0.5,0.71,0.99,1.08,1.47
		c10.7,14.83,22.01,25.5,33.64,30.26c3.79,1.71,7.62,2.74,11.08,3.3c4.68,0.75,8.68,0.64,11.04,0.16c0.87-0.18,1.49-0.41,1.86-0.66
		c0,0.01,0.01,0.01,0.01,0.02c0.62,1.02,1.17,2.02,1.71,2.78c0.17,0.25,0.32,0.48,0.47,0.71c-0.14,0.42-0.28,0.84-0.42,1.25
		c-4.5,12.88-9.61,25.42-15.2,37.57c-5.72,12.08-11.9,23.75-18.51,34.93c-1.31,2.18-2.64,4.33-3.97,6.48
		c-0.42-0.78-0.81-1.66-1.27-2.61c-0.09-0.19-0.18-0.39-0.28-0.59c1.27-2.09,1.89-6.4,2.31-12.47c0.19-2.81,0.34-6,0.48-9.52
		c0.16-12.08,0.3-28.14-5.34-43.04c-0.22-0.58-0.45-1.17-0.69-1.75c-6.58-15.37-14.18-29.17-22.87-38c-2.26-2.42-4.6-4.48-6.87-6.17
		c-6.13-4.57-11.72-6.51-13.71-5.74c-0.4,0.11-0.79,0.49-1.16,1.12c-0.97,1.64-1.87,4.96-2.88,9.69c-0.75,3.51-1.57,7.79-2.51,12.74
		c-2.08,13.52-5.17,32.21,1.69,48.52c0.24,0.56,0.5,1.11,0.75,1.66c7.46,16.69,16.36,29.45,26.77,36.48
		c3.36,2.44,6.9,4.23,10.17,5.49c4.43,1.69,8.37,2.4,10.78,2.4c0.88,0,1.54-0.09,1.95-0.26c0,0.01,0.01,0.02,0.01,0.02
		c0.4,1.12,0.74,2.21,1.11,3.07c0.13,0.32,0.24,0.61,0.35,0.89c-12,18.98-25.12,36.4-38.8,52.01c-4.88,5.55-9.82,10.88-14.78,15.99
		c-0.03-0.08-0.05-0.15-0.08-0.23c-0.32-0.9-0.58-1.93-0.91-3.05c-0.06-0.2-0.12-0.41-0.18-0.62c1.59-1.86,2.92-6.01,4.32-11.92
		c0.66-2.74,1.32-5.86,2.04-9.32c2.14-11.88,4.92-27.7,1.79-43.33c-0.13-0.61-0.26-1.23-0.4-1.84c-3.97-16.24-9.21-31.1-16.34-41.24
		c-1.83-2.76-3.81-5.17-5.76-7.21c-5.3-5.52-10.5-8.34-12.59-7.91c-0.41,0.04-0.85,0.35-1.33,0.92c-1.22,1.46-2.66,4.58-4.43,9.09
		c-1.32,3.34-2.83,7.43-4.57,12.15c-4.27,13-10.38,30.93-6.28,48.14c0.15,0.59,0.31,1.18,0.47,1.77
		c4.62,17.69,11.31,31.73,20.43,40.37c2.92,2.96,6.11,5.31,9.14,7.08c4.09,2.39,7.86,3.74,10.24,4.14c0.87,0.15,1.54,0.16,1.97,0.07
		c0,0.01,0,0.01,0,0.02c0.21,1.17,0.37,2.3,0.59,3.21c0.11,0.5,0.21,0.95,0.29,1.35c-10.49,10.71-21.08,20.45-31.47,29.26
		c-11.03,9.34-21.8,17.65-32.08,25c-0.05-0.26-0.09-0.52-0.15-0.81c-0.19-0.94-0.3-2-0.47-3.15c-0.03-0.21-0.06-0.43-0.09-0.65
		c1.84-1.61,3.75-5.53,5.99-11.18c1.05-2.62,2.15-5.61,3.36-8.93c3.82-11.45,8.84-26.71,7.98-42.62c-0.03-0.62-0.07-1.25-0.13-1.88
		c-1.6-16.64-4.64-32.1-10.25-43.16c-1.42-2.99-3.02-5.66-4.67-7.97c-4.45-6.22-9.19-9.76-11.32-9.63c-0.42-0.02-0.9,0.23-1.45,0.72
		c-1.42,1.27-3.29,4.15-5.69,8.35c-1.79,3.11-3.87,6.94-6.27,11.37c-6.09,12.25-14.71,29.12-13.13,46.74
		c0.06,0.61,0.13,1.21,0.21,1.81c2.03,18.17,6.64,33.02,14.43,42.88c2.46,3.35,5.28,6.13,8.02,8.32c3.7,2.95,7.25,4.83,9.54,5.57
		c0.84,0.27,1.5,0.38,1.94,0.34c0,0.01,0,0.02,0,0.03c0.04,1.19,0.03,2.33,0.12,3.26c0.05,0.75,0.1,1.4,0.14,1.91
		c-3.84,2.72-7.61,5.3-11.29,7.74c-6.91,4.84-13.76,8.81-19.88,12.79c-6.3,3.7-12.08,7.09-17.3,10.16
		c-5.3,2.89-10.04,5.47-14.15,7.71c-4.12,2.24-7.81,3.99-10.7,5.48c-5.84,2.95-8.96,4.53-8.96,4.53l4.7,9.17c0,0,3.1-1.61,8.91-4.63
		c2.9-1.54,6.49-3.3,10.69-5.64c4.19-2.35,9.01-5.05,14.41-8.07c5.27-3.18,11.12-6.71,17.48-10.54c6.19-4.11,13.08-8.23,20.06-13.25
		c3.19-2.16,6.44-4.45,9.75-6.83c0.55,0.03,1.42,0.07,2.52,0.13c0.93,0.07,2.08,0.03,3.27,0.05c0.01,0,0.02,0,0.03,0
		c-0.03,0.44,0.1,1.1,0.38,1.94c0.79,2.27,2.74,5.78,5.78,9.41c2.25,2.69,5.09,5.45,8.5,7.84c10.02,7.57,24.97,11.85,43.18,13.49
		c0.6,0.06,1.21,0.12,1.82,0.17c17.65,1.2,34.33-7.78,46.44-14.14c4.38-2.5,8.16-4.66,11.23-6.52c4.15-2.49,6.99-4.42,8.23-5.87
		c0.48-0.56,0.72-1.05,0.69-1.46c0.08-2.13-3.56-6.79-9.88-11.11c-2.34-1.59-5.04-3.14-8.07-4.49c-11.17-5.36-26.7-8.07-43.37-9.3
		c-0.63-0.04-1.25-0.07-1.88-0.09c-15.93-0.51-31.07,4.84-42.44,8.91c-3.28,1.28-6.26,2.46-8.85,3.56
		c-5.6,2.36-9.48,4.35-11.05,6.23c-0.22-0.03-0.44-0.05-0.65-0.08c-1.16-0.14-2.22-0.23-3.17-0.4c-0.09-0.01-0.17-0.03-0.26-0.04
		c10.69-7.79,21.92-16.66,33.42-26.63c9.84-8.53,19.84-17.92,29.76-28.16c0.21-0.03,0.43-0.07,0.65-0.11
		c0.93-0.13,2.03-0.41,3.2-0.64c0.01,0,0.01,0,0.02-0.01c0.07,0.44,0.33,1.06,0.78,1.81c1.26,2.05,3.91,5.07,7.64,7.99
		c2.76,2.15,6.13,4.25,9.96,5.87c11.41,5.28,26.92,6.3,45.07,4.04c0.6-0.06,1.21-0.13,1.81-0.21c17.51-2.56,31.91-14.87,42.41-23.64
		c3.74-3.37,6.99-6.28,9.6-8.74c3.52-3.31,5.9-5.8,6.8-7.47c0.35-0.64,0.48-1.18,0.36-1.57c-0.37-2.11-4.92-5.89-12-8.77
		c-2.62-1.06-5.6-2-8.83-2.69c-12.06-2.87-27.8-2.24-44.36,0.07c-0.62,0.1-1.24,0.2-1.86,0.31c-15.67,2.87-29.34,11.3-39.6,17.68
		c-2.94,1.95-5.6,3.72-7.9,5.35c-4.97,3.49-8.34,6.25-9.48,8.42c-0.22,0.02-0.44,0.04-0.65,0.06c-0.57,0.05-1.11,0.11-1.62,0.16
		c5.5-5.75,10.97-11.77,16.37-18.06c13.63-15.93,26.67-33.66,38.57-52.94c0.79-0.34,1.66-0.8,2.59-1.24c0.01,0,0.01-0.01,0.02-0.01
		c0.17,0.41,0.58,0.94,1.21,1.57c1.72,1.68,5.02,3.96,9.35,5.88c3.2,1.42,6.98,2.64,11.09,3.27c12.35,2.35,27.64-0.44,44.69-7.04
		c0.57-0.21,1.14-0.42,1.71-0.65c16.36-6.75,27.32-22.19,35.37-33.26c2.81-4.18,5.25-7.79,7.18-10.81c2.61-4.07,4.31-7.06,4.78-8.9
		c0.18-0.71,0.18-1.25-0.03-1.61c-0.87-1.95-6.2-4.51-13.78-5.59c-2.8-0.4-5.92-0.58-9.22-0.45c-12.4,0.15-27.51,4.59-43,10.86
		c-0.58,0.25-1.16,0.5-1.72,0.76c-14.5,6.6-25.71,18.1-34.1,26.79c-2.38,2.6-4.52,4.97-6.36,7.1c-3.98,4.6-6.57,8.1-7.14,10.48
		c-0.21,0.07-0.41,0.15-0.61,0.22c-0.17,0.06-0.33,0.12-0.5,0.18c1.33-2.2,2.66-4.4,3.96-6.64c6.59-11.45,12.73-23.4,18.4-35.74
		c5.53-12.41,10.57-25.21,14.99-38.34c0.2-0.6,0.39-1.2,0.58-1.8c0.53-0.4,1.1-0.84,1.69-1.28c0.01-0.01,0.01-0.01,0.02-0.02
		c0.25,0.37,0.75,0.81,1.49,1.31c2.01,1.32,5.69,2.91,10.31,3.95c3.42,0.77,7.36,1.24,11.51,1.05c12.56-0.09,27.03-5.8,42.47-15.58
		c0.52-0.31,1.04-0.64,1.55-0.97c14.73-9.79,22.5-27.07,28.25-39.49c1.94-4.64,3.63-8.66,4.94-12.01c1.78-4.5,2.86-7.76,2.96-9.66
		C1079.03,653.86,1078.92,653.32,1078.65,653.01z"/>
</g>
<g>
	<path class="st2" d="M633.36,307.35c1.18,0.19,2.35,0.39,3.53,0.57c2.71,0.4,5.34,1.1,7.81,2.26c2.79,1.31,5.68,1.57,8.7,1.29
		c4.47-0.41,8.96-0.52,13.42,0.11c3.9,0.55,7.57,1.77,10.51,4.52c0.83,0.78,1.59,1.72,2.09,2.74c1.2,2.42,3.19,3.57,5.73,3.89
		c1.12,0.14,2.12,0.5,3.14,0.98c5.25,2.44,10.53,4.81,15.77,7.26c1.41,0.66,2.79,1.41,4.05,2.32c1.79,1.29,2.03,2.37,1.37,4.46
		c-0.23,0.72-0.4,1.46-0.59,2.18c-0.48,1.77-1.56,3.03-3.27,3.7c-0.79,0.31-1.6,0.66-2.44,0.78c-1.86,0.28-3.6,0.86-5.33,1.56
		c-4.11,1.65-8.25,1.57-12.37-0.05c-0.79-0.31-1.7-0.78-2.42-0.61c-0.64,0.15-1.09,1.09-1.61,1.69c-1.55,1.77-3.6,2.45-5.99,2.76
		c0.16-0.91,0.75-1.4,1.14-2.01c1.31-2.06,0.59-4.44-1.72-5.11c-3.6-1.05-7.28-1.57-11.04-0.86c-2.57,0.49-4.7,1.7-6.35,3.76
		c-1.62,2.03-2.83,4.29-3.83,6.66c-0.28,0.66-0.28,1.47-0.29,2.22c-0.03,2.06-0.01,4.12,0.04,6.19c0.01,0.54,0.2,1.08,0.36,1.61
		c0.48,1.59,0.99,3.17,1.47,4.76c0.61,2.05,0.02,3.41-1.87,4.37c-1.95,0.98-4.07,1.13-6.18,1.17c-5.62,0.11-11-1.09-16.15-3.32
		c-1.72-0.74-3.29-1.74-4.62-3.09c-1.08-1.1-1.9-2.36-2.22-3.88c-0.6-2.84-2.27-4.92-4.65-6.43c-1.31-0.84-2.7-1.57-4.13-2.19
		c-4.2-1.82-7.67-4.62-10.73-7.94c-2.5-2.71-3.75-6.04-4.25-9.67c-0.03-0.25-0.05-0.5-0.08-0.75c-0.21-1.84-0.41-2.09-2.23-2.49
		c-9.5-2.08-19.05-3.85-28.8-4.3c-4.38-0.2-8.76-0.5-13.13-0.46c-11.75,0.11-23.29,1.59-34.41,5.65
		c-8.18,2.98-15.63,7.19-22.04,13.14c-6.5,6.03-11.22,13.15-13.45,21.81c-1.71,6.61-2.04,13.31-1.2,20.08
		c0.55,4.36,1.51,8.62,2.74,12.83c0.38,1.32,1.14,1.96,2.44,2.05c1.2,0.09,2.41,0.17,3.62,0.23c6.19,0.3,12.37,0.64,18.56,0.89
		c9.06,0.37,18.11,0.72,27.17,1c7.7,0.23,15.41,0.38,23.11,0.5c5.64,0.09,11.29,0.08,16.93,0.12c9.77,0.06,19.55,0.2,29.32,0.17
		c7.3-0.02,14.61-0.16,21.91-0.39c8.25-0.26,16.5-0.67,24.75-1.01c6.69-0.27,13.39-0.48,20.08-0.79c9.3-0.44,18.61-0.88,27.91-1.45
		c10.05-0.62,20.1-1.35,30.14-2.11c6.98-0.53,13.96-1.11,20.92-1.82c3.84-0.4,7.64-0.55,11.41,0.4c1.55,0.39,3.05,1,4.54,1.6
		c0.59,0.24,1.12,0.68,1.59,1.13c0.99,0.96,1.02,2.15-0.06,3.01c-0.85,0.68-1.85,1.23-2.87,1.62c-3.2,1.22-6.43,2.34-9.65,3.5
		c-0.61,0.22-1.2,0.46-1.74,0.89c0.52-0.13,1.04-0.24,1.54-0.4c3.79-1.2,7.57-2.42,11.36-3.64c0.67-0.22,1.33-0.52,2.05,0.06
		c-0.41,0.84-1.21,1.15-2,1.43c-6.19,2.26-12.35,4.62-18.59,6.73c-18.56,6.28-37.42,11.49-56.56,15.68
		c-9.59,2.1-19.26,3.82-29.02,4.96c-8.15,0.95-16.32,1.77-24.48,2.65c-0.34,0.04-0.68,0.09-1.11,0.15
		c-2.02,9.72-2.69,19.55-3.41,29.53c1.04,0.19,2.02,0.36,2.99,0.54c7.62,1.4,15.26,2.73,22.87,4.21
		c16.69,3.24,32.66,8.69,48.06,15.83c13.73,6.37,26.51,14.27,37.92,24.28c5.64,4.94,10.62,10.46,14.43,16.96
		c2.83,4.82,4.89,9.93,5.59,15.52c0.85,6.81-0.13,13.36-2.9,19.63c-2.46,5.55-6.06,10.31-10.15,14.74
		c-10.6,11.51-23.91,18.21-38.89,21.95c-0.77,0.19-1.55,0.4-2.3,0.83c42.32,0,84.63,0,127.11,0c0.18,3.39,0.05,6.64,0.09,9.99
		c-0.47,0.05-0.86,0.11-1.24,0.13c-0.5,0.02-1.01,0.01-1.51,0.01c-57.15,0-114.3,0-171.45,0c-98.78,0-197.55,0-296.33,0
		c-0.86,0-1.71-0.04-2.57-0.06c0-3.23,0-6.45,0-9.68c0.64-0.08,1.28-0.23,1.92-0.23c12.95-0.01,25.9-0.01,38.85-0.01
		c12.7,0,25.4,0,38.1,0c0.54,0,1.08-0.03,1.63-0.05c-2.59-0.68-5.18-1.09-7.7-1.73c-13.74-3.52-26.06-9.75-36.55-19.43
		c-3.41-3.15-6.77-6.34-9.57-10.06c-4.07-5.42-5.4-11.46-4.12-18.13c1.13-5.88,3.69-11.06,7.5-15.62
		c6.7-8.03,15.14-13.47,25.05-16.7c10.44-3.4,21.21-4.69,32.14-4.81c7.72-0.09,15.39,0.64,23.04,1.58
		c10.27,1.26,20.3,3.63,30.12,6.87c11.55,3.81,22.82,8.3,33.24,14.61c6.5,3.94,12.73,8.31,19.07,12.52
		c2.69,1.78,5.33,3.63,7.98,5.46c1.43,0.99,2.95,1.04,4.62,0.6c0-0.51,0-0.91,0-1.31c-0.08-17.03-0.21-34.06-0.23-51.09
		c-0.01-7.87-0.31-15.71-1.29-23.52c-0.3-2.39-0.6-4.78-0.91-7.24c-0.94-0.2-1.77-0.39-2.6-0.56c-5.67-1.17-11.41-2.07-16.99-3.56
		c-10.06-2.68-20.03-5.7-30.04-8.6c-12.31-3.56-24.26-8.03-35.65-13.95c-5.54-2.88-10.98-5.95-16.13-9.5
		c-6.88-4.74-13-10.29-18.53-16.57c-4.48-5.09-7.49-10.83-9.17-17.3c-0.85-3.25-1.48-6.58-1.96-9.91
		c-0.98-6.85-0.69-13.66,1.23-20.35c1.49-5.19,3.55-10.17,5.73-15.1c4.24-9.6,10.58-17.56,18.91-23.93
		c7.34-5.62,15.45-9.83,24.08-13.04c14.12-5.25,28.84-7.3,43.78-8.13c4.52-0.25,9.06-0.23,13.59-0.37
		c5.08-0.15,10.16-0.38,15.25-0.49c9.77-0.22,19.54-0.25,29.29-0.95c7.04-0.5,14.03-1.36,20.97-2.66c3.41-0.64,6.8-1.39,10.21-2.06
		c1.02-0.2,2.06-0.31,3.08-0.46C629.33,307.35,631.35,307.35,633.36,307.35z M636.25,494.29c-0.08,0.44-0.15,0.68-0.16,0.93
		c-0.21,6.19-0.52,12.38-0.59,18.57c-0.13,11.69-0.16,23.38-0.17,35.06c-0.01,14.66,0.06,29.32,0.09,43.98c0,0.49,0,0.99,0,1.49
		c0.41,0.12,0.69,0.25,0.98,0.29c3.04,0.42,6.08,0.95,9.13,1.2c3.16,0.27,6.33,0.31,9.5,0.37c5.34,0.1,10.68-0.09,15.96-0.94
		c4.52-0.73,9.02-1.59,13.51-2.49c4.89-0.98,9.3-2.95,12.75-6.7c4.53-4.92,8.43-10.27,11.16-16.42c4.65-10.45,4.49-20.81-0.69-31.03
		c-3.8-7.48-9.13-13.74-15.69-18.93c-6.24-4.93-13.18-8.7-20.33-12.1c-9.98-4.74-20.34-8.45-30.84-11.83
		C639.39,495.28,637.91,494.82,636.25,494.29z M482.42,585.06c3.25-0.12,5.58-0.09,7.88-0.31c4.86-0.46,9.72-0.99,14.56-1.6
		c7.92-1,15.64-2.9,23.07-5.83c2.71-1.06,5.29-2.45,7.89-3.78c1.24-0.64,1.2-1.31,0.02-2.09c-0.88-0.58-1.8-1.1-2.68-1.69
		c-12.72-8.49-26.51-14.58-41.28-18.51c-7.68-2.04-15.43-3.45-23.43-2.58c-4.97,0.54-9.65,1.95-13.98,4.48
		c-2.81,1.64-5.08,3.79-6.34,6.86c-0.57,1.4-1.12,2.81-1.61,4.23c-0.16,0.45-0.17,0.99-0.11,1.47c0.3,2.68,1.49,5,3.03,7.15
		c2.11,2.94,4.8,5.28,7.59,7.54c1.33,1.07,2.79,1.82,4.44,2.14c2.12,0.41,4.26,0.8,6.4,1.04
		C473.01,584.15,478.18,584.63,482.42,585.06z M452.52,581.15c0.05-0.12,0.11-0.24,0.16-0.37c-0.56-0.37-1.1-0.77-1.68-1.1
		c-2.92-1.69-5.91-3.26-8.76-5.06c-4.11-2.59-7.83-5.67-10.91-9.47c-3.68-4.54-5.77-9.63-5.47-15.59c0.23-4.62,1.61-8.74,5.2-11.81
		c1.55-1.33,3.28-2.54,5.09-3.49c6.19-3.25,12.89-4.82,19.8-5.52c5.57-0.57,11.16-0.5,16.75-0.09c7.92,0.58,15.66,2.06,23.23,4.44
		c6.78,2.13,13.29,4.96,19.81,7.75c14.33,6.14,27.87,13.59,39.62,23.99c1.26,1.12,2.61,1.07,4.09,0.59c1.81-0.6,3.65-1.14,5.48-1.67
		c1.21-0.35,2.45-0.57,3.65-0.94c0.64-0.19,1.52-0.28,1.62-1.13c0.09-0.77-0.7-1.04-1.21-1.4c-9.07-6.4-18.49-12.19-28.49-17.02
		c-11.9-5.75-24.12-10.63-36.89-14.09c-8.96-2.43-18.03-4.29-27.32-4.73c-5.13-0.24-10.26-0.28-15.4-0.29
		c-5.61-0.01-11.16,0.61-16.63,1.87c-5.02,1.16-9.84,2.87-14.26,5.61c-9.23,5.74-12.33,17.63-7.51,27.04
		c1.79,3.5,4.17,6.53,6.93,9.28c6.14,6.14,13.46,10.34,21.73,12.91C451.6,581.01,452.06,581.06,452.52,581.15z M659.08,478.95
		c0.69,1.12,1.56,1.22,2.4,1.38c5.29,1.01,10.59,1.98,15.87,3.04c10.2,2.04,20.13,4.95,29.54,9.46c8.5,4.07,16.45,8.97,23.02,15.84
		c4.16,4.35,7.41,9.27,9.37,15c2.56,7.48,2.86,15.13,1.37,22.81c-1.56,8.05-4.84,15.35-10.55,21.39c-2.33,2.46-4.97,4.56-7.73,6.52
		c-5.32,3.77-11.09,6.75-17.04,9.38c-0.47,0.21-0.92,0.45-1.38,0.67c0.33,0.18,0.57,0.14,0.8,0.07c2.74-0.86,5.47-1.71,8.2-2.58
		c7.27-2.32,13.94-5.72,19.8-10.68c6.57-5.56,11.5-12.21,14.18-20.46c1.86-5.72,2.79-11.56,2.14-17.56
		c-0.85-7.82-4.02-14.71-8.83-20.87c-4.88-6.26-11.09-10.95-17.97-14.78c-9.9-5.52-20.44-9.47-31.38-12.37
		c-10.03-2.65-20.3-4.21-30.45-6.31C660.11,478.81,659.72,478.91,659.08,478.95z M574.54,595.43c-0.48-0.21-0.98-0.44-1.48-0.66
		c-4.74-1.99-9.32-4.3-13.65-7.08c-1.3-0.84-2.54-1.02-3.99-0.51c-2.37,0.84-4.74,1.7-7.16,2.37c-7.22,2-14.45,3.97-21.7,5.84
		c-11.22,2.89-22.59,4.98-34.07,6.55c-1.64,0.22-3.28,0.46-4.92,0.69c0.01,0.05,0.01,0.09,0.02,0.14c28.93,0,57.87,0,86.95,0
		C574.54,600.32,574.54,597.96,574.54,595.43z M589.11,326.03c0.02-0.15,0.04-0.3,0.06-0.46c-0.91-0.23-1.82-0.55-2.74-0.68
		c-2.64-0.38-5.28-0.73-7.93-1.02c-5.2-0.57-10.4-1.27-15.62-1.6c-8.34-0.52-16.69-0.79-25.06-0.55
		c-11.46,0.33-22.79,1.6-33.98,4.12c-10.69,2.4-20.8,6.22-30.05,12.2c-10.74,6.94-18.87,16.09-24.04,27.82
		c-0.2,0.46-0.42,0.93-0.5,1.41c-0.04,0.22,0.25,0.5,0.49,0.93c0.59-0.82,1.03-1.42,1.46-2.04c3.58-5.15,7.6-9.91,12.2-14.17
		c10.24-9.48,22.05-16.36,35.29-20.71c9.39-3.09,19.01-5.27,28.88-6.15c5.37-0.48,10.73-1.04,16.1-1.34
		c5.58-0.31,11.18-0.29,16.76,0.15c6.02,0.48,12.05,0.95,18.07,1.43c2.81,0.23,5.62,0.49,8.43,0.7
		C587.66,326.13,588.39,326.05,589.11,326.03z M519.29,439.11c0.5,1.12,1.14,1.69,1.85,2.14c1.4,0.89,2.8,1.8,4.29,2.52
		c13.91,6.76,28.53,11.48,43.55,15.02c0.36,0.09,0.75,0.06,1.14,0.09c-0.24-4.4-0.46-8.65-0.7-13.01c-0.13-0.06-0.34-0.25-0.57-0.27
		C552.32,444.17,535.91,441.77,519.29,439.11z M565.38,463.92c0.02-0.12,0.04-0.23,0.06-0.35c-0.75-0.16-1.49-0.37-2.25-0.46
		c-2.05-0.26-4.11-0.43-6.15-0.7c-8.44-1.1-16.82-2.52-25.1-4.47c-9.36-2.2-18.61-4.81-27.51-8.5c-7.54-3.12-14.61-7-20.6-12.65
		c-0.66-0.62-1.36-1.21-2.12-1.7c-0.75-0.49-1.55-0.99-2.4-1.21c-5.1-1.36-10.22-2.66-15.34-3.95c-0.69-0.17-1.41-0.26-2.22,0.13
		c0.17,0.31,0.47,0.43,0.68,0.63c6.97,6.53,14.93,11.6,23.52,15.71c14.91,7.13,30.69,11.44,46.92,14.25
		c9.33,1.62,18.74,2.64,28.18,3.26C562.49,464,563.94,463.92,565.38,463.92z M658.23,327.63c-0.41-0.23-0.72-0.39-1.02-0.57
		c-3.43-2.01-6.92-3.94-10.28-6.06c-3.55-2.24-7.39-3.62-11.46-4.49c-4.06-0.87-8.09-1.29-12.27-0.45
		c-5.88,1.19-11.86,1.75-17.86,1.89c-4.73,0.11-9.46,0.13-14.19,0.03c-7.31-0.16-14.59-0.66-21.74-2.34c-0.59-0.14-1.23-0.08-2-0.12
		c0.41,1.13,1.22,1.32,1.98,1.49c1.03,0.22,2.08,0.35,3.13,0.49c4.94,0.65,9.87,1.43,14.83,1.88c7.78,0.7,15.59,0.72,23.4,0.35
		c5.48-0.26,10.96-0.56,16.44-0.91c6.04-0.38,11.69,0.79,17.03,3.68c4.03,2.18,8.16,4.15,12.28,6.16c3.71,1.81,7.44,3.59,11.43,4.72
		c5.42,1.53,11,2.03,16.59,2.01c2.74-0.01,5.51-0.51,8.22-1c3.76-0.69,7-0.07,9.53,3.02c0.46,0.56,1.09,0.97,1.71,1.5
		c0.55-2.28-0.18-4.03-2.21-5.23c-2.39-1.42-5.02-1.84-7.72-1.24c-6.89,1.53-13.8,1.27-20.73,0.36c-0.56-0.07-1.09-0.33-1.88-0.58
		c0.41-0.61,0.64-1.02,0.94-1.39c0.38-0.47,0.84-0.87,1.2-1.35c1.39-1.83,1.2-3.55-0.53-5.06c-0.26-0.23-0.55-0.44-0.85-0.63
		c-4.87-3.28-10.15-1.04-12.59,2.07C659.19,326.41,658.73,327,658.23,327.63z M689.68,336.95c-1.44,0-2.87-0.01-4.31,0
		c-6.85,0.04-13.57-0.91-20.1-2.91c-6.49-1.99-12.95-4.1-19.37-6.31c-4.98-1.71-10-2.2-15.17-1.33c-2.5,0.42-4.91,1.12-7.07,2.5
		c-2.69,1.72-3.94,4.68-3.35,7.82c0.33,1.77,1.14,3.32,2.05,4.84c0.9,1.52,1.85,3.01,2.65,4.57c2.23,4.32,3.59,8.84,2.96,13.8
		c-0.33,2.59,0.72,4.71,2.64,6.44c1.8,1.62,4.02,2.47,6.21,3.36c0.29,0.12,0.69-0.05,1.05-0.08c-0.05-0.25-0.05-0.33-0.08-0.35
		c-0.41-0.28-0.81-0.58-1.24-0.83c-3.14-1.89-5.14-4.61-5.93-8.2c-0.25-1.13-0.46-2.27-0.72-3.4c-1.5-6.37-3-12.74-4.53-19.1
		c-0.9-3.73,0.84-6.07,3.64-7.41c1.75-0.84,3.64-1.13,5.57-1.22c3.5-0.16,6.95,0.28,10.33,1.1c4.79,1.16,9.55,2.47,14.33,3.67
		c7.58,1.9,15.28,3.14,23,4.27c1.44,0.21,2.9,0.3,4.36,0.31C687.77,338.5,688.89,338.2,689.68,336.95z M664.73,339.39
		c0.03-0.11,0.05-0.22,0.08-0.32c-0.49-0.16-0.97-0.37-1.47-0.47c-0.69-0.13-1.4-0.17-2.1-0.26c-3.85-0.51-7.69-1-11.59-0.87
		c-3.18,0.11-6.33,0.44-9.33,1.6c-1.71,0.66-2.99,1.75-3.82,3.45c-1,2.04-1.58,4.13-1.38,6.41c0.4,4.56,0.78,9.12,1.24,13.68
		c0.3,2.95,2.45,5.15,5.37,5.7c3.23,0.6,5.97-0.33,8.25-2.64c0.54-0.54,1.07-1.16,0.78-2.18c-1.62,0.83-3.13,1.63-4.67,2.36
		c-0.81,0.39-1.66,0.75-2.53,0.94c-1.38,0.31-2.54-0.19-3.17-1.46c-0.46-0.93-0.89-1.97-0.94-2.98c-0.24-5.03-0.32-10.06-0.51-15.09
		c-0.09-2.42,0.99-4.14,2.97-5.4c1.47-0.93,3.08-1.46,4.76-1.85c3.33-0.79,6.7-0.64,10.08-0.62
		C659.42,339.41,662.07,339.39,664.73,339.39z M686.44,429.28c-14.73,2.24-29.46,4.53-44.37,5.62c-0.26,1.04-0.47,1.89-0.74,2.99
		C656.58,435.18,671.63,432.88,686.44,429.28z M617.84,351.99c-3.12-2.29-5.87-4.9-7.69-8.35c-1.84-3.49-2.21-7.28-2.12-11.18
		c-1.81,2.54-2.33,5.34-1.73,8.3c0.92,4.49,3.69,7.61,7.6,9.79C615.12,351.23,616.37,351.86,617.84,351.99z M599.25,331.21
		c1.6-2.68,3.08-5.16,4.66-7.81c-1.89,0.33-3.63,1.39-4.64,2.69C598.03,327.68,597.97,329.12,599.25,331.21z M678.76,346.95
		c0.1,0.06,0.19,0.12,0.29,0.18c0.64-0.6,1.8-0.89,1.65-2.02c-0.12-0.88-1-1.24-1.94-1.37C678.76,344.86,678.76,345.9,678.76,346.95
		z"/>
	<path class="st2" d="M660.88,866.81c-0.5-0.21-1-0.42-1.49-0.63c-0.56-0.24-1.04-0.52-1.28-1.17c-0.63-1.74-0.41-2.55,1.35-3.18
		c1.41-0.5,2.91-0.78,4.4-1.02c2.23-0.36,4.48-0.6,6.73-0.91c4.21-0.59,7.88-2.2,10.3-5.87c1.27-1.93,2.45-3.94,3.39-6.05
		c9.53-21.44,19-42.91,28.5-64.36c15.46-34.95,30.93-69.89,46.39-104.84c0.18-0.41,0.33-0.83,0.49-1.24
		c-1.12-0.32-121.93-0.42-124.01-0.11c-0.06,0.35-0.14,0.73-0.18,1.12c-0.03,0.35-0.03,0.7-0.03,1.06
		c-0.04,14.26-0.12,28.52-0.08,42.78c0.02,6.7,0.21,13.4,0.48,20.09c0.19,4.79,1.15,9.49,2.14,14.18c0.73,3.45,1.55,6.88,2.23,10.33
		c0.44,2.24,1.7,3.82,3.56,5.02c1.64,1.05,3.46,1.59,5.35,1.98c7.01,1.44,14.06,2.65,21.2,3.19c5.07,0.39,10.16,0.55,15.24,0.79
		c2.46,0.12,4.93,0.25,7.4,0.24c1.98-0.01,3.2,0.94,4.02,2.63c0.92,1.88,1.39,3.89,1.68,5.93c0.18,1.29,0.31,2.61,0.3,3.91
		c-0.03,2.6-1.19,3.82-3.78,3.89c-2.72,0.08-5.44,0-8.16-0.03c-2.67-0.03-5.34-0.1-8.01-0.12c-8.01-0.07-16.02-0.15-24.03-0.17
		c-14.01-0.04-28.02-0.03-42.03-0.06c-9.37-0.02-18.75-0.08-28.12-0.07c-14.31,0.02-28.62,0.07-42.93,0.13
		c-3.58,0.01-7.15,0.2-10.73,0.14c-4.98-0.08-9.97-0.26-14.95-0.5c-1.18-0.06-2.36-0.48-3.52-0.79c-0.95-0.25-1.16-1.05-1.17-1.9
		c-0.02-1.51-0.01-3.02-0.01-4.54c0-1.61-0.02-3.23,0.01-4.84c0.03-1.81,0.8-2.85,2.55-3.24c1.07-0.24,2.19-0.31,3.29-0.37
		c9.2-0.53,18.41-0.88,27.59-1.63c5.46-0.45,10.88-1.42,16.28-2.39c5.09-0.92,8.31-4.04,9.57-9.11c1.07-4.3,2.35-8.56,2.79-12.98
		c0.25-2.5,0.31-5.02,0.35-7.54c0.1-5.79,0.14-11.59,0.21-17.38c0.1-7.76,0.22-15.51,0.3-23.27c0.09-8.51,0.14-17.03,0.2-25.54
		c0-0.3-0.04-0.59-0.07-0.87c-1.17-0.31-124.74-0.45-127.96-0.15c0,0.22-0.05,0.47,0.01,0.68c2.48,8.52,1.43,16.74-2.16,24.73
		c-2.59,5.76-6.3,10.74-10.64,15.31c-4.84,5.09-10.23,9.56-15.64,14.01c-4.09,3.36-3.03,2.52-7.65,2.72
		c-4.02,0.17-8.06,0.03-12.09,0.04c-0.6,0-1.21,0.03-1.8,0.13c-0.65,0.1-1.13,0.48-1.19,1.18c-0.06,0.72,0.41,1.13,1.04,1.29
		c0.53,0.13,1.09,0.2,1.64,0.2c3.43,0.02,6.85,0.01,10.28,0.01c0.5,0,1,0,1.8,0c-0.36,0.47-0.53,0.8-0.8,1.02
		c-1.01,0.83-2.04,1.65-3.08,2.44c-2.66,2.02-5.18,4.18-7.22,6.84c-0.9,1.18-1.96,1.73-3.49,1.62c-1.81-0.13-3.63-0.07-5.44-0.01
		c-0.69,0.02-1.4,0.17-2.05,0.41c-0.59,0.22-0.97,0.75-0.84,1.45c0.12,0.67,0.56,1.08,1.25,1.11c1.61,0.07,3.22,0.11,4.83,0.15
		c0.74,0.02,1.48,0,2.48,0c-1.93,3.89-2.65,7.84-3.16,11.92c-1.61,0-3.11-0.01-4.62,0c-0.45,0-0.92-0.01-1.35,0.09
		c-0.74,0.17-1.17,0.72-1.13,1.4c0.04,0.7,0.45,1.12,1.11,1.24c0.59,0.1,1.2,0.15,1.8,0.16c1.25,0.02,2.51,0.01,3.93,0.01
		c0.81,4.05,1.6,8.02,2.42,12.18c-1.13,0-2.08,0-3.02,0c-0.35,0-0.71-0.02-1.06,0.01c-0.95,0.07-1.5,0.47-1.57,1.12
		c-0.08,0.75,0.55,1.48,1.51,1.58c0.95,0.1,1.91,0.05,2.87,0.06c0.5,0.01,1.01,0.02,1.51,0c0.96-0.05,1.59,0.35,2.07,1.2
		c2.25,4.09,5.19,7.67,8.34,11.08c0.61,0.66,1.28,1.26,2.03,1.99c-1.78,1.68-3.49,3.28-5.3,4.98c-1.49-1.28-2.96-2.42-4.28-3.71
		c-3.11-3.02-6.12-6.13-8.62-9.7c-4.46-6.37-6.96-13.45-7.89-21.15c-0.76-6.2-0.63-12.36,0.47-18.5
		c1.91-10.64,6.94-19.67,14.18-27.56c3.56-3.88,7.54-7.27,11.88-10.24c1.33-0.91,2.62-1.87,4.2-3.01c-0.62-0.1-0.97-0.18-1.32-0.2
		c-0.85-0.06-1.72-0.02-2.56-0.15c-0.83-0.13-1.12-0.58-1.11-1.36c0.01-0.75,0.37-1.22,1.14-1.37c0.39-0.08,0.8-0.06,1.2-0.06
		c1.81-0.01,3.63-0.02,5.44,0c1.46,0.02,2.76-0.34,3.96-1.22c3.73-2.76,7.49-5.46,11.21-8.22c0.79-0.59,1.46-1.33,2.09-2.29
		c-0.52-0.02-1.04-0.06-1.57-0.06c-10.43,0-20.86,0-31.3-0.01c-0.55,0-1.11-0.01-1.65-0.12c-0.7-0.15-1.17-0.57-1.14-1.37
		c0.03-0.73,0.49-1.46,1.15-1.6c0.53-0.12,1.1-0.11,1.65-0.11c11.29-0.01,22.58-0.05,33.87,0.03c2.16,0.02,3.62-0.68,4.72-2.54
		c1.43-2.43,3.04-4.75,4.54-7.14c0.45-0.71,0.8-1.49,1.3-2.43c-0.73-0.03-1.26-0.08-1.78-0.08c-15.37,0-30.74,0.01-46.11-0.01
		c-2.31,0-4.62-0.16-6.93-0.23c-0.49-0.02-0.99,0-1.58,0c0.05,2.12,0.41,4.03,0.92,5.91c1.8,6.64,5.1,12.49,9.73,17.53
		c2.17,2.36,4.7,4.4,7.07,6.58c0.44,0.4,0.88,0.81,1.49,1.36c-1.38,1.02-2.64,1.96-3.81,2.82c-0.24-0.07-0.31-0.06-0.33-0.1
		c-4.62-5.06-9.23-10.13-12.26-16.39c-2.47-5.11-3.83-10.48-3.84-16.17c0-0.45,0-0.89,0-1.54c-5.58,0-11.04,0-16.6,0
		c0-3.4,0-6.6,0-9.77c0.06-0.06,0.09-0.1,0.13-0.13c0.04-0.03,0.08-0.07,0.12-0.08c0.2-0.03,0.4-0.06,0.6-0.06
		c157.04,0,314.08,0,471.12,0.01c0.14,0,0.28,0.06,0.51,0.12c0,3.25,0,6.49,0,9.9c-13.2,0-26.32,0-39.6,0
		c0.13,0.57,0.19,0.95,0.31,1.32c2.34,7.23,3.24,14.64,2.77,22.21c-0.29,4.74-1.17,9.41-2.57,13.93c-0.6,1.94-0.24,3.03,1.37,4.27
		c6.3,4.89,12.09,10.35,17.12,16.57c2.07,2.56,3.81,5.3,5.4,8.18c3.66,6.63,6.83,13.47,9.41,20.59c1.61,4.41,2.8,8.95,3.35,13.61
		c0.28,2.38,0.22,4.83,0.09,7.23c-0.29,5.13-0.75,10.24-1.75,15.3c-0.64,3.25-1.99,6.22-3.28,9.23c-0.65,1.53-1.33,3.04-2.05,4.7
		c0.61,0.51,1.2,1.04,1.82,1.53c4.1,3.19,8.06,6.54,11.67,10.29c3.93,4.07,7.51,8.44,10.55,13.21c2.9,4.56,4.43,9.7,5.73,14.88
		c0.88,3.51,1.48,7.08,2.22,10.63c0.03,0.13,0.15,0.25,0.23,0.37c0,0.1,0,0.2,0,0.3c-2.8,0.1-5.6,0.2-8.51,0.3
		c-0.19-1.55-0.37-3.04-0.56-4.54c-0.25-2.04-0.43-4.09-1.22-6.04c-2.68-6.57-6.53-12.35-11.48-17.42
		c-4.59-4.7-9.78-8.7-14.98-12.68c-0.18-0.14-0.41-0.2-0.61-0.3c-6.76,12.95-7.42,26.33-3.49,40.14c-0.3-0.3-0.47-0.6-0.6-0.92
		c-4.48-11.35-5.7-22.99-3.15-34.97c0.5-2.36,1.06-4.71,1.63-7.06c0.23-0.97,0.07-1.67-0.81-2.32c-1.61-1.2-3.12-2.55-4.67-3.83
		c-8.08-6.73-15.03-14.43-20.25-23.61c-0.46-0.81-0.99-1.11-1.91-1.09c-5.44,0.1-10.88,0.16-16.31,0.21
		c-9.87,0.09-19.74,0.16-29.62,0.22c-8.11,0.05-16.22,0.09-24.33,0.14c-0.39,0-0.79,0.05-1.17,0.07c-0.16,0.33-0.3,0.6-0.41,0.87
		c-8.58,20.58-17.15,41.17-25.73,61.75c-0.66,1.58-0.42,2.56,1.04,3.48c0.88,0.55,1.88,1.03,2.89,1.25c3.2,0.68,6.43,1.2,9.64,1.83
		c1.33,0.26,2.68,0.52,3.93,1.02c1.48,0.59,1.74,1.77,0.76,3.03c-0.35,0.45-0.91,0.77-1.42,1.05c-0.52,0.28-1.11,0.43-1.67,0.63
		C694.95,866.81,677.92,866.81,660.88,866.81z M790.35,779.82c-0.21-0.6-0.33-0.98-0.46-1.35c-2.34-6.62-4.12-13.36-4.8-20.37
		c-0.87-9.08,0.13-17.89,3.66-26.35c1.08-2.6,2.2-5.18,3.29-7.76c-0.07-0.11-0.1-0.22-0.17-0.28c-0.46-0.39-0.93-0.77-1.4-1.15
		c-4.88-3.82-9.62-7.81-13.81-12.4c-4.37-4.79-8.32-9.85-10.58-16.03c-0.08-0.23-0.23-0.43-0.41-0.74
		c-0.21,0.41-0.38,0.71-0.52,1.03c-12.24,28.37-24.48,56.75-36.71,85.12c-0.01,0.03,0.01,0.09,0.03,0.13
		c0.02,0.04,0.06,0.08,0.11,0.15C749.07,779.82,769.61,779.82,790.35,779.82z M798.43,728.6c-0.83,2.46-1.59,4.69-2.32,6.92
		c-1.61,4.89-2.82,9.87-3.08,15.05c-0.37,7.4,0.94,14.53,3.32,21.51c3.35,9.84,8.5,18.54,15.92,25.88
		c4.28,4.24,9.07,7.83,13.8,11.51c0.1,0.08,0.27,0.08,0.52,0.14c0.88-2.59,1.79-5.15,2.62-7.73c2.77-8.64,3.64-17.45,1.82-26.38
		c-3.01-14.78-9.69-27.56-21.09-37.67C806.31,734.63,802.52,731.64,798.43,728.6z M797.39,713.22c5.51-10.18,7.48-27.41,4.11-35.86
		c-6.99,0-14,0-21,0c-0.02,0.09-0.05,0.17-0.07,0.26c6.5,2.78,13,5.56,19.52,8.36c0,1.46,0,2.81,0,4.4
		c-8.8-3.75-17.48-7.44-26.15-11.13c-0.08-0.68-0.15-1.26-0.23-1.98c-1.16,0-2.26-0.01-3.36,0.01c-0.29,0-0.58,0.08-1.01,0.14
		c0.17,0.8,0.26,1.54,0.47,2.25c2.39,7.74,6.45,14.5,12.07,20.33c4.6,4.77,9.79,8.84,15.02,12.87
		C796.94,713.01,797.17,713.1,797.39,713.22z"/>
	<path class="st2" d="M445.12,850.58c1.17,0.06,2.27,0.14,3.37,0.15c11.03,0.11,22.06,0.29,33.09,0.28c7.3-0.01,14.6-0.29,21.9-0.5
		c5.64-0.16,11.27-0.38,16.9-0.64c5.89-0.27,11.73-1.03,17.55-1.97c3.08-0.49,6.14-1.12,9.22-1.61c1.09-0.17,1.65-0.66,2-1.71
		c2.64-7.93,5.34-15.83,8.02-23.75c0.61-1.81,1.24-3.61,1.88-5.47c3.71,0,7.36,0,11.2,0c-2.27,15.44-4.52,30.76-6.79,46.18
		c-1.96,0.22-3.85,0.51-5.74,0.62c-6.38,0.39-12.76,0.81-19.15,1.04c-5.43,0.2-10.88,0.23-16.32,0.21
		c-11.84-0.05-23.68-0.18-35.51-0.29c-8.26-0.08-16.52-0.19-24.78-0.3c-8.81-0.12-17.63-0.36-26.44-0.35
		c-8.06,0.01-16.11,0.26-24.17,0.47c-5.49,0.14-10.97,0.39-16.45,0.59c-2.31,0.09-4.63,0.19-6.94,0.28c-0.64,0.02-1.29,0-2,0
		c-0.88-2.89-1.7-5.68-2.08-8.58c-1.34-10.17,1.25-19.49,6.26-28.23c3.15-5.49,7.15-10.32,11.58-14.86
		c6.74-6.91,14.28-12.89,21.66-19.05c2.24-1.87,4.43-3.82,6.46-5.91c6-6.21,8.63-13.76,8.86-22.33c0.3-11.53-3.85-21.34-11.17-30
		c-1.13-1.34-2.25-2.69-3.47-4.14c1.89-1.77,3.71-3.48,5.57-5.23c7.46,6.77,13.71,14.23,17.27,23.68
		c2.02,5.37,3.08,10.94,3.47,16.65c0.31,4.53,0.44,9.06-0.26,13.57c-1.27,8.2-3.12,16.22-7.33,23.5
		c-2.92,5.04-6.53,9.56-10.52,13.78c-0.34,0.36-0.69,0.72-1.12,1.17c0.49,0.55,0.94,1.06,1.4,1.57c4.97,5.47,8.94,11.53,11.03,18.7
		C444.65,841.89,445.11,845.38,445.12,850.58z M412.42,832.92c0.04,0.1,0.09,0.19,0.13,0.29c0.5,0,1,0,1.49,0c3.88,0,7.76,0,11.63,0
		c0.45,0,0.91,0,1.36,0.06c0.66,0.08,1.1,0.47,1.26,1.13c0.26,1.1-0.3,1.85-1.48,1.93c-1.1,0.07-2.21,0.12-3.32,0.12
		c-4.68-0.02-9.36-0.07-14.04-0.11c-1.13-0.01-2.19,0.13-3.08,0.96c-2.11,1.94-4.29,3.8-6.38,5.77c-2.52,2.39-5.02,4.81-6.85,7.82
		c-0.43,0.7-0.73,1.39-0.62,2.28c1.19-0.32,2.28-0.74,3.4-0.9c3.19-0.45,6.38-0.91,9.59-1.14c4.62-0.33,9.24-0.62,13.87-0.65
		c8-0.05,16,0.11,24.01,0.17c0.33,0,0.65-0.09,0.96-0.14c-0.34-11.25-6.73-21.78-16.44-29.53
		C422.74,824.96,417.58,828.94,412.42,832.92z"/>
	<g>
		<path class="st2" d="M739.64,639.11c1.72,0.5,3.23,0.91,4.73,1.4c1.86,0.61,3.62,1.48,5.06,3.06c1.9,2.09,2.48,4.64,1.83,7.57
			c-0.26,1.19-0.83,2.19-1.54,3.09c-1.57,1.96-3.57,3.07-5.7,3.89c-2.79,1.06-5.67,1.53-8.58,1.56c-7.9,0.08-15.8,0.06-23.71,0.08
			c-0.17,0-0.33-0.03-0.57-0.05c-0.01-0.33-0.03-0.63-0.04-0.91c0.16-0.06,0.25-0.13,0.35-0.13c0.99-0.1,1.98-0.12,2.96-0.3
			c0.53-0.09,1.05-0.37,1.52-0.66c0.6-0.38,0.97-1.01,1.05-1.82c0.07-0.8,0.17-1.6,0.17-2.4c0.01-8.76,0.01-17.51,0-26.27
			c0-0.72-0.1-1.44-0.14-2.16c-0.07-1.29-0.69-2.14-1.68-2.45c-1.05-0.33-2.15-0.42-3.22-0.6c-0.3-0.05-0.61-0.04-0.97-0.06
			c-0.02-0.31-0.03-0.57-0.05-0.83c0.13-0.06,0.22-0.14,0.32-0.14c0.27-0.02,0.55-0.02,0.82-0.02c7.22,0,14.44-0.01,21.66,0
			c2.53,0,5.06,0.16,7.55,0.76c2.54,0.62,4.79,1.89,6.5,4.26c0.83,1.16,1.4,2.46,1.53,4c0.22,2.71-0.91,4.62-2.69,6.09
			c-1.59,1.32-3.44,1.94-5.3,2.5C740.93,638.74,740.38,638.89,739.64,639.11z M727.47,640.75c-0.03,0.18-0.09,0.33-0.09,0.49
			c-0.03,4.37-0.08,8.75-0.06,13.12c0.01,1.74,0.81,2.77,2.29,3c2.62,0.41,5.12-0.12,7.4-1.71c1.67-1.16,2.72-2.9,3.01-5.2
			c0.48-3.79-1.35-7.28-4.55-8.7c-1.42-0.63-2.91-0.88-4.42-0.98C729.87,640.69,728.67,640.75,727.47,640.75z M727.46,623.15
			c-0.21,2.1-0.13,14.28,0.09,15.19c2.07-0.01,4.15-0.1,6.16-0.78c0.71-0.24,1.41-0.63,2.05-1.06c2.08-1.39,2.95-3.55,2.83-6.32
			c-0.11-2.63-1.23-4.43-3.19-5.58C732.9,623.12,730.21,623.18,727.46,623.15z"/>
		<path class="st2" d="M518.73,633c-0.54,0-0.91,0-1.28,0c-0.07-0.13-0.14-0.22-0.17-0.33c-1.32-5.47-4.67-8.4-9.12-9.87
			c-2.04-0.68-4.13-0.67-6.19-0.1c-1.22,0.34-2.3,1-3.18,2.08c-1.35,1.65-1.34,3.74,0.05,5.35c1.01,1.17,2.21,2.04,3.51,2.66
			c2.79,1.32,5.6,2.58,8.39,3.89c2.13,1,4.22,2.1,6.15,3.55c1.04,0.78,2.01,1.67,2.79,2.81c2.49,3.6,2.36,8.46-0.35,11.86
			c-2.23,2.8-5.03,4.38-8.19,5.13c-4.39,1.05-8.7,0.58-12.95-1.03c-0.84-0.32-1.71-0.57-2.59-0.7c-1.32-0.2-2.45,0.39-3.25,1.61
			c-0.44,0.66-0.89,0.79-1.57,0.55c0-4.78,0-9.58,0-14.52c0.35-0.02,0.7-0.04,1.08-0.07c0.16,0.52,0.3,0.97,0.44,1.42
			c2.04,6.59,6.22,10.02,11.97,11.09c1.92,0.36,3.82,0.18,5.68-0.5c1.16-0.43,2.19-1.14,3.01-2.2c1.29-1.65,1.37-3.71,0.23-5.49
			c-0.74-1.15-1.69-2.02-2.78-2.62c-1.76-0.97-3.57-1.83-5.36-2.72c-2.49-1.23-5-2.38-7.46-3.67c-1.57-0.82-2.95-1.99-4.22-3.37
			c-3.64-3.96-3.37-10.05,0.48-13.78c2.29-2.22,4.94-3.36,7.85-3.78c3.6-0.51,7.09,0.05,10.47,1.56c0.7,0.31,1.42,0.58,2.15,0.78
			c1.52,0.42,2.19-0.02,2.8-1.73c0.28-0.8,0.28-0.8,1.23-0.65C518.49,624.41,518.61,628.64,518.73,633z"/>
		<path class="st2" d="M619.35,621.99c0-0.41,0-0.66,0-0.98c7.77,0,15.48,0,23.25,0c0,0.31,0,0.57,0,0.98
			c-0.63,0-1.24-0.05-1.84,0.01c-0.91,0.1-1.85,0.18-2.72,0.47c-1.2,0.39-1.88,1.4-1.94,2.91c-0.02,0.48-0.04,0.96-0.04,1.44
			c0,8.71,0,17.43,0,26.14c0,0.52,0.01,1.05,0.05,1.56c0.13,1.73,0.84,2.61,2.32,2.81c0.64,0.09,1.3,0.14,1.94,0.14
			c2.84,0.01,5.68,0.23,8.5-0.33c2.92-0.57,5.27-2.24,6.9-5.13c0.84-1.49,1.47-3.16,2.19-4.75c0.16-0.35,0.28-0.73,0.43-1.13
			c0.42,0,0.82,0,1.21,0c0.14,0.91-1.2,12.42-1.58,13.56c-12.84,0-25.7,0-38.63,0c-0.03-0.32-0.05-0.61-0.09-1.08
			c0.48,0,0.88,0.03,1.28-0.01c0.88-0.09,1.78-0.12,2.64-0.35c1.4-0.38,2.06-1.39,2.18-3.07c0.05-0.8,0.07-1.6,0.07-2.41
			c0-8.31,0.01-16.63,0-24.94c0-0.92-0.04-1.85-0.09-2.77c-0.06-1.16-0.59-1.92-1.47-2.41c-0.92-0.51-1.9-0.65-2.89-0.69
			C620.48,621.97,619.97,621.99,619.35,621.99z"/>
		<path class="st2" d="M687.93,659.68c0-0.34,0-0.6,0-0.99c0.68-0.04,1.36-0.04,2.02-0.12c0.64-0.08,1.3-0.16,1.91-0.37
			c1.07-0.37,1.38-1.2,1.01-2.43c-0.12-0.38-0.27-0.74-0.44-1.09c-0.86-1.78-1.73-3.55-2.58-5.34c-0.23-0.48-0.51-0.66-0.98-0.66
			c-4.79,0.02-9.58,0.01-14.37,0.02c-0.1,0-0.2,0.03-0.38,0.06c-0.7,1.41-1.43,2.86-2.13,4.32c-0.21,0.45-0.37,0.95-0.49,1.45
			c-0.41,1.72,0.2,3.08,1.67,3.52c0.92,0.27,1.89,0.35,2.83,0.5c0.33,0.05,0.67,0.07,1.07,0.11c0.02,0.35,0.03,0.64,0.05,1.02
			c-4.88,0-9.68,0-14.51,0c-0.03-0.2-0.07-0.35-0.07-0.51c0-0.15,0.04-0.31,0.06-0.48c0.35-0.1,0.68-0.19,1.01-0.27
			c1.61-0.39,2.93-1.34,3.92-2.87c0.78-1.22,1.55-2.45,2.21-3.76c5.1-10.03,10.17-20.08,15.25-30.12c0.19-0.38,0.37-0.78,0.59-1.13
			c0.33-0.53,0.73-0.51,1.07,0.03c0.12,0.19,0.21,0.41,0.31,0.62c5.08,10.23,10.15,20.46,15.24,30.69c0.59,1.18,1.24,2.31,1.89,3.44
			c1.12,1.98,2.61,3.27,4.82,3.28c0.02,0.38,0.03,0.7,0.05,1.08C701.9,659.68,694.94,659.68,687.93,659.68z M688.43,646.47
			c-2.18-4.44-4.28-8.73-6.47-13.18c-2.26,4.47-4.43,8.76-6.66,13.18C679.72,646.47,683.98,646.47,688.43,646.47z"/>
		<path class="st2" d="M594.13,658.68c0,0.35,0,0.65,0,1.01c-6.99,0-13.96,0-20.98,0c-0.03-0.16-0.08-0.3-0.09-0.45
			c-0.01-0.15,0.03-0.31,0.05-0.5c0.18-0.04,0.34-0.08,0.51-0.1c1.09-0.12,2.19-0.12,3.25-0.38c1.24-0.3,1.66-1.29,1.09-2.62
			c-1.01-2.36-2.15-4.64-3.23-6.94c-1.52,0-2.92,0-4.32,0c-3.39,0-6.77,0.02-10.16-0.02c-0.66-0.01-1.07,0.18-1.38,0.9
			c-0.5,1.14-1.11,2.22-1.63,3.34c-0.24,0.52-0.45,1.09-0.58,1.67c-0.39,1.74,0.23,3.05,1.72,3.48c0.92,0.27,1.89,0.34,2.84,0.49
			c0.33,0.05,0.67,0.07,1.04,0.1c0,0.38,0,0.67,0,1.03c-4.84,0-9.61,0-14.45,0c-0.01-0.35-0.03-0.65-0.04-0.95
			c0.14-0.07,0.22-0.13,0.32-0.15c2.12-0.34,3.81-1.54,5-3.61c1.24-2.16,2.43-4.37,3.57-6.61c4.59-9.03,9.16-18.07,13.71-27.13
			c0.65-1.29,1.05-1.56,1.84,0.05c5.05,10.25,10.13,20.48,15.23,30.69c0.72,1.45,1.57,2.82,2.4,4.19c0.88,1.46,2.14,2.21,3.64,2.4
			C593.68,658.6,593.87,658.63,594.13,658.68z M573.61,646.49c-2.2-4.46-4.27-8.76-6.49-13.18c-2.27,4.5-4.44,8.78-6.66,13.18
			C564.91,646.49,569.17,646.49,573.61,646.49z"/>
		<path class="st2" d="M463.04,659.69c0-0.34,0-0.64,0-1.1c0.8,0,1.55,0.06,2.29-0.02c0.67-0.07,1.36-0.23,2-0.48
			c0.94-0.38,1.55-1.17,1.65-2.38c0.07-0.88,0.15-1.76,0.15-2.64c0.01-8.48,0.01-16.95,0-25.43c0-0.92-0.1-1.84-0.14-2.76
			c-0.05-1.05-0.58-1.68-1.32-2.13c-0.93-0.57-1.95-0.72-2.98-0.76c-0.51-0.02-1.02,0-1.62,0c-0.02-0.34-0.04-0.62-0.07-0.98
			c7.63,0,15.17,0,22.78,0c0,0.3,0,0.56,0,0.84c-0.09,0.04-0.18,0.11-0.28,0.12c-0.92,0.07-1.85,0.08-2.76,0.21
			c-0.5,0.07-1,0.26-1.47,0.5c-0.88,0.45-1.4,1.27-1.47,2.42c-0.04,0.68-0.09,1.36-0.09,2.04c-0.01,8.8-0.01,17.6,0,26.39
			c0,0.68,0.07,1.36,0.09,2.04c0.04,1.07,0.51,1.78,1.3,2.28c0.97,0.61,2.01,0.76,3.08,0.78c0.51,0.01,1.02,0,1.6,0
			c0.02,0.4,0.03,0.69,0.05,1.06C478.2,659.69,470.65,659.69,463.04,659.69z"/>
		<path class="st2" d="M606.62,632.18c2.74,0,5.2,0.89,7.24,3.11c1.23,1.34,1.92,2.96,1.95,4.98c0.03,2.17-0.72,3.89-2.04,5.3
			c-2.15,2.28-4.74,3.11-7.57,3.01c-2.5-0.08-4.77-0.94-6.68-2.91c-1.02-1.06-1.78-2.33-2.04-3.93c-0.43-2.59,0.28-4.75,1.9-6.51
			c1.56-1.69,3.42-2.61,5.52-2.91C605.46,632.23,606.04,632.22,606.62,632.18z"/>
		<path class="st2" d="M535.79,648.59c-2.5-0.03-4.85-0.79-6.89-2.72c-3.19-3.03-3.07-8.12,0.01-11.01c2.3-2.16,4.93-2.81,7.79-2.63
			c2.4,0.15,4.54,1.1,6.33,3.01c2.7,2.88,2.68,7.41-0.02,10.29C540.98,647.69,538.54,648.54,535.79,648.59z"/>
	</g>
	<path class="st2" d="M395.03,767.5c0-1,0-1.83,0-2.83c0.52-0.04,1.05-0.1,1.59-0.1c11.93-0.01,23.86-0.01,35.79,0
		c0.5,0,1.02,0.01,1.5,0.12c0.77,0.18,1.11,0.7,1.06,1.43c-0.05,0.76-0.46,1.21-1.2,1.33c-0.39,0.06-0.8,0.05-1.2,0.05
		c-11.98,0-23.96,0-35.94,0C396.12,767.5,395.62,767.5,395.03,767.5z"/>
	<path class="st2" d="M399.07,752.6c0.12-0.32,0.14-0.42,0.2-0.5c1.65-2.56,1.65-2.56,4.66-2.56c9.02,0,18.03,0,27.05,0.01
		c0.55,0,1.12,0.01,1.63,0.17c0.84,0.25,1.25,0.97,1.14,1.73c-0.11,0.73-0.56,1.11-1.5,1.21c-0.35,0.04-0.7,0.02-1.06,0.02
		c-10.17,0-20.35,0-30.52,0C400.17,752.68,399.68,752.63,399.07,752.6z"/>
	<path class="st2" d="M398.14,779.59c0.54,0,1.02,0,1.51,0c7.59,0,15.19,0,22.78,0c0.5,0,1.01,0.02,1.5,0.1
		c0.69,0.11,1.04,0.55,1.05,1.26c0.01,0.73-0.37,1.33-1.05,1.46c-0.54,0.1-1.1,0.09-1.65,0.09c-6.89,0.01-13.78,0-20.67,0
		C399.02,782.5,398.94,782.44,398.14,779.59z"/>
	<path class="st2" d="M413.5,737.39c0.98-0.76,1.94-1.56,2.96-2.27c0.35-0.24,0.84-0.37,1.27-0.38c1.86-0.04,3.72-0.02,5.58-0.01
		c0.29,0,0.6,0.07,0.88,0.18c0.65,0.27,0.86,0.81,0.8,1.47c-0.05,0.61-0.36,1.04-0.97,1.21c-0.24,0.07-0.5,0.09-0.75,0.09
		c-3.22,0.01-6.43,0-9.65,0C413.58,737.59,413.54,737.49,413.5,737.39z"/>
	<path class="st2" d="M409.97,794.64c-0.57,0.65-1.11,1.26-1.77,2.01c-0.47-0.7-0.85-1.27-1.34-2.01
		C407.99,794.64,408.96,794.64,409.97,794.64z"/>
	<path class="st2" d="M452.52,581.15c-0.46-0.09-0.93-0.14-1.37-0.28c-8.27-2.58-15.58-6.77-21.73-12.91
		c-2.75-2.76-5.13-5.78-6.93-9.28c-4.82-9.4-1.73-21.3,7.51-27.04c4.42-2.75,9.24-4.45,14.26-5.61c5.46-1.26,11.02-1.88,16.63-1.87
		c5.13,0.01,10.27,0.04,15.4,0.29c9.29,0.44,18.36,2.3,27.32,4.73c12.77,3.47,24.99,8.35,36.89,14.09
		c10,4.83,19.43,10.63,28.49,17.02c0.52,0.36,1.3,0.63,1.21,1.4c-0.1,0.85-0.98,0.93-1.62,1.13c-1.2,0.36-2.45,0.59-3.65,0.94
		c-1.84,0.53-3.67,1.07-5.48,1.67c-1.48,0.49-2.83,0.53-4.09-0.59c-11.75-10.4-25.29-17.85-39.62-23.99
		c-6.52-2.79-13.03-5.62-19.81-7.75c-7.57-2.38-15.31-3.86-23.23-4.44c-5.59-0.41-11.17-0.48-16.75,0.09
		c-6.91,0.71-13.61,2.27-19.8,5.52c-1.81,0.95-3.54,2.15-5.09,3.49c-3.59,3.08-4.96,7.2-5.2,11.81c-0.3,5.96,1.79,11.05,5.47,15.59
		c3.08,3.8,6.8,6.88,10.91,9.47c2.85,1.8,5.84,3.37,8.76,5.06c0.58,0.34,1.12,0.73,1.68,1.1
		C452.63,580.91,452.57,581.03,452.52,581.15z"/>
	<path class="st2" d="M659.08,478.95c0.63-0.03,1.02-0.13,1.38-0.06c10.15,2.11,20.41,3.66,30.45,6.31
		c10.94,2.89,21.47,6.85,31.38,12.37c6.88,3.83,13.09,8.51,17.97,14.78c4.8,6.16,7.98,13.05,8.83,20.87
		c0.65,6-0.28,11.84-2.14,17.56c-2.68,8.24-7.6,14.9-14.18,20.46c-5.86,4.96-12.53,8.37-19.8,10.68c-2.73,0.87-5.47,1.72-8.2,2.58
		c-0.23,0.07-0.47,0.11-0.8-0.07c0.46-0.23,0.91-0.47,1.38-0.67c5.95-2.63,11.71-5.6,17.04-9.38c2.76-1.96,5.4-4.06,7.73-6.52
		c5.71-6.04,8.99-13.34,10.55-21.39c1.49-7.68,1.19-15.33-1.37-22.81c-1.96-5.73-5.21-10.65-9.37-15
		c-6.58-6.88-14.53-11.77-23.02-15.84c-9.4-4.51-19.34-7.42-29.54-9.46c-5.28-1.06-10.58-2.02-15.87-3.04
		C660.65,480.17,659.77,480.06,659.08,478.95z"/>
	<path class="st2" d="M589.11,326.03c-0.73,0.02-1.46,0.1-2.17,0.05c-2.81-0.21-5.62-0.48-8.43-0.7
		c-6.02-0.48-12.05-0.95-18.07-1.43c-5.58-0.45-11.18-0.46-16.76-0.15c-5.38,0.3-10.74,0.86-16.1,1.34
		c-9.88,0.88-19.49,3.06-28.88,6.15c-13.24,4.35-25.04,11.22-35.29,20.71c-4.6,4.26-8.63,9.02-12.2,14.17
		c-0.43,0.61-0.87,1.22-1.46,2.04c-0.24-0.43-0.53-0.7-0.49-0.93c0.08-0.49,0.29-0.95,0.5-1.41c5.17-11.73,13.3-20.88,24.04-27.82
		c9.25-5.98,19.36-9.8,30.05-12.2c11.18-2.51,22.52-3.79,33.98-4.12c8.37-0.24,16.72,0.03,25.06,0.55
		c5.22,0.32,10.42,1.03,15.62,1.6c2.65,0.29,5.3,0.64,7.93,1.02c0.93,0.13,1.83,0.45,2.74,0.68
		C589.16,325.72,589.14,325.88,589.11,326.03z"/>
	<path class="st2" d="M565.38,463.92c-1.44,0-2.89,0.08-4.33-0.01c-9.45-0.63-18.85-1.64-28.18-3.26
		c-16.23-2.81-32.01-7.12-46.92-14.25c-8.59-4.11-16.55-9.18-23.52-15.71c-0.21-0.2-0.51-0.32-0.68-0.63
		c0.8-0.38,1.53-0.3,2.22-0.13c5.12,1.3,10.24,2.59,15.34,3.95c0.85,0.23,1.65,0.73,2.4,1.21c0.76,0.49,1.46,1.08,2.12,1.7
		c5.99,5.65,13.07,9.53,20.6,12.65c8.9,3.69,18.15,6.29,27.51,8.5c8.29,1.95,16.67,3.37,25.1,4.47c2.05,0.27,4.1,0.44,6.15,0.7
		c0.76,0.1,1.5,0.31,2.25,0.46C565.42,463.68,565.4,463.8,565.38,463.92z"/>
	<path class="st2" d="M658.23,327.63c0.5-0.63,0.96-1.22,1.42-1.8c2.44-3.11,7.72-5.34,12.59-2.07c0.29,0.2,0.58,0.4,0.85,0.63
		c1.73,1.52,1.92,3.24,0.53,5.06c-0.36,0.48-0.83,0.88-1.2,1.35c-0.3,0.37-0.53,0.78-0.94,1.39c0.78,0.25,1.32,0.5,1.88,0.58
		c6.93,0.91,13.84,1.18,20.73-0.36c2.7-0.6,5.32-0.17,7.72,1.24c2.03,1.2,2.76,2.94,2.21,5.23c-0.62-0.53-1.25-0.94-1.71-1.5
		c-2.53-3.09-5.77-3.7-9.53-3.02c-2.72,0.5-5.48,1-8.22,1c-5.59,0.02-11.17-0.48-16.59-2.01c-3.99-1.13-7.72-2.91-11.43-4.72
		c-4.12-2.01-8.25-3.99-12.28-6.16c-5.35-2.89-11-4.06-17.03-3.68c-5.48,0.35-10.96,0.65-16.44,0.91
		c-7.81,0.37-15.62,0.36-23.4-0.35c-4.96-0.45-9.89-1.24-14.83-1.88c-1.05-0.14-2.1-0.27-3.13-0.49c-0.76-0.16-1.57-0.36-1.98-1.49
		c0.77,0.04,1.41-0.02,2,0.12c7.15,1.68,14.43,2.18,21.74,2.34c4.73,0.1,9.46,0.08,14.19-0.03c6-0.14,11.98-0.7,17.86-1.89
		c4.18-0.84,8.2-0.43,12.27,0.45c4.07,0.87,7.91,2.25,11.46,4.49c3.36,2.12,6.85,4.05,10.28,6.06
		C657.52,327.24,657.82,327.4,658.23,327.63z"/>
	<path class="st2" d="M689.68,336.95c-0.79,1.26-1.91,1.55-3.08,1.54c-1.45-0.02-2.92-0.1-4.36-0.31c-7.72-1.14-15.42-2.37-23-4.27
		c-4.78-1.2-9.54-2.51-14.33-3.67c-3.38-0.82-6.83-1.26-10.33-1.1c-1.93,0.09-3.82,0.38-5.57,1.22c-2.8,1.34-4.54,3.68-3.64,7.41
		c1.53,6.36,3.03,12.73,4.53,19.1c0.27,1.13,0.47,2.27,0.72,3.4c0.79,3.59,2.78,6.31,5.93,8.2c0.43,0.26,0.83,0.55,1.24,0.83
		c0.03,0.02,0.02,0.09,0.08,0.35c-0.37,0.04-0.77,0.2-1.05,0.08c-2.19-0.89-4.4-1.74-6.21-3.36c-1.92-1.72-2.97-3.85-2.64-6.44
		c0.63-4.96-0.73-9.48-2.96-13.8c-0.81-1.56-1.76-3.05-2.65-4.57c-0.9-1.52-1.71-3.08-2.05-4.84c-0.59-3.13,0.66-6.1,3.35-7.82
		c2.16-1.38,4.57-2.08,7.07-2.5c5.17-0.87,10.2-0.38,15.17,1.33c6.42,2.21,12.88,4.32,19.37,6.31c6.54,2,13.26,2.95,20.1,2.91
		C686.81,336.94,688.25,336.95,689.68,336.95z"/>
	<path class="st2" d="M664.73,339.39c-2.66,0-5.32,0.02-7.97,0c-3.37-0.02-6.75-0.17-10.08,0.62c-1.68,0.4-3.29,0.92-4.76,1.85
		c-1.98,1.25-3.06,2.98-2.97,5.4c0.18,5.03,0.27,10.07,0.51,15.09c0.05,1.01,0.48,2.06,0.94,2.98c0.63,1.27,1.79,1.77,3.17,1.46
		c0.87-0.2,1.72-0.56,2.53-0.94c1.54-0.73,3.05-1.54,4.67-2.36c0.29,1.02-0.24,1.64-0.78,2.18c-2.28,2.31-5.02,3.24-8.25,2.64
		c-2.92-0.55-5.07-2.75-5.37-5.7c-0.46-4.56-0.84-9.12-1.24-13.68c-0.2-2.27,0.37-4.37,1.38-6.41c0.83-1.69,2.11-2.78,3.82-3.45
		c3-1.17,6.15-1.5,9.33-1.6c3.89-0.13,7.74,0.35,11.59,0.87c0.7,0.09,1.41,0.13,2.1,0.26c0.5,0.1,0.98,0.31,1.47,0.47
		C664.79,339.18,664.76,339.28,664.73,339.39z"/>
	<path class="st2" d="M686.44,429.28c-14.82,3.6-29.86,5.9-45.11,8.6c0.27-1.09,0.48-1.94,0.74-2.99
		C656.98,433.81,671.71,431.52,686.44,429.28z"/>
	<path class="st2" d="M617.84,351.99c-1.47-0.13-2.72-0.76-3.93-1.44c-3.91-2.19-6.69-5.3-7.6-9.79c-0.61-2.96-0.08-5.75,1.73-8.3
		c-0.1,3.9,0.28,7.69,2.12,11.18C611.96,347.09,614.72,349.7,617.84,351.99z"/>
	<path class="st2" d="M599.25,331.21c-1.28-2.09-1.22-3.53,0.02-5.13c1.01-1.3,2.75-2.36,4.64-2.69
		C602.33,326.05,600.84,328.53,599.25,331.21z"/>
	<path class="st2" d="M678.76,346.95c0-1.04,0-2.09,0-3.22c0.93,0.14,1.82,0.49,1.94,1.37c0.15,1.13-1.01,1.42-1.65,2.02
		C678.95,347.06,678.85,347,678.76,346.95z"/>
	<path class="st2" d="M842.77,838.32c0.94,1.35,1.8,2.57,2.76,3.95c-5.63,6.82-11.25,13.63-16.99,20.58
		c-0.96-1.37-1.82-2.59-2.77-3.94C831.43,852.06,837.05,845.25,842.77,838.32z"/>
	<path class="st2" d="M830.73,827.95c1.03,1.3,1.95,2.47,2.92,3.71c-2.49,3.79-4.94,7.52-7.53,11.46c-1.01-1.29-1.92-2.45-2.92-3.73
		C825.68,835.63,828.15,831.87,830.73,827.95z"/>
	<path class="st2" d="M818.68,749.67c0.68,1.58,1.29,2.99,1.95,4.53c-8.15,3.37-16.21,6.69-24.38,10.07
		c-0.67-1.56-1.27-2.97-1.93-4.53C802.45,756.37,810.47,753.06,818.68,749.67z"/>
	<path class="st2" d="M825.26,767.46c0.46,1.33,0.93,2.7,1.48,4.28c-8.45,1.79-16.78,3.56-25.26,5.35
		c-0.51-1.44-0.99-2.79-1.46-4.14C800.96,772.38,822.49,767.7,825.26,767.46z"/>
	<path class="st2" d="M826.84,788.87c-1.38,0.3-16.71-1.8-19.22-2.56c-0.25-1.37-0.5-2.79-0.81-4.46
		c6.51,0.87,12.83,1.88,19.31,2.82C826.36,786.05,826.59,787.42,826.84,788.87z"/>
	<path class="st2" d="M794.97,744.33c3.38-2.8,6.63-5.49,9.97-8.26c0.86,1.47,1.63,2.8,2.47,4.22c-3.32,2.75-6.56,5.44-9.96,8.25
		C796.61,747.12,795.83,745.8,794.97,744.33z"/>
	<path class="st2" d="M818.71,798.72c-0.16-1.55-0.31-2.94-0.48-4.58c2.38,0.66,4.57,1.27,6.74,1.87c0.16,1.55,0.3,2.94,0.46,4.56
		C823.11,799.93,820.97,799.34,818.71,798.72z"/>
	<path class="st2" d="M784.22,699.16c0-1.28,0-2.62,0-3.96c1,0.03,12.39,4.65,14.21,5.77c0,1.3,0,2.64,0,3.99
		C797.4,704.88,786.15,700.3,784.22,699.16z"/>
</g>
</svg>
