<svg id="Layer_1" data-name="Layer 1" xmlns="http://www.w3.org/2000/svg" width="75.33mm" height="75.33mm" viewBox="0 0 213.54 213.54"><defs><style>.cls-1{fill:#00293c;}.cls-10,.cls-11,.cls-12,.cls-13,.cls-2,.cls-3,.cls-4,.cls-5,.cls-6,.cls-7,.cls-8,.cls-9{fill:none;}.cls-2{stroke:#1c1a1c;}.cls-10,.cls-11,.cls-12,.cls-13,.cls-14,.cls-2,.cls-3,.cls-4,.cls-5,.cls-6,.cls-7,.cls-8,.cls-9{stroke-linejoin:round;}.cls-3{stroke:#fc8f66;}.cls-4{stroke:#2a5a9c;}.cls-5{stroke:#89bec8;}.cls-6{stroke:#d3000c;}.cls-7{stroke:#f6f5f2;}.cls-8{stroke:#659cb7;}.cls-9{stroke:#c7e1e2;}.cls-10{stroke:#fdcfb4;}.cls-11{stroke:#f97146;}.cls-12{stroke:#b00516;}.cls-13{stroke:#2b4c9b;}.cls-14{fill:#fff;stroke:#fff;}</style></defs><title>profile</title><circle class="cls-1" cx="106.77" cy="106.77" r="106.77"/><polyline class="cls-2" points="88.43 146.67 88.43 146.67 98.61 145.84 108.79 137.06 118.97 118.46 129.16 115.97 139.34 130.59 149.52 125.9 159.7 133.37 169.88 146.67"/><polyline class="cls-2" points="88.43 146.67 88.43 146.67 98.61 147.49 108.79 138.46 118.97 119.91 129.16 116.74 139.34 131.48 149.52 125.92 159.7 132.86 169.88 146.67"/><polyline class="cls-2" points="88.43 146.67 88.43 146.67 98.61 146.19 108.79 140.39 118.97 123.96 129.16 128.73 139.34 113.42 149.52 120.06 159.7 131.35 169.88 146.67"/><polyline class="cls-2" points="88.43 146.67 88.43 146.67 98.61 146.29 108.79 134.52 118.97 114.65 129.16 111.87 139.34 121.77 149.52 123.49 159.7 131.35 169.88 146.67"/><polyline class="cls-2" points="88.43 146.67 88.43 146.67 98.61 146.06 108.79 137.62 118.97 119.43 129.16 116.71 139.34 131.39 149.52 126.03 159.7 133.38 169.88 146.67"/><polyline class="cls-2" points="88.43 146.67 88.43 146.67 98.61 145.38 108.79 136.54 118.97 117.74 129.16 116.07 139.34 130.59 149.52 127.05 159.7 133.89 169.88 146.67"/><polyline class="cls-2" points="88.43 146.67 88.43 146.67 98.61 145.33 108.79 136.72 118.97 118.14 129.16 116.36 139.34 129.44 149.52 124.73 159.7 133.08 169.88 146.67"/><polyline class="cls-2" points="88.43 146.67 88.43 146.67 95.22 148.65 102.01 136.74 108.79 118 115.58 105.69 122.37 92.71 129.16 72.3 135.94 73.4 142.73 86.9 149.52 106.8 156.31 115.48 163.09 130.61 169.88 146.67"/><polyline class="cls-2" points="88.43 146.67 88.43 146.67 98.61 145.48 108.79 136.15 118.97 117.85 129.16 112.65 139.34 127.6 149.52 125.46 159.7 133.06 169.88 146.67"/><polyline class="cls-2" points="88.43 146.67 88.43 146.67 98.61 145.77 108.79 136.75 118.97 118.38 129.16 113.21 139.34 127.57 149.52 124.45 159.7 132.32 169.88 146.67"/><polyline class="cls-2" points="88.43 146.67 88.43 146.67 98.61 152.11 108.79 141.31 118.97 123.73 129.16 123.05 139.34 136.92 149.52 137 159.7 132.06 169.88 146.67"/><polyline class="cls-2" points="88.43 146.67 88.43 146.67 98.61 145.91 108.79 136.57 118.97 117.94 129.16 111.99 139.34 126.07 149.52 125.14 159.7 132.41 169.88 146.67"/><polyline class="cls-2" points="88.43 146.67 88.43 146.67 98.61 146.2 108.79 136.42 118.97 117.54 129.16 113.46 139.34 127.8 149.52 125.23 159.7 132.1 169.88 146.67"/><polyline class="cls-2" points="88.43 146.67 88.43 146.67 98.61 145.96 108.79 136.32 118.97 117.8 129.16 115.56 139.34 130.5 149.52 125.02 159.7 132.66 169.88 146.67"/><polyline class="cls-2" points="88.43 146.67 88.43 146.67 96.57 147.48 104.72 140.09 112.87 120.78 121.01 117.38 129.16 106.24 137.3 101.62 145.44 105.42 153.59 123.58 161.73 130.53 169.88 146.67"/><polyline class="cls-2" points="88.43 146.67 88.43 146.67 98.61 145.82 108.79 136.13 118.97 118.19 129.16 114.27 139.34 128.55 149.52 125.04 159.7 132.57 169.88 146.67"/><polyline class="cls-2" points="88.43 146.67 88.43 146.67 98.61 145.47 108.79 136.21 118.97 118.22 129.16 114.44 139.34 128.27 149.52 124.51 159.7 132.31 169.88 146.67"/><polyline class="cls-2" points="88.43 146.67 88.43 146.67 98.61 144.88 108.79 135.86 118.97 117.91 129.16 113.97 139.34 128 149.52 124.21 159.7 131.87 169.88 146.67"/><polyline class="cls-2" points="88.43 146.67 88.43 146.67 98.61 145.71 108.79 133.29 118.97 113.44 129.16 111.14 139.34 120.7 149.52 122.95 159.7 131.03 169.88 146.67"/><polyline class="cls-2" points="88.43 146.67 88.43 146.67 98.61 146.57 108.79 134.39 118.97 114.56 129.16 111.7 139.34 121.42 149.52 122.47 159.7 131.69 169.88 146.67"/><polyline class="cls-2" points="88.43 146.67 88.43 146.67 98.61 145.55 108.79 133.37 118.97 113.47 129.16 110.94 139.34 120.36 149.52 122.6 159.7 131.31 169.88 146.67"/><polyline class="cls-2" points="88.43 146.67 88.43 146.67 96.57 147.9 104.72 137.46 112.87 121.17 121.01 114.64 129.16 95.12 137.3 100.92 145.44 116.84 153.59 132.95 161.73 132.78 169.88 146.67"/><polyline class="cls-2" points="88.43 146.67 88.43 146.67 100.06 149.01 111.7 136.59 123.34 122.58 134.97 120.3 146.61 136.94 158.25 133.72 169.88 146.67"/><polyline class="cls-2" points="88.43 146.67 88.43 146.67 100.06 148.91 111.7 135.8 123.34 123.66 134.97 120.62 146.61 136.88 158.25 133.51 169.88 146.67"/><polyline class="cls-2" points="88.43 146.67 88.43 146.67 97.48 147.04 106.53 134.25 115.58 125.82 124.63 114.3 133.68 110.3 142.73 105.68 151.78 123.49 160.83 133.07 169.88 146.67"/><polyline class="cls-2" points="88.43 146.67 88.43 146.67 98.61 145.84 108.79 140.12 118.97 124.95 129.16 128.24 139.34 110.13 149.52 117.8 159.7 130.91 169.88 146.67"/><polyline class="cls-2" points="88.43 146.67 88.43 146.67 98.61 145.73 108.79 137.2 118.97 118.18 129.16 119.38 139.34 133.64 149.52 126.28 159.7 133.04 169.88 146.67"/><polyline class="cls-2" points="88.43 146.67 88.43 146.67 98.61 145.62 108.79 134.51 118.97 117.34 129.16 114.54 139.34 127.01 149.52 123.85 159.7 132.27 169.88 146.67"/><polyline class="cls-2" points="88.43 146.67 88.43 146.67 97.48 147.09 106.53 135.46 115.58 116.92 124.63 111.25 133.68 118.09 142.73 129.78 151.78 126.52 160.83 135.26 169.88 146.67"/><polyline class="cls-2" points="88.43 146.67 88.43 146.67 98.61 144.69 108.79 130.44 118.97 122.12 129.16 128.83 139.34 116.63 149.52 124.37 159.7 134.8 169.88 146.67"/><polyline class="cls-2" points="88.43 146.67 88.43 146.67 98.61 146.66 108.79 131.99 118.97 125.09 129.16 131.04 139.34 118.25 149.52 121.84 159.7 132.75 169.88 146.67"/><polyline class="cls-2" points="88.43 146.67 88.43 146.67 95.22 148.61 102.01 136.13 108.79 118.22 115.58 106.52 122.37 94.59 129.16 74.1 135.94 75.41 142.73 88.7 149.52 108.54 156.31 115.93 163.09 131.58 169.88 146.67"/><polyline class="cls-2" points="88.43 146.67 88.43 146.67 96.57 146.34 104.72 133.23 112.87 118.41 121.01 117.47 129.16 98.82 137.3 92 145.44 101.68 153.59 119.74 161.73 130.52 169.88 146.67"/><polyline class="cls-2" points="88.43 146.67 88.43 146.67 96.57 146.83 104.72 133.96 112.87 118.67 121.01 117.8 129.16 99.07 137.3 91.36 145.44 101.3 153.59 119.59 161.73 130.07 169.88 146.67"/><polyline class="cls-2" points="88.43 146.67 88.43 146.67 96.57 145.1 104.72 133.57 112.87 119.42 121.01 117.45 129.16 99.15 137.3 92.18 145.44 101.41 153.59 118.97 161.73 130.56 169.88 146.67"/><polyline class="cls-2" points="88.43 146.67 88.43 146.67 98.61 145.59 108.79 133.63 118.97 116.68 129.16 117.39 139.34 117.98 149.52 124.2 159.7 132.18 169.88 146.67"/><polyline class="cls-2" points="88.43 146.67 88.43 146.67 98.61 146.28 108.79 136.54 118.97 117.56 129.16 114.49 139.34 129.08 149.52 124.96 159.7 131.84 169.88 146.67"/><polyline class="cls-2" points="88.43 146.67 88.43 146.67 97.48 146.57 106.53 133.94 115.58 116.23 124.63 110.43 133.68 119.97 142.73 131.65 151.78 127.23 160.83 136.13 169.88 146.67"/><polyline class="cls-2" points="88.43 146.67 88.43 146.67 98.61 148.17 108.79 134.56 118.97 117.95 129.16 117.59 139.34 130.97 149.52 127.37 159.7 136.65 169.88 146.67"/><polyline class="cls-2" points="88.43 146.67 88.43 146.67 97.48 148.04 106.53 134.07 115.58 118.06 124.63 110.62 133.68 117.98 142.73 130.91 151.78 126.59 160.83 136.94 169.88 146.67"/><polyline class="cls-2" points="88.43 146.67 88.43 146.67 98.61 150.17 108.79 137.28 118.97 119.04 129.16 116.65 139.34 130.1 149.52 126.67 159.7 137.87 169.88 146.67"/><polyline class="cls-2" points="88.43 146.67 88.43 146.67 98.61 146.39 108.79 136.4 118.97 117.95 129.16 115.21 139.34 129.82 149.52 125.63 159.7 133.13 169.88 146.67"/><polyline class="cls-2" points="88.43 146.67 88.43 146.67 98.61 145.21 108.79 138.2 118.97 120.94 129.16 127.78 139.34 110.76 149.52 118.44 159.7 132.35 169.88 146.67"/><polyline class="cls-2" points="88.43 146.67 88.43 146.67 97.48 145.87 106.53 138.42 115.58 119.45 124.63 105.73 133.68 116.25 142.73 130.47 151.78 127.5 160.83 130.69 169.88 146.67"/><polyline class="cls-2" points="88.43 146.67 88.43 146.67 97.48 143.71 106.53 136.03 115.58 116.38 124.63 104.42 133.68 118.8 142.73 127.68 151.78 124.9 160.83 131.66 169.88 146.67"/><polyline class="cls-2" points="88.43 146.67 88.43 146.67 97.48 145.35 106.53 134.44 115.58 120.67 124.63 129.58 133.68 113.53 142.73 116.64 151.78 136.84 160.83 134.03 169.88 146.67"/><polyline class="cls-2" points="88.43 146.67 88.43 146.67 97.48 147.68 106.53 136.5 115.58 122.16 124.63 127.09 133.68 110.57 142.73 117.38 151.78 135.94 160.83 132.72 169.88 146.67"/><polyline class="cls-2" points="88.43 146.67 88.43 146.67 97.48 145.99 106.53 135.35 115.58 121.02 124.63 126.84 133.68 110.15 142.73 117.35 151.78 135.74 160.83 132.66 169.88 146.67"/><polyline class="cls-2" points="88.43 146.67 88.43 146.67 98.61 146.51 108.79 130.13 118.97 117.22 129.16 120.27 139.34 135.75 149.52 130.12 159.7 138.82 169.88 146.67"/><polyline class="cls-2" points="88.43 146.67 88.43 146.67 98.61 145.82 108.79 137.03 118.97 118.44 129.16 115.32 139.34 129.68 149.52 125.69 159.7 133.14 169.88 146.67"/><polyline class="cls-2" points="88.43 146.67 88.43 146.67 97.48 146.11 106.53 136.29 115.58 123.15 124.63 108.87 133.68 99.83 142.73 105.8 151.78 125.78 160.83 131.39 169.88 146.67"/><polyline class="cls-2" points="88.43 146.67 88.43 146.67 97.48 146 106.53 135.82 115.58 122.85 124.63 108.89 133.68 99.86 142.73 105.13 151.78 125.46 160.83 131.64 169.88 146.67"/><polyline class="cls-2" points="88.43 146.67 88.43 146.67 97.48 147.61 106.53 134.75 115.58 118.25 124.63 110.9 133.68 118.6 142.73 131.16 151.78 127.75 160.83 137.97 169.88 146.67"/><polyline class="cls-2" points="88.43 146.67 88.43 146.67 97.48 146.48 106.53 133.81 115.58 116.95 124.63 110.99 133.68 118.65 142.73 131.38 151.78 127.72 160.83 137.97 169.88 146.67"/><polyline class="cls-2" points="88.43 146.67 88.43 146.67 97.48 147.28 106.53 134.85 115.58 117.78 124.63 110.3 133.68 118.14 142.73 130.77 151.78 127.34 160.83 137.2 169.88 146.67"/><polyline class="cls-2" points="88.43 146.67 88.43 146.67 95.22 148.28 102.01 136.64 108.79 117.9 115.58 105.36 122.37 92.49 129.16 71.9 135.94 73.49 142.73 87.33 149.52 107.38 156.31 115.18 163.09 130.43 169.88 146.67"/><polyline class="cls-2" points="88.43 146.67 88.43 146.67 95.22 145.82 102.01 133.73 108.79 114.32 115.58 104.37 122.37 92.16 129.16 71.93 135.94 71.88 142.73 85.4 149.52 105.84 156.31 114.56 163.09 129.44 169.88 146.67"/><polyline class="cls-2" points="88.43 146.67 88.43 146.67 97.48 147.24 106.53 134.72 115.58 117.48 124.63 110.83 133.68 118.7 142.73 131.82 151.78 127 160.83 136.71 169.88 146.67"/><polyline class="cls-2" points="88.43 146.67 88.43 146.67 100.06 153.33 111.7 145.91 123.34 136.35 134.97 142.87 146.61 132.77 158.25 135.13 169.88 146.67"/><polyline class="cls-2" points="88.43 146.67 88.43 146.67 98.61 144.74 108.79 133.29 118.97 115.86 129.16 122.59 139.34 115.32 149.52 126.53 159.7 131.37 169.88 146.67"/><polyline class="cls-2" points="88.43 146.67 88.43 146.67 96.57 146.39 104.72 134 112.87 119.62 121.01 118.52 129.16 99.78 137.3 91.91 145.44 101.01 153.59 118.7 161.73 130.29 169.88 146.67"/><polyline class="cls-2" points="88.43 146.67 88.43 146.67 96.57 146.39 104.72 133.83 112.87 119.23 121.01 118.31 129.16 99.81 137.3 91.21 145.44 100.6 153.59 118.64 161.73 130.66 169.88 146.67"/><polyline class="cls-2" points="88.43 146.67 88.43 146.67 96.57 146.89 104.72 133.43 112.87 118.19 121.01 117.46 129.16 98.55 137.3 91.94 145.44 101.99 153.59 119.51 161.73 130.8 169.88 146.67"/><polyline class="cls-2" points="88.43 146.67 88.43 146.67 97.48 149.33 106.53 136.85 115.58 119.2 124.63 112.39 133.68 118.94 142.73 131.09 151.78 127 160.83 137.12 169.88 146.67"/><polyline class="cls-2" points="88.43 146.67 88.43 146.67 98.61 145.32 108.79 140.17 118.97 123.78 129.16 130.82 139.34 113.89 149.52 120.46 159.7 130.16 169.88 146.67"/><polyline class="cls-2" points="88.43 146.67 88.43 146.67 97.48 146.2 106.53 133.83 115.58 115.14 124.63 106.91 133.68 114.64 142.73 127.59 151.78 125.21 160.83 135.81 169.88 146.67"/><polyline class="cls-2" points="88.43 146.67 88.43 146.67 98.61 146.83 108.79 138.38 118.97 120.96 129.16 117.82 139.34 125.68 149.52 129.34 159.7 131.28 169.88 146.67"/><polyline class="cls-2" points="88.43 146.67 88.43 146.67 98.61 148.06 108.79 137.67 118.97 119.7 129.16 116.23 139.34 126.34 149.52 132.19 159.7 132.61 169.88 146.67"/><polyline class="cls-2" points="88.43 146.67 88.43 146.67 97.48 145.42 106.53 136.49 115.58 118.66 124.63 106.44 133.68 118.25 142.73 127.85 151.78 122.36 160.83 130.92 169.88 146.67"/><polyline class="cls-2" points="88.43 146.67 88.43 146.67 97.48 145.31 106.53 137.46 115.58 119.38 124.63 106.24 133.68 118.92 142.73 131.99 151.78 125.84 160.83 130.66 169.88 146.67"/><polyline class="cls-2" points="88.43 146.67 88.43 146.67 97.48 144.79 106.53 135.81 115.58 118.09 124.63 105.26 133.68 116.92 142.73 127.85 151.78 123.05 160.83 131.62 169.88 146.67"/><polyline class="cls-2" points="88.43 146.67 88.43 146.67 97.48 147.34 106.53 137.8 115.58 118.13 124.63 104.71 133.68 116.78 142.73 129.74 151.78 125.06 160.83 131.3 169.88 146.67"/><polyline class="cls-2" points="88.43 146.67 88.43 146.67 97.48 145.9 106.53 137.44 115.58 118.65 124.63 106.27 133.68 118.25 142.73 128.52 151.78 122.64 160.83 131.32 169.88 146.67"/><polyline class="cls-2" points="88.43 146.67 88.43 146.67 97.48 145.63 106.53 137.21 115.58 118.9 124.63 106.14 133.68 117.52 142.73 127.78 151.78 122.81 160.83 131.19 169.88 146.67"/><polyline class="cls-2" points="88.43 146.67 88.43 146.67 98.61 149.41 108.79 137.98 118.97 120.1 129.16 122.57 139.34 133.88 149.52 131.26 159.7 139.49 169.88 146.67"/><polyline class="cls-2" points="88.43 146.67 88.43 146.67 98.61 144.79 108.79 135.4 118.97 116.42 129.16 120.26 139.34 134.07 149.52 131.27 159.7 135.09 169.88 146.67"/><polyline class="cls-2" points="88.43 146.67 88.43 146.67 98.61 147.28 108.79 137.19 118.97 117.23 129.16 112.48 139.34 120.9 149.52 127.05 159.7 132.43 169.88 146.67"/><polyline class="cls-2" points="88.43 146.67 88.43 146.67 97.48 145.36 106.53 132.59 115.58 115.78 124.63 109.4 133.68 118.25 142.73 131.56 151.78 127.82 160.83 137.62 169.88 146.67"/><polyline class="cls-2" points="88.43 146.67 88.43 146.67 98.61 145.19 108.79 136.37 118.97 116.96 129.16 114.46 139.34 129.51 149.52 126.07 159.7 132.58 169.88 146.67"/><polyline class="cls-2" points="88.43 146.67 88.43 146.67 98.61 147.1 108.79 135.34 118.97 115.31 129.16 111.74 139.34 121.25 149.52 122.64 159.7 130.53 169.88 146.67"/><polyline class="cls-2" points="88.43 146.67 88.43 146.67 98.61 145.24 108.79 132.62 118.97 112.59 129.16 112.53 139.34 119.97 149.52 122.48 159.7 131.27 169.88 146.67"/><polyline class="cls-2" points="88.43 146.67 88.43 146.67 98.61 146.29 108.79 133.45 118.97 113.5 129.16 110.36 139.34 120.47 149.52 122.79 159.7 130.84 169.88 146.67"/><polyline class="cls-2" points="88.43 146.67 88.43 146.67 97.48 147.85 106.53 139.62 115.58 121.56 124.63 110.63 133.68 121.97 142.73 134.27 151.78 127.47 160.83 133.6 169.88 146.67"/><polyline class="cls-2" points="88.43 146.67 88.43 146.67 98.61 146.09 108.79 136.17 118.97 118.29 129.16 123.23 139.34 115.78 149.52 126.94 159.7 132.09 169.88 146.67"/><polyline class="cls-3" points="88.43 146.67 88.43 146.67 98.61 145.84 108.79 137.06 118.97 118.46 129.16 115.97 139.34 130.59 149.52 125.9 159.7 133.37 169.88 146.67"/><polyline class="cls-3" points="88.43 146.67 88.43 146.67 98.61 147.49 108.79 138.46 118.97 119.91 129.16 116.74 139.34 131.48 149.52 125.92 159.7 132.86 169.88 146.67"/><polyline class="cls-3" points="88.43 146.67 88.43 146.67 98.61 146.19 108.79 140.39 118.97 123.96 129.16 128.73 139.34 113.42 149.52 120.06 159.7 131.35 169.88 146.67"/><polyline class="cls-3" points="88.43 146.67 88.43 146.67 98.61 146.29 108.79 134.52 118.97 114.65 129.16 111.87 139.34 121.77 149.52 123.49 159.7 131.35 169.88 146.67"/><polyline class="cls-3" points="88.43 146.67 88.43 146.67 98.61 146.06 108.79 137.62 118.97 119.43 129.16 116.71 139.34 131.39 149.52 126.03 159.7 133.38 169.88 146.67"/><polyline class="cls-3" points="88.43 146.67 88.43 146.67 98.61 145.38 108.79 136.54 118.97 117.74 129.16 116.07 139.34 130.59 149.52 127.05 159.7 133.89 169.88 146.67"/><polyline class="cls-3" points="88.43 146.67 88.43 146.67 98.61 145.33 108.79 136.72 118.97 118.14 129.16 116.36 139.34 129.44 149.52 124.73 159.7 133.08 169.88 146.67"/><polyline class="cls-4" points="88.43 146.67 88.43 146.67 95.22 148.65 102.01 136.74 108.79 118 115.58 105.69 122.37 92.71 129.16 72.3 135.94 73.4 142.73 86.9 149.52 106.8 156.31 115.48 163.09 130.61 169.88 146.67"/><polyline class="cls-3" points="88.43 146.67 88.43 146.67 98.61 145.48 108.79 136.15 118.97 117.85 129.16 112.65 139.34 127.6 149.52 125.46 159.7 133.06 169.88 146.67"/><polyline class="cls-3" points="88.43 146.67 88.43 146.67 98.61 145.77 108.79 136.75 118.97 118.38 129.16 113.21 139.34 127.57 149.52 124.45 159.7 132.32 169.88 146.67"/><polyline class="cls-3" points="88.43 146.67 88.43 146.67 98.61 152.11 108.79 141.31 118.97 123.73 129.16 123.05 139.34 136.92 149.52 137 159.7 132.06 169.88 146.67"/><polyline class="cls-3" points="88.43 146.67 88.43 146.67 98.61 145.91 108.79 136.57 118.97 117.94 129.16 111.99 139.34 126.07 149.52 125.14 159.7 132.41 169.88 146.67"/><polyline class="cls-3" points="88.43 146.67 88.43 146.67 98.61 146.2 108.79 136.42 118.97 117.54 129.16 113.46 139.34 127.8 149.52 125.23 159.7 132.1 169.88 146.67"/><polyline class="cls-3" points="88.43 146.67 88.43 146.67 98.61 145.96 108.79 136.32 118.97 117.8 129.16 115.56 139.34 130.5 149.52 125.02 159.7 132.66 169.88 146.67"/><polyline class="cls-5" points="88.43 146.67 88.43 146.67 96.57 147.48 104.72 140.09 112.87 120.78 121.01 117.38 129.16 106.24 137.3 101.62 145.44 105.42 153.59 123.58 161.73 130.53 169.88 146.67"/><polyline class="cls-3" points="88.43 146.67 88.43 146.67 98.61 145.82 108.79 136.13 118.97 118.19 129.16 114.27 139.34 128.55 149.52 125.04 159.7 132.57 169.88 146.67"/><polyline class="cls-3" points="88.43 146.67 88.43 146.67 98.61 145.47 108.79 136.21 118.97 118.22 129.16 114.44 139.34 128.27 149.52 124.51 159.7 132.31 169.88 146.67"/><polyline class="cls-3" points="88.43 146.67 88.43 146.67 98.61 144.88 108.79 135.86 118.97 117.91 129.16 113.97 139.34 128 149.52 124.21 159.7 131.87 169.88 146.67"/><polyline class="cls-3" points="88.43 146.67 88.43 146.67 98.61 145.71 108.79 133.29 118.97 113.44 129.16 111.14 139.34 120.7 149.52 122.95 159.7 131.03 169.88 146.67"/><polyline class="cls-3" points="88.43 146.67 88.43 146.67 98.61 146.57 108.79 134.39 118.97 114.56 129.16 111.7 139.34 121.42 149.52 122.47 159.7 131.69 169.88 146.67"/><polyline class="cls-3" points="88.43 146.67 88.43 146.67 98.61 145.55 108.79 133.37 118.97 113.47 129.16 110.94 139.34 120.36 149.52 122.6 159.7 131.31 169.88 146.67"/><polyline class="cls-5" points="88.43 146.67 88.43 146.67 96.57 147.9 104.72 137.46 112.87 121.17 121.01 114.64 129.16 95.12 137.3 100.92 145.44 116.84 153.59 132.95 161.73 132.78 169.88 146.67"/><polyline class="cls-6" points="88.43 146.67 88.43 146.67 100.06 149.01 111.7 136.59 123.34 122.58 134.97 120.3 146.61 136.94 158.25 133.72 169.88 146.67"/><polyline class="cls-6" points="88.43 146.67 88.43 146.67 100.06 148.91 111.7 135.8 123.34 123.66 134.97 120.62 146.61 136.88 158.25 133.51 169.88 146.67"/><polyline class="cls-7" points="88.43 146.67 88.43 146.67 97.48 147.04 106.53 134.25 115.58 125.82 124.63 114.3 133.68 110.3 142.73 105.68 151.78 123.49 160.83 133.07 169.88 146.67"/><polyline class="cls-3" points="88.43 146.67 88.43 146.67 98.61 145.84 108.79 140.12 118.97 124.95 129.16 128.24 139.34 110.13 149.52 117.8 159.7 130.91 169.88 146.67"/><polyline class="cls-3" points="88.43 146.67 88.43 146.67 98.61 145.73 108.79 137.2 118.97 118.18 129.16 119.38 139.34 133.64 149.52 126.28 159.7 133.04 169.88 146.67"/><polyline class="cls-3" points="88.43 146.67 88.43 146.67 98.61 145.62 108.79 134.51 118.97 117.34 129.16 114.54 139.34 127.01 149.52 123.85 159.7 132.27 169.88 146.67"/><polyline class="cls-7" points="88.43 146.67 88.43 146.67 97.48 147.09 106.53 135.46 115.58 116.92 124.63 111.25 133.68 118.09 142.73 129.78 151.78 126.52 160.83 135.26 169.88 146.67"/><polyline class="cls-3" points="88.43 146.67 88.43 146.67 98.61 144.69 108.79 130.44 118.97 122.12 129.16 128.83 139.34 116.63 149.52 124.37 159.7 134.8 169.88 146.67"/><polyline class="cls-3" points="88.43 146.67 88.43 146.67 98.61 146.66 108.79 131.99 118.97 125.09 129.16 131.04 139.34 118.25 149.52 121.84 159.7 132.75 169.88 146.67"/><polyline class="cls-4" points="88.43 146.67 88.43 146.67 95.22 148.61 102.01 136.13 108.79 118.22 115.58 106.52 122.37 94.59 129.16 74.1 135.94 75.41 142.73 88.7 149.52 108.54 156.31 115.93 163.09 131.58 169.88 146.67"/><polyline class="cls-5" points="88.43 146.67 88.43 146.67 96.57 146.34 104.72 133.23 112.87 118.41 121.01 117.47 129.16 98.82 137.3 92 145.44 101.68 153.59 119.74 161.73 130.52 169.88 146.67"/><polyline class="cls-5" points="88.43 146.67 88.43 146.67 96.57 146.83 104.72 133.96 112.87 118.67 121.01 117.8 129.16 99.07 137.3 91.36 145.44 101.3 153.59 119.59 161.73 130.07 169.88 146.67"/><polyline class="cls-5" points="88.43 146.67 88.43 146.67 96.57 145.1 104.72 133.57 112.87 119.42 121.01 117.45 129.16 99.15 137.3 92.18 145.44 101.41 153.59 118.97 161.73 130.56 169.88 146.67"/><polyline class="cls-3" points="88.43 146.67 88.43 146.67 98.61 145.59 108.79 133.63 118.97 116.68 129.16 117.39 139.34 117.98 149.52 124.2 159.7 132.18 169.88 146.67"/><polyline class="cls-3" points="88.43 146.67 88.43 146.67 98.61 146.28 108.79 136.54 118.97 117.56 129.16 114.49 139.34 129.08 149.52 124.96 159.7 131.84 169.88 146.67"/><polyline class="cls-7" points="88.43 146.67 88.43 146.67 97.48 146.57 106.53 133.94 115.58 116.23 124.63 110.43 133.68 119.97 142.73 131.65 151.78 127.23 160.83 136.13 169.88 146.67"/><polyline class="cls-3" points="88.43 146.67 88.43 146.67 98.61 148.17 108.79 134.56 118.97 117.95 129.16 117.59 139.34 130.97 149.52 127.37 159.7 136.65 169.88 146.67"/><polyline class="cls-7" points="88.43 146.67 88.43 146.67 97.48 148.04 106.53 134.07 115.58 118.06 124.63 110.62 133.68 117.98 142.73 130.91 151.78 126.59 160.83 136.94 169.88 146.67"/><polyline class="cls-3" points="88.43 146.67 88.43 146.67 98.61 150.17 108.79 137.28 118.97 119.04 129.16 116.65 139.34 130.1 149.52 126.67 159.7 137.87 169.88 146.67"/><polyline class="cls-3" points="88.43 146.67 88.43 146.67 98.61 146.39 108.79 136.4 118.97 117.95 129.16 115.21 139.34 129.82 149.52 125.63 159.7 133.13 169.88 146.67"/><polyline class="cls-3" points="88.43 146.67 88.43 146.67 98.61 145.21 108.79 138.2 118.97 120.94 129.16 127.78 139.34 110.76 149.52 118.44 159.7 132.35 169.88 146.67"/><polyline class="cls-7" points="88.43 146.67 88.43 146.67 97.48 145.87 106.53 138.42 115.58 119.45 124.63 105.73 133.68 116.25 142.73 130.47 151.78 127.5 160.83 130.69 169.88 146.67"/><polyline class="cls-7" points="88.43 146.67 88.43 146.67 97.48 143.71 106.53 136.03 115.58 116.38 124.63 104.42 133.68 118.8 142.73 127.68 151.78 124.9 160.83 131.66 169.88 146.67"/><polyline class="cls-7" points="88.43 146.67 88.43 146.67 97.48 145.35 106.53 134.44 115.58 120.67 124.63 129.58 133.68 113.53 142.73 116.64 151.78 136.84 160.83 134.03 169.88 146.67"/><polyline class="cls-7" points="88.43 146.67 88.43 146.67 97.48 147.68 106.53 136.5 115.58 122.16 124.63 127.09 133.68 110.57 142.73 117.38 151.78 135.94 160.83 132.72 169.88 146.67"/><polyline class="cls-7" points="88.43 146.67 88.43 146.67 97.48 145.99 106.53 135.35 115.58 121.02 124.63 126.84 133.68 110.15 142.73 117.35 151.78 135.74 160.83 132.66 169.88 146.67"/><polyline class="cls-3" points="88.43 146.67 88.43 146.67 98.61 146.51 108.79 130.13 118.97 117.22 129.16 120.27 139.34 135.75 149.52 130.12 159.7 138.82 169.88 146.67"/><polyline class="cls-3" points="88.43 146.67 88.43 146.67 98.61 145.82 108.79 137.03 118.97 118.44 129.16 115.32 139.34 129.68 149.52 125.69 159.7 133.14 169.88 146.67"/><polyline class="cls-7" points="88.43 146.67 88.43 146.67 97.48 146.11 106.53 136.29 115.58 123.15 124.63 108.87 133.68 99.83 142.73 105.8 151.78 125.78 160.83 131.39 169.88 146.67"/><polyline class="cls-7" points="88.43 146.67 88.43 146.67 97.48 146 106.53 135.82 115.58 122.85 124.63 108.89 133.68 99.86 142.73 105.13 151.78 125.46 160.83 131.64 169.88 146.67"/><polyline class="cls-7" points="88.43 146.67 88.43 146.67 97.48 147.61 106.53 134.75 115.58 118.25 124.63 110.9 133.68 118.6 142.73 131.16 151.78 127.75 160.83 137.97 169.88 146.67"/><polyline class="cls-7" points="88.43 146.67 88.43 146.67 97.48 146.48 106.53 133.81 115.58 116.95 124.63 110.99 133.68 118.65 142.73 131.38 151.78 127.72 160.83 137.97 169.88 146.67"/><polyline class="cls-7" points="88.43 146.67 88.43 146.67 97.48 147.28 106.53 134.85 115.58 117.78 124.63 110.3 133.68 118.14 142.73 130.77 151.78 127.34 160.83 137.2 169.88 146.67"/><polyline class="cls-4" points="88.43 146.67 88.43 146.67 95.22 148.28 102.01 136.64 108.79 117.9 115.58 105.36 122.37 92.49 129.16 71.9 135.94 73.49 142.73 87.33 149.52 107.38 156.31 115.18 163.09 130.43 169.88 146.67"/><polyline class="cls-4" points="88.43 146.67 88.43 146.67 95.22 145.82 102.01 133.73 108.79 114.32 115.58 104.37 122.37 92.16 129.16 71.93 135.94 71.88 142.73 85.4 149.52 105.84 156.31 114.56 163.09 129.44 169.88 146.67"/><polyline class="cls-7" points="88.43 146.67 88.43 146.67 97.48 147.24 106.53 134.72 115.58 117.48 124.63 110.83 133.68 118.7 142.73 131.82 151.78 127 160.83 136.71 169.88 146.67"/><polyline class="cls-6" points="88.43 146.67 88.43 146.67 100.06 153.33 111.7 145.91 123.34 136.35 134.97 142.87 146.61 132.77 158.25 135.13 169.88 146.67"/><polyline class="cls-3" points="88.43 146.67 88.43 146.67 98.61 144.74 108.79 133.29 118.97 115.86 129.16 122.59 139.34 115.32 149.52 126.53 159.7 131.37 169.88 146.67"/><polyline class="cls-5" points="88.43 146.67 88.43 146.67 96.57 146.39 104.72 134 112.87 119.62 121.01 118.52 129.16 99.78 137.3 91.91 145.44 101.01 153.59 118.7 161.73 130.29 169.88 146.67"/><polyline class="cls-5" points="88.43 146.67 88.43 146.67 96.57 146.39 104.72 133.83 112.87 119.23 121.01 118.31 129.16 99.81 137.3 91.21 145.44 100.6 153.59 118.64 161.73 130.66 169.88 146.67"/><polyline class="cls-5" points="88.43 146.67 88.43 146.67 96.57 146.89 104.72 133.43 112.87 118.19 121.01 117.46 129.16 98.55 137.3 91.94 145.44 101.99 153.59 119.51 161.73 130.8 169.88 146.67"/><polyline class="cls-7" points="88.43 146.67 88.43 146.67 97.48 149.33 106.53 136.85 115.58 119.2 124.63 112.39 133.68 118.94 142.73 131.09 151.78 127 160.83 137.12 169.88 146.67"/><polyline class="cls-3" points="88.43 146.67 88.43 146.67 98.61 145.32 108.79 140.17 118.97 123.78 129.16 130.82 139.34 113.89 149.52 120.46 159.7 130.16 169.88 146.67"/><polyline class="cls-7" points="88.43 146.67 88.43 146.67 97.48 146.2 106.53 133.83 115.58 115.14 124.63 106.91 133.68 114.64 142.73 127.59 151.78 125.21 160.83 135.81 169.88 146.67"/><polyline class="cls-3" points="88.43 146.67 88.43 146.67 98.61 146.83 108.79 138.38 118.97 120.96 129.16 117.82 139.34 125.68 149.52 129.34 159.7 131.28 169.88 146.67"/><polyline class="cls-3" points="88.43 146.67 88.43 146.67 98.61 148.06 108.79 137.67 118.97 119.7 129.16 116.23 139.34 126.34 149.52 132.19 159.7 132.61 169.88 146.67"/><polyline class="cls-7" points="88.43 146.67 88.43 146.67 97.48 145.42 106.53 136.49 115.58 118.66 124.63 106.44 133.68 118.25 142.73 127.85 151.78 122.36 160.83 130.92 169.88 146.67"/><polyline class="cls-7" points="88.43 146.67 88.43 146.67 97.48 145.31 106.53 137.46 115.58 119.38 124.63 106.24 133.68 118.92 142.73 131.99 151.78 125.84 160.83 130.66 169.88 146.67"/><polyline class="cls-7" points="88.43 146.67 88.43 146.67 97.48 144.79 106.53 135.81 115.58 118.09 124.63 105.26 133.68 116.92 142.73 127.85 151.78 123.05 160.83 131.62 169.88 146.67"/><polyline class="cls-7" points="88.43 146.67 88.43 146.67 97.48 147.34 106.53 137.8 115.58 118.13 124.63 104.71 133.68 116.78 142.73 129.74 151.78 125.06 160.83 131.3 169.88 146.67"/><polyline class="cls-7" points="88.43 146.67 88.43 146.67 97.48 145.9 106.53 137.44 115.58 118.65 124.63 106.27 133.68 118.25 142.73 128.52 151.78 122.64 160.83 131.32 169.88 146.67"/><polyline class="cls-7" points="88.43 146.67 88.43 146.67 97.48 145.63 106.53 137.21 115.58 118.9 124.63 106.14 133.68 117.52 142.73 127.78 151.78 122.81 160.83 131.19 169.88 146.67"/><polyline class="cls-3" points="88.43 146.67 88.43 146.67 98.61 149.41 108.79 137.98 118.97 120.1 129.16 122.57 139.34 133.88 149.52 131.26 159.7 139.49 169.88 146.67"/><polyline class="cls-3" points="88.43 146.67 88.43 146.67 98.61 144.79 108.79 135.4 118.97 116.42 129.16 120.26 139.34 134.07 149.52 131.27 159.7 135.09 169.88 146.67"/><polyline class="cls-3" points="88.43 146.67 88.43 146.67 98.61 147.28 108.79 137.19 118.97 117.23 129.16 112.48 139.34 120.9 149.52 127.05 159.7 132.43 169.88 146.67"/><polyline class="cls-7" points="88.43 146.67 88.43 146.67 97.48 145.36 106.53 132.59 115.58 115.78 124.63 109.4 133.68 118.25 142.73 131.56 151.78 127.82 160.83 137.62 169.88 146.67"/><polyline class="cls-3" points="88.43 146.67 88.43 146.67 98.61 145.19 108.79 136.37 118.97 116.96 129.16 114.46 139.34 129.51 149.52 126.07 159.7 132.58 169.88 146.67"/><polyline class="cls-3" points="88.43 146.67 88.43 146.67 98.61 147.1 108.79 135.34 118.97 115.31 129.16 111.74 139.34 121.25 149.52 122.64 159.7 130.53 169.88 146.67"/><polyline class="cls-3" points="88.43 146.67 88.43 146.67 98.61 145.24 108.79 132.62 118.97 112.59 129.16 112.53 139.34 119.97 149.52 122.48 159.7 131.27 169.88 146.67"/><polyline class="cls-3" points="88.43 146.67 88.43 146.67 98.61 146.29 108.79 133.45 118.97 113.5 129.16 110.36 139.34 120.47 149.52 122.79 159.7 130.84 169.88 146.67"/><polyline class="cls-7" points="88.43 146.67 88.43 146.67 97.48 147.85 106.53 139.62 115.58 121.56 124.63 110.63 133.68 121.97 142.73 134.27 151.78 127.47 160.83 133.6 169.88 146.67"/><polyline class="cls-3" points="88.43 146.67 88.43 146.67 98.61 146.09 108.79 136.17 118.97 118.29 129.16 123.23 139.34 115.78 149.52 126.94 159.7 132.09 169.88 146.67"/><polyline class="cls-2" points="131.3 54.89 125.87 65.81 120.44 80.27 115.01 92.63 109.58 105.7 104.15 115.48 98.72 130.38 93.29 126.05 87.86 121.6 82.43 122.34 77 107.2 71.57 101.52 66.14 86.58 60.71 78.86 55.28 67.57 49.85 54.89"/><polyline class="cls-2" points="131.3 54.89 125.48 66.51 119.66 79.78 113.85 92.11 108.03 106.68 102.21 115.55 96.39 129.77 90.57 126.3 84.76 120.71 78.94 105.74 73.12 103.06 67.3 88.73 61.48 78.97 55.67 68.12 49.85 54.89"/><polyline class="cls-2" points="131.3 54.89 124.51 66.5 117.72 78.27 110.94 90.54 104.15 103.84 97.36 111.67 90.57 108.92 83.79 111.13 77 104.09 70.21 89.63 63.42 79.04 56.64 67.09 49.85 54.89"/><polyline class="cls-2" points="131.3 54.89 124.51 65.61 117.72 78.48 110.94 91.11 104.15 101.84 97.36 112.4 90.57 109.4 83.79 108.71 77 104.89 70.21 91.03 63.42 79.61 56.64 67.47 49.85 54.89"/><polyline class="cls-2" points="131.3 54.89 125.87 66.53 120.44 80.72 115.01 92.79 109.58 105.82 104.15 114.82 98.72 129.77 93.29 125.8 87.86 120.61 82.43 121.4 77 106.34 71.57 102.07 66.14 86.93 60.71 78.96 55.28 67.57 49.85 54.89"/><polyline class="cls-2" points="131.3 54.89 125.87 66.53 120.44 80.25 115.01 92.02 109.58 105.7 104.15 114.07 98.72 128.94 93.29 126.38 87.86 124.48 82.43 113.09 77 107.28 71.57 104.21 66.14 89.15 60.71 79.26 55.28 68.01 49.85 54.89"/><polyline class="cls-2" points="131.3 54.89 125.87 65.69 120.44 79.85 115.01 92.22 109.58 105.56 104.15 114.28 98.72 129.26 93.29 125.71 87.86 125.81 82.43 115.77 77 104.09 71.57 103.22 66.14 88 60.71 79.01 55.28 67.52 49.85 54.89"/><polyline class="cls-2" points="131.3 54.89 125.03 65.9 118.77 79.86 112.5 85.24 106.24 96.93 99.97 102.39 93.71 93.7 87.44 79.53 81.18 75.45 74.91 77.63 68.64 74.63 62.38 63.23 56.11 68.32 49.85 54.89"/><polyline class="cls-2" points="131.3 54.89 125.03 66.06 118.77 79.05 112.5 91.37 106.24 106.05 99.97 116.62 93.71 122.91 87.44 119.71 81.18 109.17 74.91 103.94 68.64 89.4 62.38 78.69 56.11 67.9 49.85 54.89"/><polyline class="cls-2" points="131.3 54.89 125.03 66.03 118.77 78.96 112.5 91.18 106.24 105.82 99.97 116.42 93.71 122.27 87.44 118.79 81.18 108.6 74.91 103.96 68.64 89.3 62.38 78.31 56.11 67.78 49.85 54.89"/><polyline class="cls-2" points="131.3 54.89 123.89 66.2 116.49 78.24 109.09 90.82 101.68 103.49 94.28 111.35 86.87 105.02 79.47 102.78 72.06 89.92 64.66 79.25 57.25 67.39 49.85 54.89"/><polyline class="cls-2" points="131.3 54.89 125.03 66.19 118.77 79.28 112.5 91.6 106.24 106.1 99.97 116.58 93.71 123.11 87.44 120.29 81.18 110.4 74.91 104.57 68.64 90.36 62.38 79.61 56.11 68.06 49.85 54.89"/><polyline class="cls-2" points="131.3 54.89 125.03 65.96 118.77 79.41 112.5 91.52 106.24 105.7 99.97 115.62 93.71 122.71 87.44 119.78 81.18 107.83 74.91 103.11 68.64 88.69 62.38 77.75 56.11 67.65 49.85 54.89"/><polyline class="cls-2" points="131.3 54.89 125.87 65.31 120.44 79.17 115.01 90.65 109.58 105.48 104.15 113.61 98.72 128.03 93.29 124.6 87.86 122.94 82.43 111.2 77 101.21 71.57 103.03 66.14 87.98 60.71 78.91 55.28 67.1 49.85 54.89"/><polyline class="cls-2" points="131.3 54.89 125.03 65.59 118.77 77.38 112.5 90.23 106.24 103.66 99.97 111.28 93.71 116.81 87.44 116.09 81.18 111.42 74.91 99.99 68.64 85.6 62.38 78.51 56.11 66.74 49.85 54.89"/><polyline class="cls-2" points="131.3 54.89 125.03 66.19 118.77 79.17 112.5 91.49 106.24 105.61 99.97 116.06 93.71 123.33 87.44 119.43 81.18 109.05 74.91 103.93 68.64 89.66 62.38 78.75 56.11 68.21 49.85 54.89"/><polyline class="cls-2" points="131.3 54.89 125.03 65.92 118.77 79.28 112.5 91.74 106.24 106.17 99.97 116.56 93.71 124.07 87.44 120.11 81.18 109.67 74.91 104.55 68.64 90.33 62.38 79.31 56.11 68.59 49.85 54.89"/><polyline class="cls-2" points="131.3 54.89 125.03 66.02 118.77 79.33 112.5 91.6 106.24 106.13 99.97 116.89 93.71 124.11 87.44 119.85 81.18 108.72 74.91 104.31 68.64 89.76 62.38 79.14 56.11 68.38 49.85 54.89"/><polyline class="cls-2" points="131.3 54.89 124.51 65.62 117.72 78.97 110.94 91.25 104.15 102.5 97.36 112.61 90.57 110.35 83.79 109.96 77 105.43 70.21 91.44 63.42 79.76 56.64 67.41 49.85 54.89"/><polyline class="cls-2" points="131.3 54.89 124.51 65.93 117.72 78.69 110.94 90.89 104.15 102.23 97.36 112.25 90.57 109.79 83.79 109.12 77 105.17 70.21 90.92 63.42 79.41 56.64 67.3 49.85 54.89"/><polyline class="cls-2" points="131.3 54.89 124.51 65.92 117.72 78.48 110.94 91.41 104.15 102.5 97.36 113.35 90.57 110.73 83.79 110.1 77 105.69 70.21 91.29 63.42 79.85 56.64 67.55 49.85 54.89"/><polyline class="cls-2" points="131.3 54.89 123.16 66.45 115.01 79.18 106.86 91.21 98.72 98.33 90.57 103.52 82.43 99.81 74.28 87.41 66.14 77.35 58 67.3 49.85 54.89"/><polyline class="cls-2" points="131.3 54.89 125.87 65.42 120.44 78.89 115.01 91.08 109.58 104.67 104.15 114.5 98.72 128.82 93.29 125.66 87.86 120.71 82.43 119.36 77 108.04 71.57 102.13 66.14 86.89 60.71 78.36 55.28 66.73 49.85 54.89"/><polyline class="cls-2" points="131.3 54.89 125.87 65.2 120.44 78.51 115.01 91.09 109.58 104.19 104.15 113.95 98.72 128.43 93.29 126.05 87.86 122.97 82.43 112.52 77 105.83 71.57 102 66.14 86.86 60.71 79.11 55.28 67.68 49.85 54.89"/><polyline class="cls-2" points="131.3 54.89 125.48 65.22 119.66 78.61 113.85 91.02 108.03 99.62 102.21 113.89 96.39 122.22 90.57 114.35 84.76 119.25 78.94 109.56 73.12 99.36 67.3 87.82 61.48 78.07 55.67 67.78 49.85 54.89"/><polyline class="cls-2" points="131.3 54.89 126.51 65.13 121.72 76.48 116.93 89.61 112.14 102.41 107.34 111.43 102.55 111.32 97.76 125.33 92.97 129.91 88.18 127.91 83.39 121.56 78.6 108.15 73.8 107.9 69.01 104.87 64.22 91.09 59.43 79.56 54.64 67.08 49.85 54.89"/><polyline class="cls-2" points="131.3 54.89 125.48 65.51 119.66 77.94 113.85 89.93 108.03 100.37 102.21 113.75 96.39 117.07 90.57 125.36 84.76 120.79 78.94 112.4 73.12 100.74 67.3 86.24 61.48 76.9 55.67 66.31 49.85 54.89"/><polyline class="cls-2" points="131.3 54.89 125.87 65.39 120.44 78.92 115.01 90.8 109.58 105.28 104.15 113.9 98.72 128.36 93.29 124.5 87.86 123.66 82.43 111.3 77 101.51 71.57 101.57 66.14 86.34 60.71 78.6 55.28 67.11 49.85 54.89"/><polyline class="cls-2" points="131.3 54.89 125.48 66.01 119.66 79.41 113.85 92.06 108.03 102.85 102.21 113.08 96.39 123.97 90.57 123.87 84.76 121.95 78.94 112.92 73.12 103.24 67.3 88.68 61.48 79.38 55.67 67.7 49.85 54.89"/><polyline class="cls-2" points="131.3 54.89 124.51 66.23 117.72 78.14 110.94 90.64 104.15 103.08 97.36 111.46 90.57 110.06 83.79 111.02 77 104.27 70.21 89.72 63.42 79.07 56.64 67.5 49.85 54.89"/><polyline class="cls-2" points="131.3 54.89 124.51 66.19 117.72 77.76 110.94 89.91 104.15 102.31 97.36 111.4 90.57 110.24 83.79 111.08 77 103.64 70.21 88.98 63.42 78.38 56.64 67.03 49.85 54.89"/><polyline class="cls-2" points="131.3 54.89 125.03 66.6 118.77 79.89 112.5 85.89 106.24 97.19 99.97 102.16 93.71 94.34 87.44 80.06 81.18 75.02 74.91 74.09 68.64 74.5 62.38 63.18 56.11 68.39 49.85 54.89"/><polyline class="cls-2" points="131.3 54.89 123.89 65.58 116.49 78.43 109.09 90.45 101.68 98.09 94.28 113.48 86.87 112.08 79.47 104.79 72.06 89.81 64.66 78.98 57.25 68.04 49.85 54.89"/><polyline class="cls-2" points="131.3 54.89 123.89 65.71 116.49 78.42 109.09 90.6 101.68 98.64 94.28 114.1 86.87 112.43 79.47 105.44 72.06 90.51 64.66 79.33 57.25 68.13 49.85 54.89"/><polyline class="cls-2" points="131.3 54.89 123.89 65.73 116.49 77.61 109.09 89.24 101.68 100.11 94.28 109.05 86.87 110.52 79.47 102.71 72.06 87.77 64.66 77.66 57.25 67.34 49.85 54.89"/><polyline class="cls-2" points="131.3 54.89 124.51 65.51 117.72 79.76 110.94 91.01 104.15 90.51 97.36 101.47 90.57 111.43 83.79 108.14 77 103.93 70.21 89.06 63.42 77.82 56.64 67.49 49.85 54.89"/><polyline class="cls-2" points="131.3 54.89 125.87 65.82 120.44 79.61 115.01 92.2 109.58 105.76 104.15 113.73 98.72 128.3 93.29 125.15 87.86 120.18 82.43 115.88 77 105.78 71.57 102.64 66.14 87.48 60.71 78.69 55.28 67.22 49.85 54.89"/><polyline class="cls-2" points="131.3 54.89 124.51 65.64 117.72 78.83 110.94 91.08 104.15 102.18 97.36 112.9 90.57 113.72 83.79 111.28 77 104.79 70.21 90.48 63.42 79.54 56.64 67.36 49.85 54.89"/><polyline class="cls-2" points="131.3 54.89 124.51 65.56 117.72 78.27 110.94 90.36 104.15 101.53 97.36 112.51 90.57 113.25 83.79 110.97 77 104.29 70.21 89.51 63.42 79.26 56.64 67.73 49.85 54.89"/><polyline class="cls-2" points="131.3 54.89 125.03 65.99 118.77 77.44 112.5 91.01 106.24 101.99 99.97 115.64 93.71 124.55 87.44 126.31 81.18 114.48 74.91 104.64 68.64 89.4 62.38 79.46 56.11 67.25 49.85 54.89"/><polyline class="cls-2" points="131.3 54.89 125.03 65.73 118.77 77.3 112.5 90.72 106.24 101.98 99.97 114.94 93.71 124.52 87.44 125.12 81.18 113.93 74.91 104.88 68.64 89.99 62.38 79.43 56.11 67.2 49.85 54.89"/><polyline class="cls-2" points="131.3 54.89 125.87 65.51 120.44 79.72 115.01 92.08 109.58 105.8 104.15 114.92 98.72 129.56 93.29 126.13 87.86 120.6 82.43 114.23 77 106.11 71.57 102.95 66.14 87.72 60.71 78.73 55.28 67.42 49.85 54.89"/><polyline class="cls-2" points="131.3 54.89 124.51 66.06 117.72 78.25 110.94 89.28 104.15 103.86 97.36 113.52 90.57 114 83.79 104.22 77 103.5 70.21 92.2 63.42 80.72 56.64 67.59 49.85 54.89"/><polyline class="cls-2" points="131.3 54.89 125.87 65.8 120.44 77.26 115.01 89.42 109.58 103.86 104.15 117.39 98.72 118.28 93.29 103.92 87.86 105.46 82.43 117.69 77 107.39 71.57 97.08 66.14 87.69 60.71 78.29 55.28 66.91 49.85 54.89"/><polyline class="cls-2" points="131.3 54.89 125.87 65.74 120.44 76.12 115.01 89.02 109.58 103.19 104.15 116.55 98.72 117.62 93.29 103.61 87.86 106.2 82.43 118.28 77 108.31 71.57 98.46 66.14 88.07 60.71 78.81 55.28 66.98 49.85 54.89"/><polyline class="cls-2" points="131.3 54.89 125.03 66.03 118.77 79.01 112.5 91.51 106.24 105.38 99.97 117.79 93.71 126.22 87.44 124.52 81.18 112.46 74.91 104.56 68.64 89.45 62.38 78.28 56.11 67.5 49.85 54.89"/><polyline class="cls-2" points="131.3 54.89 124.51 66.25 117.72 79.67 110.94 91.67 104.15 102.71 97.36 117.68 90.57 121.75 83.79 110.44 77 103.63 70.21 90.34 63.42 78.77 56.64 67.73 49.85 54.89"/><polyline class="cls-2" points="131.3 54.89 124.51 65.92 117.72 79.07 110.94 90.95 104.15 101.43 97.36 116.31 90.57 121.1 83.79 111.44 77 103.46 70.21 90.46 63.42 78.63 56.64 67.73 49.85 54.89"/><polyline class="cls-2" points="131.3 54.89 125.03 66.51 118.77 79.05 112.5 91.59 106.24 104.96 99.97 117.05 93.71 126.62 87.44 128.71 81.18 116.98 74.91 107.09 68.64 91.56 62.38 80.74 56.11 67.45 49.85 54.89"/><polyline class="cls-2" points="131.3 54.89 125.87 65.58 120.44 78.63 115.01 91.67 109.58 104.78 104.15 114.95 98.72 129.18 93.29 126.6 87.86 122.11 82.43 122.7 77 107.88 71.57 102.17 66.14 87.32 60.71 78.96 55.28 67.36 49.85 54.89"/><polyline class="cls-2" points="131.3 54.89 125.03 66.32 118.77 78.15 112.5 90.37 106.24 103.73 99.97 111.64 93.71 112.1 87.44 116.34 81.18 107.08 74.91 97.89 68.64 88.36 62.38 78.86 56.11 66.46 49.85 54.89"/><polyline class="cls-2" points="131.3 54.89 125.03 66.19 118.77 78.03 112.5 90.64 106.24 103.85 99.97 111.96 93.71 112.9 87.44 117.15 81.18 108.09 74.91 99.07 68.64 89.09 62.38 79.89 56.11 66.89 49.85 54.89"/><polyline class="cls-2" points="131.3 54.89 125.48 66.62 119.66 80.33 113.85 93.6 108.03 106.17 102.21 117.34 96.39 125.91 90.57 122.56 84.76 118.16 78.94 107.47 73.12 102.17 67.3 88.22 61.48 80.45 55.67 66.8 49.85 54.89"/><polyline class="cls-2" points="131.3 54.89 125.48 66.81 119.66 80.78 113.85 93.92 108.03 106.16 102.21 116.68 96.39 125.67 90.57 123.58 84.76 118.41 78.94 107.2 73.12 101.9 67.3 88.25 61.48 80.17 55.67 66.77 49.85 54.89"/><polyline class="cls-2" points="131.3 54.89 125.48 66.65 119.66 80.53 113.85 93.8 108.03 106.44 102.21 116.55 96.39 125.9 90.57 122.5 84.76 118.49 78.94 107.39 73.12 102.27 67.3 88.15 61.48 80.95 55.67 67.25 49.85 54.89"/><polyline class="cls-2" points="131.3 54.89 123.16 67.13 115.01 80.05 106.86 88.52 98.72 98.31 90.57 107.84 82.43 95.58 74.28 82.55 66.14 76.96 58 67.86 49.85 54.89"/><polyline class="cls-2" points="131.3 54.89 125.03 66.12 118.77 78.69 112.5 92.19 106.24 105.33 99.97 117.13 93.71 128.71 87.44 120.83 81.18 113.48 74.91 104.18 68.64 90.65 62.38 80.51 56.11 67.48 49.85 54.89"/><polyline class="cls-2" points="131.3 54.89 124.51 65.41 117.72 78.19 110.94 90.89 104.15 102.55 97.36 113.06 90.57 113.38 83.79 111.95 77 104.96 70.21 90.16 63.42 79.64 56.64 67.62 49.85 54.89"/><polyline class="cls-2" points="131.3 54.89 124.51 66.22 117.72 78.19 110.94 91.5 104.15 101.91 97.36 114.34 90.57 110.28 83.79 104.16 77 101.88 70.21 88.53 63.42 77.68 56.64 67.06 49.85 54.89"/><polyline class="cls-2" points="131.3 54.89 123.89 66.3 116.49 79.17 109.09 91.38 101.68 103.15 94.28 116.02 86.87 111.82 79.47 105.41 72.06 90.73 64.66 79.93 57.25 68.04 49.85 54.89"/><polyline class="cls-2" points="131.3 54.89 123.89 66.05 116.49 78.9 109.09 91.26 101.68 98.44 94.28 113.79 86.87 112.2 79.47 104.9 72.06 89.52 64.66 79.26 57.25 68.09 49.85 54.89"/><polyline class="cls-2" points="131.3 54.89 123.89 65.93 116.49 78.54 109.09 91.09 101.68 98.1 94.28 113.39 86.87 113.36 79.47 105.75 72.06 91.07 64.66 79.84 57.25 68.26 49.85 54.89"/><polyline class="cls-2" points="131.3 54.89 123.89 65.85 116.49 78.67 109.09 90.78 101.68 98.05 94.28 113.49 86.87 111.37 79.47 104.88 72.06 89.76 64.66 78.65 57.25 67.77 49.85 54.89"/><polyline class="cls-2" points="131.3 54.89 125.48 66.44 119.66 79.45 113.85 92.16 108.03 103.46 102.21 114.06 96.39 124.22 90.57 124.11 84.76 119.52 78.94 111.15 73.12 102.73 67.3 88.96 61.48 78.26 55.67 67.34 49.85 54.89"/><polyline class="cls-2" points="131.3 54.89 125.48 65.78 119.66 78.41 113.85 91.35 108.03 100.51 102.21 112.78 96.39 109.41 90.57 118.72 84.76 114.85 78.94 113.95 73.12 103.82 67.3 88.92 61.48 79.72 55.67 67.52 49.85 54.89"/><polyline class="cls-2" points="131.3 54.89 123.89 66.69 116.49 79.38 109.09 92.39 101.68 103.37 94.28 114.02 86.87 114.67 79.47 104.44 72.06 89.39 64.66 79.61 57.25 68.13 49.85 54.89"/><polyline class="cls-2" points="131.3 54.89 124.51 65.99 117.72 76.96 110.94 90.86 104.15 102.34 97.36 112.57 90.57 109.73 83.79 115.64 77 105.61 70.21 90.81 63.42 79.05 56.64 67.45 49.85 54.89"/><polyline class="cls-2" points="131.3 54.89 124.51 65.82 117.72 77.85 110.94 91.49 104.15 103.67 97.36 113.75 90.57 108.02 83.79 115.35 77 106.84 70.21 92.29 63.42 79.98 56.64 67.9 49.85 54.89"/><polyline class="cls-2" points="131.3 54.89 125.87 65.48 120.44 77 115.01 89.59 109.58 103.88 104.15 117.12 98.72 118.01 93.29 103.72 87.86 105.99 82.43 118.48 77 108.64 71.57 98.76 66.14 88.5 60.71 80.3 55.28 67.34 49.85 54.89"/><polyline class="cls-2" points="131.3 54.89 125.87 65.63 120.44 77.86 115.01 90.2 109.58 104.49 104.15 117.46 98.72 117.88 93.29 103.77 87.86 106.14 82.43 118.58 77 108.94 71.57 98.67 66.14 88.47 60.71 80.34 55.28 67.6 49.85 54.89"/><polyline class="cls-2" points="131.3 54.89 125.87 65.86 120.44 77.36 115.01 89.91 109.58 104.04 104.15 117.43 98.72 118.15 93.29 103.77 87.86 106.65 82.43 118.75 77 108.47 71.57 98.71 66.14 88.72 60.71 79.92 55.28 67.53 49.85 54.89"/><polyline class="cls-2" points="131.3 54.89 125.87 65.66 120.44 77.3 115.01 89.78 109.58 104.32 104.15 117.49 98.72 118.62 93.29 104.06 87.86 106.02 82.43 118.36 77 108.41 71.57 98.3 66.14 88.26 60.71 80.03 55.28 67.12 49.85 54.89"/><polyline class="cls-2" points="131.3 54.89 125.87 65.68 120.44 77.23 115.01 89.63 109.58 103.81 104.15 117.08 98.72 117.77 93.29 103.32 87.86 105.53 82.43 118.14 77 107.84 71.57 98.03 66.14 88.15 60.71 79.94 55.28 67.47 49.85 54.89"/><polyline class="cls-2" points="131.3 54.89 125.87 65.58 120.44 77.09 115.01 89.6 109.58 103.92 104.15 117.17 98.72 117.73 93.29 103.48 87.86 105.78 82.43 118.11 77 108.15 71.57 98.25 66.14 88.13 60.71 79.91 55.28 67.26 49.85 54.89"/><polyline class="cls-2" points="131.3 54.89 125.03 65 118.77 77.74 112.5 91.43 106.24 103.6 99.97 113.5 93.71 114.98 87.44 106.94 81.18 109.97 74.91 106.52 68.64 93.38 62.38 80.58 56.11 68.39 49.85 54.89"/><polyline class="cls-2" points="131.3 54.89 125.87 64.9 120.44 76.9 115.01 90.15 109.58 100.88 104.15 112.09 98.72 116.64 93.29 127.64 87.86 132.68 82.43 127.53 77 113.86 71.57 105.48 66.14 91.25 60.71 80.04 55.28 68.14 49.85 54.89"/><polyline class="cls-2" points="131.3 54.89 124.51 67.5 117.72 78.04 110.94 91.79 104.15 105.19 97.36 115.4 90.57 114.22 83.79 113.32 77 104.41 70.21 91.22 63.42 79.7 56.64 67.77 49.85 54.89"/><polyline class="cls-2" points="131.3 54.89 125.87 66.26 120.44 79.32 115.01 91.47 109.58 105.76 104.15 116.51 98.72 122.49 93.29 136.34 87.86 129.37 82.43 121.97 77 108.76 71.57 100.94 66.14 86.11 60.71 77.24 55.28 67.83 49.85 54.89"/><polyline class="cls-2" points="131.3 54.89 125.03 65.79 118.77 78.17 112.5 90.66 106.24 101.73 99.97 113.65 93.71 108.49 87.44 115.05 81.18 109.65 74.91 104.68 68.64 90.21 62.38 79.5 56.11 67.35 49.85 54.89"/><polyline class="cls-2" points="131.3 54.89 124.51 65.87 117.72 78.33 110.94 91.01 104.15 101.71 97.36 112.18 90.57 109.05 83.79 108.56 77 104.29 70.21 90.6 63.42 79.6 56.64 67.38 49.85 54.89"/><polyline class="cls-2" points="131.3 54.89 124.51 65.62 117.72 78.38 110.94 90.81 104.15 102.28 97.36 112.32 90.57 109.1 83.79 108.36 77 104.3 70.21 90.52 63.42 79.27 56.64 67.47 49.85 54.89"/><polyline class="cls-2" points="131.3 54.89 124.51 65.86 117.72 78.71 110.94 91.22 104.15 101.85 97.36 111.33 90.57 110.33 83.79 108.88 77 104.28 70.21 90.56 63.42 79.52 56.64 67.2 49.85 54.89"/><polyline class="cls-2" points="131.3 54.89 125.87 65.91 120.44 77.8 115.01 90.47 109.58 104.75 104.15 118.31 98.72 118.13 93.29 104.09 87.86 106.63 82.43 118.33 77 107.91 71.57 98.22 66.14 87.72 60.71 80 55.28 67.68 49.85 54.89"/><polyline class="cls-2" points="131.3 54.89 123.89 66.07 116.49 79.07 109.09 91.59 101.68 102.75 94.28 117.2 86.87 111.83 79.47 105.52 72.06 90.88 64.66 79.94 57.25 67.52 49.85 54.89"/><polyline class="cls-8" points="131.3 54.89 125.87 65.81 120.44 80.27 115.01 92.63 109.58 105.7 104.15 115.48 98.72 130.38 93.29 126.05 87.86 121.6 82.43 122.34 77 107.2 71.57 101.52 66.14 86.58 60.71 78.86 55.28 67.57 49.85 54.89"/><polyline class="cls-9" points="131.3 54.89 125.48 66.51 119.66 79.78 113.85 92.11 108.03 106.68 102.21 115.55 96.39 129.77 90.57 126.3 84.76 120.71 78.94 105.74 73.12 103.06 67.3 88.73 61.48 78.97 55.67 68.12 49.85 54.89"/><polyline class="cls-10" points="131.3 54.89 124.51 66.5 117.72 78.27 110.94 90.54 104.15 103.84 97.36 111.67 90.57 108.92 83.79 111.13 77 104.09 70.21 89.63 63.42 79.04 56.64 67.09 49.85 54.89"/><polyline class="cls-10" points="131.3 54.89 124.51 65.61 117.72 78.48 110.94 91.11 104.15 101.84 97.36 112.4 90.57 109.4 83.79 108.71 77 104.89 70.21 91.03 63.42 79.61 56.64 67.47 49.85 54.89"/><polyline class="cls-8" points="131.3 54.89 125.87 66.53 120.44 80.72 115.01 92.79 109.58 105.82 104.15 114.82 98.72 129.77 93.29 125.8 87.86 120.61 82.43 121.4 77 106.34 71.57 102.07 66.14 86.93 60.71 78.96 55.28 67.57 49.85 54.89"/><polyline class="cls-8" points="131.3 54.89 125.87 66.53 120.44 80.25 115.01 92.02 109.58 105.7 104.15 114.07 98.72 128.94 93.29 126.38 87.86 124.48 82.43 113.09 77 107.28 71.57 104.21 66.14 89.15 60.71 79.26 55.28 68.01 49.85 54.89"/><polyline class="cls-8" points="131.3 54.89 125.87 65.69 120.44 79.85 115.01 92.22 109.58 105.56 104.15 114.28 98.72 129.26 93.29 125.71 87.86 125.81 82.43 115.77 77 104.09 71.57 103.22 66.14 88 60.71 79.01 55.28 67.52 49.85 54.89"/><polyline class="cls-7" points="131.3 54.89 125.03 65.9 118.77 79.86 112.5 85.24 106.24 96.93 99.97 102.39 93.71 93.7 87.44 79.53 81.18 75.45 74.91 77.63 68.64 74.63 62.38 63.23 56.11 68.32 49.85 54.89"/><polyline class="cls-7" points="131.3 54.89 125.03 66.06 118.77 79.05 112.5 91.37 106.24 106.05 99.97 116.62 93.71 122.91 87.44 119.71 81.18 109.17 74.91 103.94 68.64 89.4 62.38 78.69 56.11 67.9 49.85 54.89"/><polyline class="cls-7" points="131.3 54.89 125.03 66.03 118.77 78.96 112.5 91.18 106.24 105.82 99.97 116.42 93.71 122.27 87.44 118.79 81.18 108.6 74.91 103.96 68.64 89.3 62.38 78.31 56.11 67.78 49.85 54.89"/><polyline class="cls-11" points="131.3 54.89 123.89 66.2 116.49 78.24 109.09 90.82 101.68 103.49 94.28 111.35 86.87 105.02 79.47 102.78 72.06 89.92 64.66 79.25 57.25 67.39 49.85 54.89"/><polyline class="cls-7" points="131.3 54.89 125.03 66.19 118.77 79.28 112.5 91.6 106.24 106.1 99.97 116.58 93.71 123.11 87.44 120.29 81.18 110.4 74.91 104.57 68.64 90.36 62.38 79.61 56.11 68.06 49.85 54.89"/><polyline class="cls-7" points="131.3 54.89 125.03 65.96 118.77 79.41 112.5 91.52 106.24 105.7 99.97 115.62 93.71 122.71 87.44 119.78 81.18 107.83 74.91 103.11 68.64 88.69 62.38 77.75 56.11 67.65 49.85 54.89"/><polyline class="cls-8" points="131.3 54.89 125.87 65.31 120.44 79.17 115.01 90.65 109.58 105.48 104.15 113.61 98.72 128.03 93.29 124.6 87.86 122.94 82.43 111.2 77 101.21 71.57 103.03 66.14 87.98 60.71 78.91 55.28 67.1 49.85 54.89"/><polyline class="cls-7" points="131.3 54.89 125.03 65.59 118.77 77.38 112.5 90.23 106.24 103.66 99.97 111.28 93.71 116.81 87.44 116.09 81.18 111.42 74.91 99.99 68.64 85.6 62.38 78.51 56.11 66.74 49.85 54.89"/><polyline class="cls-7" points="131.3 54.89 125.03 66.19 118.77 79.17 112.5 91.49 106.24 105.61 99.97 116.06 93.71 123.33 87.44 119.43 81.18 109.05 74.91 103.93 68.64 89.66 62.38 78.75 56.11 68.21 49.85 54.89"/><polyline class="cls-7" points="131.3 54.89 125.03 65.92 118.77 79.28 112.5 91.74 106.24 106.17 99.97 116.56 93.71 124.07 87.44 120.11 81.18 109.67 74.91 104.55 68.64 90.33 62.38 79.31 56.11 68.59 49.85 54.89"/><polyline class="cls-7" points="131.3 54.89 125.03 66.02 118.77 79.33 112.5 91.6 106.24 106.13 99.97 116.89 93.71 124.11 87.44 119.85 81.18 108.72 74.91 104.31 68.64 89.76 62.38 79.14 56.11 68.38 49.85 54.89"/><polyline class="cls-10" points="131.3 54.89 124.51 65.62 117.72 78.97 110.94 91.25 104.15 102.5 97.36 112.61 90.57 110.35 83.79 109.96 77 105.43 70.21 91.44 63.42 79.76 56.64 67.41 49.85 54.89"/><polyline class="cls-10" points="131.3 54.89 124.51 65.93 117.72 78.69 110.94 90.89 104.15 102.23 97.36 112.25 90.57 109.79 83.79 109.12 77 105.17 70.21 90.92 63.42 79.41 56.64 67.3 49.85 54.89"/><polyline class="cls-10" points="131.3 54.89 124.51 65.92 117.72 78.48 110.94 91.41 104.15 102.5 97.36 113.35 90.57 110.73 83.79 110.1 77 105.69 70.21 91.29 63.42 79.85 56.64 67.55 49.85 54.89"/><polyline class="cls-12" points="131.3 54.89 123.16 66.45 115.01 79.18 106.86 91.21 98.72 98.33 90.57 103.52 82.43 99.81 74.28 87.41 66.14 77.35 58 67.3 49.85 54.89"/><polyline class="cls-8" points="131.3 54.89 125.87 65.42 120.44 78.89 115.01 91.08 109.58 104.67 104.15 114.5 98.72 128.82 93.29 125.66 87.86 120.71 82.43 119.36 77 108.04 71.57 102.13 66.14 86.89 60.71 78.36 55.28 66.73 49.85 54.89"/><polyline class="cls-8" points="131.3 54.89 125.87 65.2 120.44 78.51 115.01 91.09 109.58 104.19 104.15 113.95 98.72 128.43 93.29 126.05 87.86 122.97 82.43 112.52 77 105.83 71.57 102 66.14 86.86 60.71 79.11 55.28 67.68 49.85 54.89"/><polyline class="cls-9" points="131.3 54.89 125.48 65.22 119.66 78.61 113.85 91.02 108.03 99.62 102.21 113.89 96.39 122.22 90.57 114.35 84.76 119.25 78.94 109.56 73.12 99.36 67.3 87.82 61.48 78.07 55.67 67.78 49.85 54.89"/><polyline class="cls-13" points="131.3 54.89 126.51 65.13 121.72 76.48 116.93 89.61 112.14 102.41 107.34 111.43 102.55 111.32 97.76 125.33 92.97 129.91 88.18 127.91 83.39 121.56 78.6 108.15 73.8 107.9 69.01 104.87 64.22 91.09 59.43 79.56 54.64 67.08 49.85 54.89"/><polyline class="cls-9" points="131.3 54.89 125.48 65.51 119.66 77.94 113.85 89.93 108.03 100.37 102.21 113.75 96.39 117.07 90.57 125.36 84.76 120.79 78.94 112.4 73.12 100.74 67.3 86.24 61.48 76.9 55.67 66.31 49.85 54.89"/><polyline class="cls-8" points="131.3 54.89 125.87 65.39 120.44 78.92 115.01 90.8 109.58 105.28 104.15 113.9 98.72 128.36 93.29 124.5 87.86 123.66 82.43 111.3 77 101.51 71.57 101.57 66.14 86.34 60.71 78.6 55.28 67.11 49.85 54.89"/><polyline class="cls-9" points="131.3 54.89 125.48 66.01 119.66 79.41 113.85 92.06 108.03 102.85 102.21 113.08 96.39 123.97 90.57 123.87 84.76 121.95 78.94 112.92 73.12 103.24 67.3 88.68 61.48 79.38 55.67 67.7 49.85 54.89"/><polyline class="cls-10" points="131.3 54.89 124.51 66.23 117.72 78.14 110.94 90.64 104.15 103.08 97.36 111.46 90.57 110.06 83.79 111.02 77 104.27 70.21 89.72 63.42 79.07 56.64 67.5 49.85 54.89"/><polyline class="cls-10" points="131.3 54.89 124.51 66.19 117.72 77.76 110.94 89.91 104.15 102.31 97.36 111.4 90.57 110.24 83.79 111.08 77 103.64 70.21 88.98 63.42 78.38 56.64 67.03 49.85 54.89"/><polyline class="cls-7" points="131.3 54.89 125.03 66.6 118.77 79.89 112.5 85.89 106.24 97.19 99.97 102.16 93.71 94.34 87.44 80.06 81.18 75.02 74.91 74.09 68.64 74.5 62.38 63.18 56.11 68.39 49.85 54.89"/><polyline class="cls-11" points="131.3 54.89 123.89 65.58 116.49 78.43 109.09 90.45 101.68 98.09 94.28 113.48 86.87 112.08 79.47 104.79 72.06 89.81 64.66 78.98 57.25 68.04 49.85 54.89"/><polyline class="cls-11" points="131.3 54.89 123.89 65.71 116.49 78.42 109.09 90.6 101.68 98.64 94.28 114.1 86.87 112.43 79.47 105.44 72.06 90.51 64.66 79.33 57.25 68.13 49.85 54.89"/><polyline class="cls-11" points="131.3 54.89 123.89 65.73 116.49 77.61 109.09 89.24 101.68 100.11 94.28 109.05 86.87 110.52 79.47 102.71 72.06 87.77 64.66 77.66 57.25 67.34 49.85 54.89"/><polyline class="cls-10" points="131.3 54.89 124.51 65.51 117.72 79.76 110.94 91.01 104.15 90.51 97.36 101.47 90.57 111.43 83.79 108.14 77 103.93 70.21 89.06 63.42 77.82 56.64 67.49 49.85 54.89"/><polyline class="cls-8" points="131.3 54.89 125.87 65.82 120.44 79.61 115.01 92.2 109.58 105.76 104.15 113.73 98.72 128.3 93.29 125.15 87.86 120.18 82.43 115.88 77 105.78 71.57 102.64 66.14 87.48 60.71 78.69 55.28 67.22 49.85 54.89"/><polyline class="cls-10" points="131.3 54.89 124.51 65.64 117.72 78.83 110.94 91.08 104.15 102.18 97.36 112.9 90.57 113.72 83.79 111.28 77 104.79 70.21 90.48 63.42 79.54 56.64 67.36 49.85 54.89"/><polyline class="cls-10" points="131.3 54.89 124.51 65.56 117.72 78.27 110.94 90.36 104.15 101.53 97.36 112.51 90.57 113.25 83.79 110.97 77 104.29 70.21 89.51 63.42 79.26 56.64 67.73 49.85 54.89"/><polyline class="cls-7" points="131.3 54.89 125.03 65.99 118.77 77.44 112.5 91.01 106.24 101.99 99.97 115.64 93.71 124.55 87.44 126.31 81.18 114.48 74.91 104.64 68.64 89.4 62.38 79.46 56.11 67.25 49.85 54.89"/><polyline class="cls-7" points="131.3 54.89 125.03 65.73 118.77 77.3 112.5 90.72 106.24 101.98 99.97 114.94 93.71 124.52 87.44 125.12 81.18 113.93 74.91 104.88 68.64 89.99 62.38 79.43 56.11 67.2 49.85 54.89"/><polyline class="cls-8" points="131.3 54.89 125.87 65.51 120.44 79.72 115.01 92.08 109.58 105.8 104.15 114.92 98.72 129.56 93.29 126.13 87.86 120.6 82.43 114.23 77 106.11 71.57 102.95 66.14 87.72 60.71 78.73 55.28 67.42 49.85 54.89"/><polyline class="cls-10" points="131.3 54.89 124.51 66.06 117.72 78.25 110.94 89.28 104.15 103.86 97.36 113.52 90.57 114 83.79 104.22 77 103.5 70.21 92.2 63.42 80.72 56.64 67.59 49.85 54.89"/><polyline class="cls-8" points="131.3 54.89 125.87 65.8 120.44 77.26 115.01 89.42 109.58 103.86 104.15 117.39 98.72 118.28 93.29 103.92 87.86 105.46 82.43 117.69 77 107.39 71.57 97.08 66.14 87.69 60.71 78.29 55.28 66.91 49.85 54.89"/><polyline class="cls-8" points="131.3 54.89 125.87 65.74 120.44 76.12 115.01 89.02 109.58 103.19 104.15 116.55 98.72 117.62 93.29 103.61 87.86 106.2 82.43 118.28 77 108.31 71.57 98.46 66.14 88.07 60.71 78.81 55.28 66.98 49.85 54.89"/><polyline class="cls-7" points="131.3 54.89 125.03 66.03 118.77 79.01 112.5 91.51 106.24 105.38 99.97 117.79 93.71 126.22 87.44 124.52 81.18 112.46 74.91 104.56 68.64 89.45 62.38 78.28 56.11 67.5 49.85 54.89"/><polyline class="cls-10" points="131.3 54.89 124.51 66.25 117.72 79.67 110.94 91.67 104.15 102.71 97.36 117.68 90.57 121.75 83.79 110.44 77 103.63 70.21 90.34 63.42 78.77 56.64 67.73 49.85 54.89"/><polyline class="cls-10" points="131.3 54.89 124.51 65.92 117.72 79.07 110.94 90.95 104.15 101.43 97.36 116.31 90.57 121.1 83.79 111.44 77 103.46 70.21 90.46 63.42 78.63 56.64 67.73 49.85 54.89"/><polyline class="cls-7" points="131.3 54.89 125.03 66.51 118.77 79.05 112.5 91.59 106.24 104.96 99.97 117.05 93.71 126.62 87.44 128.71 81.18 116.98 74.91 107.09 68.64 91.56 62.38 80.74 56.11 67.45 49.85 54.89"/><polyline class="cls-8" points="131.3 54.89 125.87 65.58 120.44 78.63 115.01 91.67 109.58 104.78 104.15 114.95 98.72 129.18 93.29 126.6 87.86 122.11 82.43 122.7 77 107.88 71.57 102.17 66.14 87.32 60.71 78.96 55.28 67.36 49.85 54.89"/><polyline class="cls-7" points="131.3 54.89 125.03 66.32 118.77 78.15 112.5 90.37 106.24 103.73 99.97 111.64 93.71 112.1 87.44 116.34 81.18 107.08 74.91 97.89 68.64 88.36 62.38 78.86 56.11 66.46 49.85 54.89"/><polyline class="cls-7" points="131.3 54.89 125.03 66.19 118.77 78.03 112.5 90.64 106.24 103.85 99.97 111.96 93.71 112.9 87.44 117.15 81.18 108.09 74.91 99.07 68.64 89.09 62.38 79.89 56.11 66.89 49.85 54.89"/><polyline class="cls-9" points="131.3 54.89 125.48 66.62 119.66 80.33 113.85 93.6 108.03 106.17 102.21 117.34 96.39 125.91 90.57 122.56 84.76 118.16 78.94 107.47 73.12 102.17 67.3 88.22 61.48 80.45 55.67 66.8 49.85 54.89"/><polyline class="cls-9" points="131.3 54.89 125.48 66.81 119.66 80.78 113.85 93.92 108.03 106.16 102.21 116.68 96.39 125.67 90.57 123.58 84.76 118.41 78.94 107.2 73.12 101.9 67.3 88.25 61.48 80.17 55.67 66.77 49.85 54.89"/><polyline class="cls-9" points="131.3 54.89 125.48 66.65 119.66 80.53 113.85 93.8 108.03 106.44 102.21 116.55 96.39 125.9 90.57 122.5 84.76 118.49 78.94 107.39 73.12 102.27 67.3 88.15 61.48 80.95 55.67 67.25 49.85 54.89"/><polyline class="cls-12" points="131.3 54.89 123.16 67.13 115.01 80.05 106.86 88.52 98.72 98.31 90.57 107.84 82.43 95.58 74.28 82.55 66.14 76.96 58 67.86 49.85 54.89"/><polyline class="cls-7" points="131.3 54.89 125.03 66.12 118.77 78.69 112.5 92.19 106.24 105.33 99.97 117.13 93.71 128.71 87.44 120.83 81.18 113.48 74.91 104.18 68.64 90.65 62.38 80.51 56.11 67.48 49.85 54.89"/><polyline class="cls-10" points="131.3 54.89 124.51 65.41 117.72 78.19 110.94 90.89 104.15 102.55 97.36 113.06 90.57 113.38 83.79 111.95 77 104.96 70.21 90.16 63.42 79.64 56.64 67.62 49.85 54.89"/><polyline class="cls-10" points="131.3 54.89 124.51 66.22 117.72 78.19 110.94 91.5 104.15 101.91 97.36 114.34 90.57 110.28 83.79 104.16 77 101.88 70.21 88.53 63.42 77.68 56.64 67.06 49.85 54.89"/><polyline class="cls-11" points="131.3 54.89 123.89 66.3 116.49 79.17 109.09 91.38 101.68 103.15 94.28 116.02 86.87 111.82 79.47 105.41 72.06 90.73 64.66 79.93 57.25 68.04 49.85 54.89"/><polyline class="cls-11" points="131.3 54.89 123.89 66.05 116.49 78.9 109.09 91.26 101.68 98.44 94.28 113.79 86.87 112.2 79.47 104.9 72.06 89.52 64.66 79.26 57.25 68.09 49.85 54.89"/><polyline class="cls-11" points="131.3 54.89 123.89 65.93 116.49 78.54 109.09 91.09 101.68 98.1 94.28 113.39 86.87 113.36 79.47 105.75 72.06 91.07 64.66 79.84 57.25 68.26 49.85 54.89"/><polyline class="cls-11" points="131.3 54.89 123.89 65.85 116.49 78.67 109.09 90.78 101.68 98.05 94.28 113.49 86.87 111.37 79.47 104.88 72.06 89.76 64.66 78.65 57.25 67.77 49.85 54.89"/><polyline class="cls-9" points="131.3 54.89 125.48 66.44 119.66 79.45 113.85 92.16 108.03 103.46 102.21 114.06 96.39 124.22 90.57 124.11 84.76 119.52 78.94 111.15 73.12 102.73 67.3 88.96 61.48 78.26 55.67 67.34 49.85 54.89"/><polyline class="cls-9" points="131.3 54.89 125.48 65.78 119.66 78.41 113.85 91.35 108.03 100.51 102.21 112.78 96.39 109.41 90.57 118.72 84.76 114.85 78.94 113.95 73.12 103.82 67.3 88.92 61.48 79.72 55.67 67.52 49.85 54.89"/><polyline class="cls-11" points="131.3 54.89 123.89 66.69 116.49 79.38 109.09 92.39 101.68 103.37 94.28 114.02 86.87 114.67 79.47 104.44 72.06 89.39 64.66 79.61 57.25 68.13 49.85 54.89"/><polyline class="cls-10" points="131.3 54.89 124.51 65.99 117.72 76.96 110.94 90.86 104.15 102.34 97.36 112.57 90.57 109.73 83.79 115.64 77 105.61 70.21 90.81 63.42 79.05 56.64 67.45 49.85 54.89"/><polyline class="cls-10" points="131.3 54.89 124.51 65.82 117.72 77.85 110.94 91.49 104.15 103.67 97.36 113.75 90.57 108.02 83.79 115.35 77 106.84 70.21 92.29 63.42 79.98 56.64 67.9 49.85 54.89"/><polyline class="cls-8" points="131.3 54.89 125.87 65.48 120.44 77 115.01 89.59 109.58 103.88 104.15 117.12 98.72 118.01 93.29 103.72 87.86 105.99 82.43 118.48 77 108.64 71.57 98.76 66.14 88.5 60.71 80.3 55.28 67.34 49.85 54.89"/><polyline class="cls-8" points="131.3 54.89 125.87 65.63 120.44 77.86 115.01 90.2 109.58 104.49 104.15 117.46 98.72 117.88 93.29 103.77 87.86 106.14 82.43 118.58 77 108.94 71.57 98.67 66.14 88.47 60.71 80.34 55.28 67.6 49.85 54.89"/><polyline class="cls-8" points="131.3 54.89 125.87 65.86 120.44 77.36 115.01 89.91 109.58 104.04 104.15 117.43 98.72 118.15 93.29 103.77 87.86 106.65 82.43 118.75 77 108.47 71.57 98.71 66.14 88.72 60.71 79.92 55.28 67.53 49.85 54.89"/><polyline class="cls-8" points="131.3 54.89 125.87 65.66 120.44 77.3 115.01 89.78 109.58 104.32 104.15 117.49 98.72 118.62 93.29 104.06 87.86 106.02 82.43 118.36 77 108.41 71.57 98.3 66.14 88.26 60.71 80.03 55.28 67.12 49.85 54.89"/><polyline class="cls-8" points="131.3 54.89 125.87 65.68 120.44 77.23 115.01 89.63 109.58 103.81 104.15 117.08 98.72 117.77 93.29 103.32 87.86 105.53 82.43 118.14 77 107.84 71.57 98.03 66.14 88.15 60.71 79.94 55.28 67.47 49.85 54.89"/><polyline class="cls-8" points="131.3 54.89 125.87 65.58 120.44 77.09 115.01 89.6 109.58 103.92 104.15 117.17 98.72 117.73 93.29 103.48 87.86 105.78 82.43 118.11 77 108.15 71.57 98.25 66.14 88.13 60.71 79.91 55.28 67.26 49.85 54.89"/><polyline class="cls-7" points="131.3 54.89 125.03 65 118.77 77.74 112.5 91.43 106.24 103.6 99.97 113.5 93.71 114.98 87.44 106.94 81.18 109.97 74.91 106.52 68.64 93.38 62.38 80.58 56.11 68.39 49.85 54.89"/><polyline class="cls-8" points="131.3 54.89 125.87 64.9 120.44 76.9 115.01 90.15 109.58 100.88 104.15 112.09 98.72 116.64 93.29 127.64 87.86 132.68 82.43 127.53 77 113.86 71.57 105.48 66.14 91.25 60.71 80.04 55.28 68.14 49.85 54.89"/><polyline class="cls-10" points="131.3 54.89 124.51 67.5 117.72 78.04 110.94 91.79 104.15 105.19 97.36 115.4 90.57 114.22 83.79 113.32 77 104.41 70.21 91.22 63.42 79.7 56.64 67.77 49.85 54.89"/><polyline class="cls-8" points="131.3 54.89 125.87 66.26 120.44 79.32 115.01 91.47 109.58 105.76 104.15 116.51 98.72 122.49 93.29 136.34 87.86 129.37 82.43 121.97 77 108.76 71.57 100.94 66.14 86.11 60.71 77.24 55.28 67.83 49.85 54.89"/><polyline class="cls-7" points="131.3 54.89 125.03 65.79 118.77 78.17 112.5 90.66 106.24 101.73 99.97 113.65 93.71 108.49 87.44 115.05 81.18 109.65 74.91 104.68 68.64 90.21 62.38 79.5 56.11 67.35 49.85 54.89"/><polyline class="cls-10" points="131.3 54.89 124.51 65.87 117.72 78.33 110.94 91.01 104.15 101.71 97.36 112.18 90.57 109.05 83.79 108.56 77 104.29 70.21 90.6 63.42 79.6 56.64 67.38 49.85 54.89"/><polyline class="cls-10" points="131.3 54.89 124.51 65.62 117.72 78.38 110.94 90.81 104.15 102.28 97.36 112.32 90.57 109.1 83.79 108.36 77 104.3 70.21 90.52 63.42 79.27 56.64 67.47 49.85 54.89"/><polyline class="cls-10" points="131.3 54.89 124.51 65.86 117.72 78.71 110.94 91.22 104.15 101.85 97.36 111.33 90.57 110.33 83.79 108.88 77 104.28 70.21 90.56 63.42 79.52 56.64 67.2 49.85 54.89"/><polyline class="cls-8" points="131.3 54.89 125.87 65.91 120.44 77.8 115.01 90.47 109.58 104.75 104.15 118.31 98.72 118.13 93.29 104.09 87.86 106.63 82.43 118.33 77 107.91 71.57 98.22 66.14 87.72 60.71 80 55.28 67.68 49.85 54.89"/><polyline class="cls-11" points="131.3 54.89 123.89 66.07 116.49 79.07 109.09 91.59 101.68 102.75 94.28 117.2 86.87 111.83 79.47 105.52 72.06 90.88 64.66 79.94 57.25 67.52 49.85 54.89"/><line class="cls-14" x1="40.43" y1="152.71" x2="44.6" y2="152.71"/><line class="cls-14" x1="40.43" y1="128.84" x2="44.6" y2="128.84"/><line class="cls-14" x1="40.43" y1="104.98" x2="44.6" y2="104.98"/><line class="cls-14" x1="40.43" y1="81.11" x2="44.6" y2="81.11"/><line class="cls-14" x1="40.43" y1="57.24" x2="44.6" y2="57.24"/><line class="cls-14" x1="52.74" y1="159.93" x2="52.74" y2="164.1"/><line class="cls-14" x1="80.29" y1="159.93" x2="80.29" y2="164.1"/><line class="cls-14" x1="107.83" y1="159.93" x2="107.83" y2="164.1"/><line class="cls-14" x1="135.38" y1="159.93" x2="135.38" y2="164.1"/><line class="cls-14" x1="162.01" y1="159.93" x2="162.01" y2="164.1"/><line class="cls-14" x1="44.87" y1="47.38" x2="44.87" y2="160.13"/><line class="cls-14" x1="44.5" y1="159.91" x2="175.16" y2="159.91"/></svg>