<svg id="Layer_1" data-name="Layer 1" xmlns="http://www.w3.org/2000/svg" width="63.09mm" height="63.09mm" viewBox="0 0 178.84 178.84"><defs><style>.cls-1{fill:#213249;stroke-miterlimit:10;stroke-width:3px;}.cls-1,.cls-8{stroke:#fff;}.cls-2,.cls-3,.cls-4,.cls-5,.cls-6,.cls-7{fill:none;}.cls-2{stroke:#1c1a1c;}.cls-2,.cls-3,.cls-4,.cls-5,.cls-6,.cls-7,.cls-8{stroke-linejoin:round;stroke-width:2px;}.cls-3{stroke:#fc8f66;}.cls-4{stroke:#2a5a9c;}.cls-5{stroke:#89bec8;}.cls-6{stroke:#d3000c;}.cls-7{stroke:#f6f5f2;}.cls-8{fill:#fff;}</style></defs><title>profile</title><circle class="cls-1" cx="89.42" cy="89.42" r="87.92"/><polyline class="cls-2" points="48.07 125.49 48.07 125.49 58.26 124.66 68.44 115.88 78.61 97.28 88.8 94.79 98.98 109.41 109.16 104.72 119.34 112.18 129.52 125.49"/><polyline class="cls-2" points="48.07 125.49 48.07 125.49 58.26 126.31 68.44 117.27 78.61 98.72 88.8 95.56 98.98 110.3 109.16 104.74 119.34 111.68 129.52 125.49"/><polyline class="cls-2" points="48.07 125.49 48.07 125.49 58.26 125 68.44 119.21 78.61 102.78 88.8 107.55 98.98 92.23 109.16 98.87 119.34 110.17 129.52 125.49"/><polyline class="cls-2" points="48.07 125.49 48.07 125.49 58.26 125.11 68.44 113.34 78.61 93.47 88.8 90.69 98.98 100.59 109.16 102.31 119.34 110.17 129.52 125.49"/><polyline class="cls-2" points="48.07 125.49 48.07 125.49 58.26 124.88 68.44 116.44 78.61 98.25 88.8 95.53 98.98 110.2 109.16 104.85 119.34 112.2 129.52 125.49"/><polyline class="cls-2" points="48.07 125.49 48.07 125.49 58.26 124.2 68.44 115.36 78.61 96.55 88.8 94.89 98.98 109.4 109.16 105.87 119.34 112.7 129.52 125.49"/><polyline class="cls-2" points="48.07 125.49 48.07 125.49 58.26 124.15 68.44 115.53 78.61 96.96 88.8 95.18 98.98 108.25 109.16 103.55 119.34 111.9 129.52 125.49"/><polyline class="cls-2" points="48.07 125.49 48.07 125.49 54.86 127.47 61.65 115.56 68.44 96.82 75.22 84.51 82.01 71.53 88.8 51.12 95.58 52.22 102.37 65.72 109.16 85.62 115.95 94.3 122.73 109.43 129.52 125.49"/><polyline class="cls-2" points="48.07 125.49 48.07 125.49 58.26 124.3 68.44 114.97 78.61 96.66 88.8 91.46 98.98 106.41 109.16 104.28 119.34 111.88 129.52 125.49"/><polyline class="cls-2" points="48.07 125.49 48.07 125.49 58.26 124.59 68.44 115.56 78.61 97.2 88.8 92.03 98.98 106.38 109.16 103.26 119.34 111.14 129.52 125.49"/><polyline class="cls-2" points="48.07 125.49 48.07 125.49 58.26 130.93 68.44 120.13 78.61 102.55 88.8 101.87 98.98 115.73 109.16 115.81 119.34 110.88 129.52 125.49"/><polyline class="cls-2" points="48.07 125.49 48.07 125.49 58.26 124.73 68.44 115.39 78.61 96.76 88.8 90.81 98.98 104.88 109.16 103.95 119.34 111.23 129.52 125.49"/><polyline class="cls-2" points="48.07 125.49 48.07 125.49 58.26 125.02 68.44 115.23 78.61 96.36 88.8 92.28 98.98 106.61 109.16 104.05 119.34 110.91 129.52 125.49"/><polyline class="cls-2" points="48.07 125.49 48.07 125.49 58.26 124.78 68.44 115.13 78.61 96.61 88.8 94.38 98.98 109.32 109.16 103.83 119.34 111.47 129.52 125.49"/><polyline class="cls-2" points="48.07 125.49 48.07 125.49 56.22 126.3 64.36 118.91 72.51 99.6 80.65 96.2 88.8 85.06 96.94 80.44 105.09 84.23 113.23 102.4 121.38 109.35 129.52 125.49"/><polyline class="cls-2" points="48.07 125.49 48.07 125.49 58.26 124.64 68.44 114.95 78.61 97.01 88.8 93.09 98.98 107.36 109.16 103.85 119.34 111.39 129.52 125.49"/><polyline class="cls-2" points="48.07 125.49 48.07 125.49 58.26 124.28 68.44 115.03 78.61 97.04 88.8 93.26 98.98 107.09 109.16 103.33 119.34 111.13 129.52 125.49"/><polyline class="cls-2" points="48.07 125.49 48.07 125.49 58.26 123.69 68.44 114.67 78.61 96.73 88.8 92.79 98.98 106.81 109.16 103.03 119.34 110.68 129.52 125.49"/><polyline class="cls-2" points="48.07 125.49 48.07 125.49 58.26 124.52 68.44 112.1 78.61 92.26 88.8 89.96 98.98 99.52 109.16 101.77 119.34 109.84 129.52 125.49"/><polyline class="cls-2" points="48.07 125.49 48.07 125.49 58.26 125.39 68.44 113.21 78.61 93.37 88.8 90.52 98.98 100.23 109.16 101.28 119.34 110.5 129.52 125.49"/><polyline class="cls-2" points="48.07 125.49 48.07 125.49 58.26 124.37 68.44 112.19 78.61 92.28 88.8 89.76 98.98 99.18 109.16 101.42 119.34 110.13 129.52 125.49"/><polyline class="cls-2" points="48.07 125.49 48.07 125.49 56.22 126.72 64.36 116.28 72.51 99.98 80.65 93.46 88.8 73.93 96.94 79.74 105.09 95.66 113.23 111.77 121.38 111.6 129.52 125.49"/><polyline class="cls-2" points="48.07 125.49 48.07 125.49 59.71 127.83 71.34 115.4 82.98 101.4 94.62 99.12 106.25 115.75 117.89 112.53 129.52 125.49"/><polyline class="cls-2" points="48.07 125.49 48.07 125.49 59.71 127.72 71.34 114.62 82.98 102.48 94.62 99.44 106.25 115.7 117.89 112.33 129.52 125.49"/><polyline class="cls-2" points="48.07 125.49 48.07 125.49 57.12 125.86 66.17 113.06 75.22 104.64 84.27 93.12 93.32 89.12 102.37 84.5 111.42 102.31 120.47 111.89 129.52 125.49"/><polyline class="cls-2" points="48.07 125.49 48.07 125.49 58.26 124.65 68.44 118.93 78.61 103.77 88.8 107.06 98.98 88.95 109.16 96.61 119.34 109.73 129.52 125.49"/><polyline class="cls-2" points="48.07 125.49 48.07 125.49 58.26 124.55 68.44 116.01 78.61 97 88.8 98.2 98.98 112.45 109.16 105.1 119.34 111.86 129.52 125.49"/><polyline class="cls-2" points="48.07 125.49 48.07 125.49 58.26 124.44 68.44 113.33 78.61 96.15 88.8 93.35 98.98 105.83 109.16 102.66 119.34 111.08 129.52 125.49"/><polyline class="cls-2" points="48.07 125.49 48.07 125.49 57.12 125.9 66.17 114.28 75.22 95.73 84.27 90.07 93.32 96.9 102.37 108.59 111.42 105.34 120.47 114.08 129.52 125.49"/><polyline class="cls-2" points="48.07 125.49 48.07 125.49 58.26 123.51 68.44 109.26 78.61 100.94 88.8 107.64 98.98 95.44 109.16 103.19 119.34 113.62 129.52 125.49"/><polyline class="cls-2" points="48.07 125.49 48.07 125.49 58.26 125.47 68.44 110.81 78.61 103.91 88.8 109.86 98.98 97.06 109.16 100.65 119.34 111.57 129.52 125.49"/><polyline class="cls-2" points="48.07 125.49 48.07 125.49 54.86 127.42 61.65 114.94 68.44 97.03 75.22 85.33 82.01 73.41 88.8 52.92 95.58 54.23 102.37 67.52 109.16 87.36 115.95 94.75 122.73 110.4 129.52 125.49"/><polyline class="cls-2" points="48.07 125.49 48.07 125.49 56.22 125.16 64.36 112.05 72.51 97.23 80.65 96.29 88.8 77.64 96.94 70.82 105.09 80.5 113.23 98.56 121.38 109.34 129.52 125.49"/><polyline class="cls-2" points="48.07 125.49 48.07 125.49 56.22 125.65 64.36 112.78 72.51 97.49 80.65 96.62 88.8 77.88 96.94 70.18 105.09 80.12 113.23 98.41 121.38 108.89 129.52 125.49"/><polyline class="cls-2" points="48.07 125.49 48.07 125.49 56.22 123.92 64.36 112.38 72.51 98.23 80.65 96.27 88.8 77.96 96.94 71 105.09 80.22 113.23 97.79 121.38 109.38 129.52 125.49"/><polyline class="cls-2" points="48.07 125.49 48.07 125.49 58.26 124.41 68.44 112.45 78.61 95.5 88.8 96.21 98.98 96.8 109.16 103.02 119.34 110.99 129.52 125.49"/><polyline class="cls-2" points="48.07 125.49 48.07 125.49 58.26 125.09 68.44 115.36 78.61 96.38 88.8 93.31 98.98 107.89 109.16 103.78 119.34 110.66 129.52 125.49"/><polyline class="cls-2" points="48.07 125.49 48.07 125.49 57.12 125.39 66.17 112.76 75.22 95.05 84.27 89.25 93.32 98.79 102.37 110.47 111.42 106.05 120.47 114.94 129.52 125.49"/><polyline class="cls-2" points="48.07 125.49 48.07 125.49 58.26 126.98 68.44 113.38 78.61 96.77 88.8 96.41 98.98 109.79 109.16 106.18 119.34 115.47 129.52 125.49"/><polyline class="cls-2" points="48.07 125.49 48.07 125.49 57.12 126.86 66.17 112.88 75.22 96.88 84.27 89.44 93.32 96.8 102.37 109.73 111.42 105.41 120.47 115.75 129.52 125.49"/><polyline class="cls-2" points="48.07 125.49 48.07 125.49 58.26 128.99 68.44 116.1 78.61 97.86 88.8 95.47 98.98 108.92 109.16 105.49 119.34 116.69 129.52 125.49"/><polyline class="cls-2" points="48.07 125.49 48.07 125.49 58.26 125.21 68.44 115.21 78.61 96.77 88.8 94.03 98.98 108.63 109.16 104.45 119.34 111.95 129.52 125.49"/><polyline class="cls-2" points="48.07 125.49 48.07 125.49 58.26 124.03 68.44 117.02 78.61 99.76 88.8 106.6 98.98 89.58 109.16 97.25 119.34 111.17 129.52 125.49"/><polyline class="cls-2" points="48.07 125.49 48.07 125.49 57.12 124.69 66.17 117.24 75.22 98.27 84.27 84.54 93.32 95.07 102.37 109.29 111.42 106.31 120.47 109.51 129.52 125.49"/><polyline class="cls-2" points="48.07 125.49 48.07 125.49 57.12 122.53 66.17 114.85 75.22 95.2 84.27 83.24 93.32 97.62 102.37 106.5 111.42 103.72 120.47 110.47 129.52 125.49"/><polyline class="cls-2" points="48.07 125.49 48.07 125.49 57.12 124.17 66.17 113.25 75.22 99.48 84.27 108.4 93.32 92.34 102.37 95.46 111.42 115.65 120.47 112.84 129.52 125.49"/><polyline class="cls-2" points="48.07 125.49 48.07 125.49 57.12 126.5 66.17 115.32 75.22 100.98 84.27 105.91 93.32 89.39 102.37 96.19 111.42 114.76 120.47 111.54 129.52 125.49"/><polyline class="cls-2" points="48.07 125.49 48.07 125.49 57.12 124.8 66.17 114.17 75.22 99.84 84.27 105.66 93.32 88.96 102.37 96.17 111.42 114.56 120.47 111.47 129.52 125.49"/><polyline class="cls-2" points="48.07 125.49 48.07 125.49 58.26 125.33 68.44 108.94 78.61 96.03 88.8 99.09 98.98 114.57 109.16 108.93 119.34 117.64 129.52 125.49"/><polyline class="cls-2" points="48.07 125.49 48.07 125.49 58.26 124.64 68.44 115.85 78.61 97.26 88.8 94.13 98.98 108.49 109.16 104.51 119.34 111.96 129.52 125.49"/><polyline class="cls-2" points="48.07 125.49 48.07 125.49 57.12 124.93 66.17 115.11 75.22 101.96 84.27 87.69 93.32 78.64 102.37 84.62 111.42 104.6 120.47 110.21 129.52 125.49"/><polyline class="cls-2" points="48.07 125.49 48.07 125.49 57.12 124.82 66.17 114.64 75.22 101.67 84.27 87.71 93.32 78.68 102.37 83.94 111.42 104.28 120.47 110.46 129.52 125.49"/><polyline class="cls-2" points="48.07 125.49 48.07 125.49 57.12 126.42 66.17 113.57 75.22 97.06 84.27 89.72 93.32 97.41 102.37 109.97 111.42 106.56 120.47 116.78 129.52 125.49"/><polyline class="cls-2" points="48.07 125.49 48.07 125.49 57.12 125.3 66.17 112.63 75.22 95.77 84.27 89.8 93.32 97.47 102.37 110.19 111.42 106.53 120.47 116.79 129.52 125.49"/><polyline class="cls-2" points="48.07 125.49 48.07 125.49 57.12 126.1 66.17 113.67 75.22 96.6 84.27 89.12 93.32 96.96 102.37 109.59 111.42 106.16 120.47 116.02 129.52 125.49"/><polyline class="cls-2" points="48.07 125.49 48.07 125.49 54.86 127.1 61.65 115.46 68.44 96.71 75.22 84.18 82.01 71.31 88.8 50.72 95.58 52.31 102.37 66.15 109.16 86.2 115.95 94 122.73 109.25 129.52 125.49"/><polyline class="cls-2" points="48.07 125.49 48.07 125.49 54.86 124.64 61.65 112.55 68.44 93.14 75.22 83.19 82.01 70.98 88.8 50.75 95.58 50.7 102.37 64.22 109.16 84.66 115.95 93.38 122.73 108.26 129.52 125.49"/><polyline class="cls-2" points="48.07 125.49 48.07 125.49 57.12 126.06 66.17 113.54 75.22 96.3 84.27 89.64 93.32 97.52 102.37 110.63 111.42 105.81 120.47 115.53 129.52 125.49"/><polyline class="cls-2" points="48.07 125.49 48.07 125.49 59.71 132.15 71.34 124.73 82.98 115.17 94.62 121.69 106.25 111.59 117.89 113.94 129.52 125.49"/><polyline class="cls-2" points="48.07 125.49 48.07 125.49 58.26 123.56 68.44 112.1 78.61 94.68 88.8 101.41 98.98 94.13 109.16 105.35 119.34 110.19 129.52 125.49"/><polyline class="cls-2" points="48.07 125.49 48.07 125.49 56.22 125.21 64.36 112.81 72.51 98.44 80.65 97.34 88.8 78.59 96.94 70.72 105.09 79.83 113.23 97.52 121.38 109.1 129.52 125.49"/><polyline class="cls-2" points="48.07 125.49 48.07 125.49 56.22 125.2 64.36 112.65 72.51 98.05 80.65 97.13 88.8 78.63 96.94 70.03 105.09 79.41 113.23 97.46 121.38 109.48 129.52 125.49"/><polyline class="cls-2" points="48.07 125.49 48.07 125.49 56.22 125.71 64.36 112.24 72.51 97.01 80.65 96.28 88.8 77.37 96.94 70.76 105.09 80.81 113.23 98.33 121.38 109.61 129.52 125.49"/><polyline class="cls-2" points="48.07 125.49 48.07 125.49 57.12 128.15 66.17 115.67 75.22 98.01 84.27 91.21 93.32 97.76 102.37 109.91 111.42 105.82 120.47 115.94 129.52 125.49"/><polyline class="cls-2" points="48.07 125.49 48.07 125.49 58.26 124.14 68.44 118.98 78.61 102.6 88.8 109.64 98.98 92.71 109.16 99.28 119.34 108.97 129.52 125.49"/><polyline class="cls-2" points="48.07 125.49 48.07 125.49 57.12 125.02 66.17 112.65 75.22 93.96 84.27 85.73 93.32 93.46 102.37 106.41 111.42 104.03 120.47 114.63 129.52 125.49"/><polyline class="cls-2" points="48.07 125.49 48.07 125.49 58.26 125.65 68.44 117.2 78.61 99.78 88.8 96.64 98.98 104.5 109.16 108.15 119.34 110.1 129.52 125.49"/><polyline class="cls-2" points="48.07 125.49 48.07 125.49 58.26 126.88 68.44 116.49 78.61 98.52 88.8 95.04 98.98 105.15 109.16 111.01 119.34 111.42 129.52 125.49"/><polyline class="cls-2" points="48.07 125.49 48.07 125.49 57.12 124.24 66.17 115.31 75.22 97.47 84.27 85.26 93.32 97.07 102.37 106.67 111.42 101.17 120.47 109.73 129.52 125.49"/><polyline class="cls-2" points="48.07 125.49 48.07 125.49 57.12 124.12 66.17 116.28 75.22 98.2 84.27 85.06 93.32 97.74 102.37 110.81 111.42 104.66 120.47 109.47 129.52 125.49"/><polyline class="cls-2" points="48.07 125.49 48.07 125.49 57.12 123.61 66.17 114.63 75.22 96.9 84.27 84.08 93.32 95.74 102.37 106.67 111.42 101.86 120.47 110.44 129.52 125.49"/><polyline class="cls-2" points="48.07 125.49 48.07 125.49 57.12 126.15 66.17 116.62 75.22 96.94 84.27 83.53 93.32 95.59 102.37 108.55 111.42 103.87 120.47 110.12 129.52 125.49"/><polyline class="cls-2" points="48.07 125.49 48.07 125.49 57.12 124.71 66.17 116.26 75.22 97.47 84.27 85.09 93.32 97.07 102.37 107.34 111.42 101.46 120.47 110.14 129.52 125.49"/><polyline class="cls-2" points="48.07 125.49 48.07 125.49 57.12 124.45 66.17 116.03 75.22 97.72 84.27 84.95 93.32 96.34 102.37 106.6 111.42 101.62 120.47 110 129.52 125.49"/><polyline class="cls-2" points="48.07 125.49 48.07 125.49 58.26 128.23 68.44 116.8 78.61 98.92 88.8 101.39 98.98 112.69 109.16 110.08 119.34 118.3 129.52 125.49"/><polyline class="cls-2" points="48.07 125.49 48.07 125.49 58.26 123.61 68.44 114.22 78.61 95.23 88.8 99.07 98.98 112.88 109.16 110.09 119.34 113.91 129.52 125.49"/><polyline class="cls-2" points="48.07 125.49 48.07 125.49 58.26 126.1 68.44 116.01 78.61 96.05 88.8 91.3 98.98 99.71 109.16 105.87 119.34 111.25 129.52 125.49"/><polyline class="cls-2" points="48.07 125.49 48.07 125.49 57.12 124.18 66.17 111.41 75.22 94.6 84.27 88.22 93.32 97.07 102.37 110.38 111.42 106.64 120.47 116.44 129.52 125.49"/><polyline class="cls-2" points="48.07 125.49 48.07 125.49 58.26 124 68.44 115.18 78.61 95.78 88.8 93.28 98.98 108.33 109.16 104.89 119.34 111.4 129.52 125.49"/><polyline class="cls-2" points="48.07 125.49 48.07 125.49 58.26 125.92 68.44 114.16 78.61 94.13 88.8 90.56 98.98 100.07 109.16 101.46 119.34 109.35 129.52 125.49"/><polyline class="cls-2" points="48.07 125.49 48.07 125.49 58.26 124.05 68.44 111.43 78.61 91.41 88.8 91.34 98.98 98.79 109.16 101.3 119.34 110.09 129.52 125.49"/><polyline class="cls-2" points="48.07 125.49 48.07 125.49 58.26 125.11 68.44 112.27 78.61 92.31 88.8 89.18 98.98 99.29 109.16 101.61 119.34 109.65 129.52 125.49"/><polyline class="cls-2" points="48.07 125.49 48.07 125.49 57.12 126.67 66.17 118.44 75.22 100.38 84.27 89.45 93.32 100.79 102.37 113.09 111.42 106.29 120.47 112.42 129.52 125.49"/><polyline class="cls-2" points="48.07 125.49 48.07 125.49 58.26 124.91 68.44 114.99 78.61 97.11 88.8 102.05 98.98 94.6 109.16 105.75 119.34 110.9 129.52 125.49"/><polyline class="cls-3" points="48.07 125.49 48.07 125.49 58.26 124.66 68.44 115.88 78.61 97.28 88.8 94.79 98.98 109.41 109.16 104.72 119.34 112.18 129.52 125.49"/><polyline class="cls-3" points="48.07 125.49 48.07 125.49 58.26 126.31 68.44 117.27 78.61 98.72 88.8 95.56 98.98 110.3 109.16 104.74 119.34 111.68 129.52 125.49"/><polyline class="cls-3" points="48.07 125.49 48.07 125.49 58.26 125 68.44 119.21 78.61 102.78 88.8 107.55 98.98 92.23 109.16 98.87 119.34 110.17 129.52 125.49"/><polyline class="cls-3" points="48.07 125.49 48.07 125.49 58.26 125.11 68.44 113.34 78.61 93.47 88.8 90.69 98.98 100.59 109.16 102.31 119.34 110.17 129.52 125.49"/><polyline class="cls-3" points="48.07 125.49 48.07 125.49 58.26 124.88 68.44 116.44 78.61 98.25 88.8 95.53 98.98 110.2 109.16 104.85 119.34 112.2 129.52 125.49"/><polyline class="cls-3" points="48.07 125.49 48.07 125.49 58.26 124.2 68.44 115.36 78.61 96.55 88.8 94.89 98.98 109.4 109.16 105.87 119.34 112.7 129.52 125.49"/><polyline class="cls-3" points="48.07 125.49 48.07 125.49 58.26 124.15 68.44 115.53 78.61 96.96 88.8 95.18 98.98 108.25 109.16 103.55 119.34 111.9 129.52 125.49"/><polyline class="cls-4" points="48.07 125.49 48.07 125.49 54.86 127.47 61.65 115.56 68.44 96.82 75.22 84.51 82.01 71.53 88.8 51.12 95.58 52.22 102.37 65.72 109.16 85.62 115.95 94.3 122.73 109.43 129.52 125.49"/><polyline class="cls-3" points="48.07 125.49 48.07 125.49 58.26 124.3 68.44 114.97 78.61 96.66 88.8 91.46 98.98 106.41 109.16 104.28 119.34 111.88 129.52 125.49"/><polyline class="cls-3" points="48.07 125.49 48.07 125.49 58.26 124.59 68.44 115.56 78.61 97.2 88.8 92.03 98.98 106.38 109.16 103.26 119.34 111.14 129.52 125.49"/><polyline class="cls-3" points="48.07 125.49 48.07 125.49 58.26 130.93 68.44 120.13 78.61 102.55 88.8 101.87 98.98 115.73 109.16 115.81 119.34 110.88 129.52 125.49"/><polyline class="cls-3" points="48.07 125.49 48.07 125.49 58.26 124.73 68.44 115.39 78.61 96.76 88.8 90.81 98.98 104.88 109.16 103.95 119.34 111.23 129.52 125.49"/><polyline class="cls-3" points="48.07 125.49 48.07 125.49 58.26 125.02 68.44 115.23 78.61 96.36 88.8 92.28 98.98 106.61 109.16 104.05 119.34 110.91 129.52 125.49"/><polyline class="cls-3" points="48.07 125.49 48.07 125.49 58.26 124.78 68.44 115.13 78.61 96.61 88.8 94.38 98.98 109.32 109.16 103.83 119.34 111.47 129.52 125.49"/><polyline class="cls-5" points="48.07 125.49 48.07 125.49 56.22 126.3 64.36 118.91 72.51 99.6 80.65 96.2 88.8 85.06 96.94 80.44 105.09 84.23 113.23 102.4 121.38 109.35 129.52 125.49"/><polyline class="cls-3" points="48.07 125.49 48.07 125.49 58.26 124.64 68.44 114.95 78.61 97.01 88.8 93.09 98.98 107.36 109.16 103.85 119.34 111.39 129.52 125.49"/><polyline class="cls-3" points="48.07 125.49 48.07 125.49 58.26 124.28 68.44 115.03 78.61 97.04 88.8 93.26 98.98 107.09 109.16 103.33 119.34 111.13 129.52 125.49"/><polyline class="cls-3" points="48.07 125.49 48.07 125.49 58.26 123.69 68.44 114.67 78.61 96.73 88.8 92.79 98.98 106.81 109.16 103.03 119.34 110.68 129.52 125.49"/><polyline class="cls-3" points="48.07 125.49 48.07 125.49 58.26 124.52 68.44 112.1 78.61 92.26 88.8 89.96 98.98 99.52 109.16 101.77 119.34 109.84 129.52 125.49"/><polyline class="cls-3" points="48.07 125.49 48.07 125.49 58.26 125.39 68.44 113.21 78.61 93.37 88.8 90.52 98.98 100.23 109.16 101.28 119.34 110.5 129.52 125.49"/><polyline class="cls-3" points="48.07 125.49 48.07 125.49 58.26 124.37 68.44 112.19 78.61 92.28 88.8 89.76 98.98 99.18 109.16 101.42 119.34 110.13 129.52 125.49"/><polyline class="cls-5" points="48.07 125.49 48.07 125.49 56.22 126.72 64.36 116.28 72.51 99.98 80.65 93.46 88.8 73.93 96.94 79.74 105.09 95.66 113.23 111.77 121.38 111.6 129.52 125.49"/><polyline class="cls-6" points="48.07 125.49 48.07 125.49 59.71 127.83 71.34 115.4 82.98 101.4 94.62 99.12 106.25 115.75 117.89 112.53 129.52 125.49"/><polyline class="cls-6" points="48.07 125.49 48.07 125.49 59.71 127.72 71.34 114.62 82.98 102.48 94.62 99.44 106.25 115.7 117.89 112.33 129.52 125.49"/><polyline class="cls-7" points="48.07 125.49 48.07 125.49 57.12 125.86 66.17 113.06 75.22 104.64 84.27 93.12 93.32 89.12 102.37 84.5 111.42 102.31 120.47 111.89 129.52 125.49"/><polyline class="cls-3" points="48.07 125.49 48.07 125.49 58.26 124.65 68.44 118.93 78.61 103.77 88.8 107.06 98.98 88.95 109.16 96.61 119.34 109.73 129.52 125.49"/><polyline class="cls-3" points="48.07 125.49 48.07 125.49 58.26 124.55 68.44 116.01 78.61 97 88.8 98.2 98.98 112.45 109.16 105.1 119.34 111.86 129.52 125.49"/><polyline class="cls-3" points="48.07 125.49 48.07 125.49 58.26 124.44 68.44 113.33 78.61 96.15 88.8 93.35 98.98 105.83 109.16 102.66 119.34 111.08 129.52 125.49"/><polyline class="cls-7" points="48.07 125.49 48.07 125.49 57.12 125.9 66.17 114.28 75.22 95.73 84.27 90.07 93.32 96.9 102.37 108.59 111.42 105.34 120.47 114.08 129.52 125.49"/><polyline class="cls-3" points="48.07 125.49 48.07 125.49 58.26 123.51 68.44 109.26 78.61 100.94 88.8 107.64 98.98 95.44 109.16 103.19 119.34 113.62 129.52 125.49"/><polyline class="cls-3" points="48.07 125.49 48.07 125.49 58.26 125.47 68.44 110.81 78.61 103.91 88.8 109.86 98.98 97.06 109.16 100.65 119.34 111.57 129.52 125.49"/><polyline class="cls-4" points="48.07 125.49 48.07 125.49 54.86 127.42 61.65 114.94 68.44 97.03 75.22 85.33 82.01 73.41 88.8 52.92 95.58 54.23 102.37 67.52 109.16 87.36 115.95 94.75 122.73 110.4 129.52 125.49"/><polyline class="cls-5" points="48.07 125.49 48.07 125.49 56.22 125.16 64.36 112.05 72.51 97.23 80.65 96.29 88.8 77.64 96.94 70.82 105.09 80.5 113.23 98.56 121.38 109.34 129.52 125.49"/><polyline class="cls-5" points="48.07 125.49 48.07 125.49 56.22 125.65 64.36 112.78 72.51 97.49 80.65 96.62 88.8 77.88 96.94 70.18 105.09 80.12 113.23 98.41 121.38 108.89 129.52 125.49"/><polyline class="cls-5" points="48.07 125.49 48.07 125.49 56.22 123.92 64.36 112.38 72.51 98.23 80.65 96.27 88.8 77.96 96.94 71 105.09 80.22 113.23 97.79 121.38 109.38 129.52 125.49"/><polyline class="cls-3" points="48.07 125.49 48.07 125.49 58.26 124.41 68.44 112.45 78.61 95.5 88.8 96.21 98.98 96.8 109.16 103.02 119.34 110.99 129.52 125.49"/><polyline class="cls-3" points="48.07 125.49 48.07 125.49 58.26 125.09 68.44 115.36 78.61 96.38 88.8 93.31 98.98 107.89 109.16 103.78 119.34 110.66 129.52 125.49"/><polyline class="cls-7" points="48.07 125.49 48.07 125.49 57.12 125.39 66.17 112.76 75.22 95.05 84.27 89.25 93.32 98.79 102.37 110.47 111.42 106.05 120.47 114.94 129.52 125.49"/><polyline class="cls-3" points="48.07 125.49 48.07 125.49 58.26 126.98 68.44 113.38 78.61 96.77 88.8 96.41 98.98 109.79 109.16 106.18 119.34 115.47 129.52 125.49"/><polyline class="cls-7" points="48.07 125.49 48.07 125.49 57.12 126.86 66.17 112.88 75.22 96.88 84.27 89.44 93.32 96.8 102.37 109.73 111.42 105.41 120.47 115.75 129.52 125.49"/><polyline class="cls-3" points="48.07 125.49 48.07 125.49 58.26 128.99 68.44 116.1 78.61 97.86 88.8 95.47 98.98 108.92 109.16 105.49 119.34 116.69 129.52 125.49"/><polyline class="cls-3" points="48.07 125.49 48.07 125.49 58.26 125.21 68.44 115.21 78.61 96.77 88.8 94.03 98.98 108.63 109.16 104.45 119.34 111.95 129.52 125.49"/><polyline class="cls-3" points="48.07 125.49 48.07 125.49 58.26 124.03 68.44 117.02 78.61 99.76 88.8 106.6 98.98 89.58 109.16 97.25 119.34 111.17 129.52 125.49"/><polyline class="cls-7" points="48.07 125.49 48.07 125.49 57.12 124.69 66.17 117.24 75.22 98.27 84.27 84.54 93.32 95.07 102.37 109.29 111.42 106.31 120.47 109.51 129.52 125.49"/><polyline class="cls-7" points="48.07 125.49 48.07 125.49 57.12 122.53 66.17 114.85 75.22 95.2 84.27 83.24 93.32 97.62 102.37 106.5 111.42 103.72 120.47 110.47 129.52 125.49"/><polyline class="cls-7" points="48.07 125.49 48.07 125.49 57.12 124.17 66.17 113.25 75.22 99.48 84.27 108.4 93.32 92.34 102.37 95.46 111.42 115.65 120.47 112.84 129.52 125.49"/><polyline class="cls-7" points="48.07 125.49 48.07 125.49 57.12 126.5 66.17 115.32 75.22 100.98 84.27 105.91 93.32 89.39 102.37 96.19 111.42 114.76 120.47 111.54 129.52 125.49"/><polyline class="cls-7" points="48.07 125.49 48.07 125.49 57.12 124.8 66.17 114.17 75.22 99.84 84.27 105.66 93.32 88.96 102.37 96.17 111.42 114.56 120.47 111.47 129.52 125.49"/><polyline class="cls-3" points="48.07 125.49 48.07 125.49 58.26 125.33 68.44 108.94 78.61 96.03 88.8 99.09 98.98 114.57 109.16 108.93 119.34 117.64 129.52 125.49"/><polyline class="cls-3" points="48.07 125.49 48.07 125.49 58.26 124.64 68.44 115.85 78.61 97.26 88.8 94.13 98.98 108.49 109.16 104.51 119.34 111.96 129.52 125.49"/><polyline class="cls-7" points="48.07 125.49 48.07 125.49 57.12 124.93 66.17 115.11 75.22 101.96 84.27 87.69 93.32 78.64 102.37 84.62 111.42 104.6 120.47 110.21 129.52 125.49"/><polyline class="cls-7" points="48.07 125.49 48.07 125.49 57.12 124.82 66.17 114.64 75.22 101.67 84.27 87.71 93.32 78.68 102.37 83.94 111.42 104.28 120.47 110.46 129.52 125.49"/><polyline class="cls-7" points="48.07 125.49 48.07 125.49 57.12 126.42 66.17 113.57 75.22 97.06 84.27 89.72 93.32 97.41 102.37 109.97 111.42 106.56 120.47 116.78 129.52 125.49"/><polyline class="cls-7" points="48.07 125.49 48.07 125.49 57.12 125.3 66.17 112.63 75.22 95.77 84.27 89.8 93.32 97.47 102.37 110.19 111.42 106.53 120.47 116.79 129.52 125.49"/><polyline class="cls-7" points="48.07 125.49 48.07 125.49 57.12 126.1 66.17 113.67 75.22 96.6 84.27 89.12 93.32 96.96 102.37 109.59 111.42 106.16 120.47 116.02 129.52 125.49"/><polyline class="cls-4" points="48.07 125.49 48.07 125.49 54.86 127.1 61.65 115.46 68.44 96.71 75.22 84.18 82.01 71.31 88.8 50.72 95.58 52.31 102.37 66.15 109.16 86.2 115.95 94 122.73 109.25 129.52 125.49"/><polyline class="cls-4" points="48.07 125.49 48.07 125.49 54.86 124.64 61.65 112.55 68.44 93.14 75.22 83.19 82.01 70.98 88.8 50.75 95.58 50.7 102.37 64.22 109.16 84.66 115.95 93.38 122.73 108.26 129.52 125.49"/><polyline class="cls-7" points="48.07 125.49 48.07 125.49 57.12 126.06 66.17 113.54 75.22 96.3 84.27 89.64 93.32 97.52 102.37 110.63 111.42 105.81 120.47 115.53 129.52 125.49"/><polyline class="cls-6" points="48.07 125.49 48.07 125.49 59.71 132.15 71.34 124.73 82.98 115.17 94.62 121.69 106.25 111.59 117.89 113.94 129.52 125.49"/><polyline class="cls-3" points="48.07 125.49 48.07 125.49 58.26 123.56 68.44 112.1 78.61 94.68 88.8 101.41 98.98 94.13 109.16 105.35 119.34 110.19 129.52 125.49"/><polyline class="cls-5" points="48.07 125.49 48.07 125.49 56.22 125.21 64.36 112.81 72.51 98.44 80.65 97.34 88.8 78.59 96.94 70.72 105.09 79.83 113.23 97.52 121.38 109.1 129.52 125.49"/><polyline class="cls-5" points="48.07 125.49 48.07 125.49 56.22 125.2 64.36 112.65 72.51 98.05 80.65 97.13 88.8 78.63 96.94 70.03 105.09 79.41 113.23 97.46 121.38 109.48 129.52 125.49"/><polyline class="cls-5" points="48.07 125.49 48.07 125.49 56.22 125.71 64.36 112.24 72.51 97.01 80.65 96.28 88.8 77.37 96.94 70.76 105.09 80.81 113.23 98.33 121.38 109.61 129.52 125.49"/><polyline class="cls-7" points="48.07 125.49 48.07 125.49 57.12 128.15 66.17 115.67 75.22 98.01 84.27 91.21 93.32 97.76 102.37 109.91 111.42 105.82 120.47 115.94 129.52 125.49"/><polyline class="cls-3" points="48.07 125.49 48.07 125.49 58.26 124.14 68.44 118.98 78.61 102.6 88.8 109.64 98.98 92.71 109.16 99.28 119.34 108.97 129.52 125.49"/><polyline class="cls-7" points="48.07 125.49 48.07 125.49 57.12 125.02 66.17 112.65 75.22 93.96 84.27 85.73 93.32 93.46 102.37 106.41 111.42 104.03 120.47 114.63 129.52 125.49"/><polyline class="cls-3" points="48.07 125.49 48.07 125.49 58.26 125.65 68.44 117.2 78.61 99.78 88.8 96.64 98.98 104.5 109.16 108.15 119.34 110.1 129.52 125.49"/><polyline class="cls-3" points="48.07 125.49 48.07 125.49 58.26 126.88 68.44 116.49 78.61 98.52 88.8 95.04 98.98 105.15 109.16 111.01 119.34 111.42 129.52 125.49"/><polyline class="cls-7" points="48.07 125.49 48.07 125.49 57.12 124.24 66.17 115.31 75.22 97.47 84.27 85.26 93.32 97.07 102.37 106.67 111.42 101.17 120.47 109.73 129.52 125.49"/><polyline class="cls-7" points="48.07 125.49 48.07 125.49 57.12 124.12 66.17 116.28 75.22 98.2 84.27 85.06 93.32 97.74 102.37 110.81 111.42 104.66 120.47 109.47 129.52 125.49"/><polyline class="cls-7" points="48.07 125.49 48.07 125.49 57.12 123.61 66.17 114.63 75.22 96.9 84.27 84.08 93.32 95.74 102.37 106.67 111.42 101.86 120.47 110.44 129.52 125.49"/><polyline class="cls-7" points="48.07 125.49 48.07 125.49 57.12 126.15 66.17 116.62 75.22 96.94 84.27 83.53 93.32 95.59 102.37 108.55 111.42 103.87 120.47 110.12 129.52 125.49"/><polyline class="cls-7" points="48.07 125.49 48.07 125.49 57.12 124.71 66.17 116.26 75.22 97.47 84.27 85.09 93.32 97.07 102.37 107.34 111.42 101.46 120.47 110.14 129.52 125.49"/><polyline class="cls-7" points="48.07 125.49 48.07 125.49 57.12 124.45 66.17 116.03 75.22 97.72 84.27 84.95 93.32 96.34 102.37 106.6 111.42 101.62 120.47 110 129.52 125.49"/><polyline class="cls-3" points="48.07 125.49 48.07 125.49 58.26 128.23 68.44 116.8 78.61 98.92 88.8 101.39 98.98 112.69 109.16 110.08 119.34 118.3 129.52 125.49"/><polyline class="cls-3" points="48.07 125.49 48.07 125.49 58.26 123.61 68.44 114.22 78.61 95.23 88.8 99.07 98.98 112.88 109.16 110.09 119.34 113.91 129.52 125.49"/><polyline class="cls-3" points="48.07 125.49 48.07 125.49 58.26 126.1 68.44 116.01 78.61 96.05 88.8 91.3 98.98 99.71 109.16 105.87 119.34 111.25 129.52 125.49"/><polyline class="cls-7" points="48.07 125.49 48.07 125.49 57.12 124.18 66.17 111.41 75.22 94.6 84.27 88.22 93.32 97.07 102.37 110.38 111.42 106.64 120.47 116.44 129.52 125.49"/><polyline class="cls-3" points="48.07 125.49 48.07 125.49 58.26 124 68.44 115.18 78.61 95.78 88.8 93.28 98.98 108.33 109.16 104.89 119.34 111.4 129.52 125.49"/><polyline class="cls-3" points="48.07 125.49 48.07 125.49 58.26 125.92 68.44 114.16 78.61 94.13 88.8 90.56 98.98 100.07 109.16 101.46 119.34 109.35 129.52 125.49"/><polyline class="cls-3" points="48.07 125.49 48.07 125.49 58.26 124.05 68.44 111.43 78.61 91.41 88.8 91.34 98.98 98.79 109.16 101.3 119.34 110.09 129.52 125.49"/><polyline class="cls-3" points="48.07 125.49 48.07 125.49 58.26 125.11 68.44 112.27 78.61 92.31 88.8 89.18 98.98 99.29 109.16 101.61 119.34 109.65 129.52 125.49"/><polyline class="cls-7" points="48.07 125.49 48.07 125.49 57.12 126.67 66.17 118.44 75.22 100.38 84.27 89.45 93.32 100.79 102.37 113.09 111.42 106.29 120.47 112.42 129.52 125.49"/><polyline class="cls-3" points="48.07 125.49 48.07 125.49 58.26 124.91 68.44 114.99 78.61 97.11 88.8 102.05 98.98 94.6 109.16 105.75 119.34 110.9 129.52 125.49"/><line class="cls-8" x1="35.07" y1="125.53" x2="39.24" y2="125.53"/><line class="cls-8" x1="35.07" y1="101.66" x2="39.24" y2="101.66"/><line class="cls-8" x1="35.07" y1="77.79" x2="39.24" y2="77.79"/><line class="cls-8" x1="35.07" y1="53.93" x2="39.24" y2="53.93"/><line class="cls-8" x1="47.38" y1="132.75" x2="47.38" y2="136.92"/><line class="cls-8" x1="74.93" y1="132.75" x2="74.93" y2="136.92"/><line class="cls-8" x1="102.47" y1="132.75" x2="102.47" y2="136.92"/><line class="cls-8" x1="130.02" y1="132.75" x2="130.02" y2="136.92"/><line class="cls-8" x1="40.17" y1="41.17" x2="40.17" y2="132.82"/><line class="cls-8" x1="39.14" y1="132.73" x2="141.54" y2="132.73"/></svg>